<?xml version="1.0" encoding="utf-8" standalone="no"?>
<!DOCTYPE svg PUBLIC "-//W3C//DTD SVG 1.1//EN"
  "http://www.w3.org/Graphics/SVG/1.1/DTD/svg11.dtd">
<!-- Created with matplotlib (https://matplotlib.org/) -->
<svg height="432pt" version="1.1" viewBox="0 0 720 432" width="720pt" xmlns="http://www.w3.org/2000/svg" xmlns:xlink="http://www.w3.org/1999/xlink">
 <defs>
  <style type="text/css">
*{stroke-linecap:butt;stroke-linejoin:round;}
  </style>
 </defs>
 <g id="figure_1">
  <g id="patch_1">
   <path d="M 0 432 
L 720 432 
L 720 0 
L 0 0 
z
" style="fill:#ffffff;"/>
  </g>
  <g id="axes_1">
   <g id="patch_2">
    <path d="M 90 378 
L 648 378 
L 648 51.84 
L 90 51.84 
z
" style="fill:#ffffff;"/>
   </g>
   <g id="matplotlib.axis_1">
    <g id="xtick_1">
     <g id="text_1">
      <!-- 0 -->
      <defs>
       <path d="M 4.15625 35.296875 
Q 4.15625 48 6.765625 55.734375 
Q 9.375 63.484375 14.515625 67.671875 
Q 19.671875 71.875 27.484375 71.875 
Q 33.25 71.875 37.59375 69.546875 
Q 41.9375 67.234375 44.765625 62.859375 
Q 47.609375 58.5 49.21875 52.21875 
Q 50.828125 45.953125 50.828125 35.296875 
Q 50.828125 22.703125 48.234375 14.96875 
Q 45.65625 7.234375 40.5 3 
Q 35.359375 -1.21875 27.484375 -1.21875 
Q 17.140625 -1.21875 11.234375 6.203125 
Q 4.15625 15.140625 4.15625 35.296875 
z
M 13.1875 35.296875 
Q 13.1875 17.671875 17.3125 11.828125 
Q 21.4375 6 27.484375 6 
Q 33.546875 6 37.671875 11.859375 
Q 41.796875 17.71875 41.796875 35.296875 
Q 41.796875 52.984375 37.671875 58.78125 
Q 33.546875 64.59375 27.390625 64.59375 
Q 21.34375 64.59375 17.71875 59.46875 
Q 13.1875 52.9375 13.1875 35.296875 
z
" id="ArialMT-48"/>
      </defs>
      <g style="fill:#262626;" transform="translate(108.690511 407.67875)scale(0.24 -0.24)">
       <use xlink:href="#ArialMT-48"/>
      </g>
     </g>
    </g>
    <g id="xtick_2">
     <g id="text_2">
      <!-- 2 -->
      <defs>
       <path d="M 50.34375 8.453125 
L 50.34375 0 
L 3.03125 0 
Q 2.9375 3.171875 4.046875 6.109375 
Q 5.859375 10.9375 9.828125 15.625 
Q 13.8125 20.3125 21.34375 26.46875 
Q 33.015625 36.03125 37.109375 41.625 
Q 41.21875 47.21875 41.21875 52.203125 
Q 41.21875 57.421875 37.46875 61 
Q 33.734375 64.59375 27.734375 64.59375 
Q 21.390625 64.59375 17.578125 60.78125 
Q 13.765625 56.984375 13.71875 50.25 
L 4.6875 51.171875 
Q 5.609375 61.28125 11.65625 66.578125 
Q 17.71875 71.875 27.9375 71.875 
Q 38.234375 71.875 44.234375 66.15625 
Q 50.25 60.453125 50.25 52 
Q 50.25 47.703125 48.484375 43.546875 
Q 46.734375 39.40625 42.65625 34.8125 
Q 38.578125 30.21875 29.109375 22.21875 
Q 21.1875 15.578125 18.9375 13.203125 
Q 16.703125 10.84375 15.234375 8.453125 
z
" id="ArialMT-50"/>
      </defs>
      <g style="fill:#262626;" transform="translate(236.306292 407.67875)scale(0.24 -0.24)">
       <use xlink:href="#ArialMT-50"/>
      </g>
     </g>
    </g>
    <g id="xtick_3">
     <g id="text_3">
      <!-- 4 -->
      <defs>
       <path d="M 32.328125 0 
L 32.328125 17.140625 
L 1.265625 17.140625 
L 1.265625 25.203125 
L 33.9375 71.578125 
L 41.109375 71.578125 
L 41.109375 25.203125 
L 50.78125 25.203125 
L 50.78125 17.140625 
L 41.109375 17.140625 
L 41.109375 0 
z
M 32.328125 25.203125 
L 32.328125 57.46875 
L 9.90625 25.203125 
z
" id="ArialMT-52"/>
      </defs>
      <g style="fill:#262626;" transform="translate(363.922072 407.67875)scale(0.24 -0.24)">
       <use xlink:href="#ArialMT-52"/>
      </g>
     </g>
    </g>
    <g id="xtick_4">
     <g id="text_4">
      <!-- 6 -->
      <defs>
       <path d="M 49.75 54.046875 
L 41.015625 53.375 
Q 39.84375 58.546875 37.703125 60.890625 
Q 34.125 64.65625 28.90625 64.65625 
Q 24.703125 64.65625 21.53125 62.3125 
Q 17.390625 59.28125 14.984375 53.46875 
Q 12.59375 47.65625 12.5 36.921875 
Q 15.671875 41.75 20.265625 44.09375 
Q 24.859375 46.4375 29.890625 46.4375 
Q 38.671875 46.4375 44.84375 39.96875 
Q 51.03125 33.5 51.03125 23.25 
Q 51.03125 16.5 48.125 10.71875 
Q 45.21875 4.9375 40.140625 1.859375 
Q 35.0625 -1.21875 28.609375 -1.21875 
Q 17.625 -1.21875 10.6875 6.859375 
Q 3.765625 14.9375 3.765625 33.5 
Q 3.765625 54.25 11.421875 63.671875 
Q 18.109375 71.875 29.4375 71.875 
Q 37.890625 71.875 43.28125 67.140625 
Q 48.6875 62.40625 49.75 54.046875 
z
M 13.875 23.1875 
Q 13.875 18.65625 15.796875 14.5 
Q 17.71875 10.359375 21.1875 8.171875 
Q 24.65625 6 28.46875 6 
Q 34.03125 6 38.03125 10.484375 
Q 42.046875 14.984375 42.046875 22.703125 
Q 42.046875 30.125 38.078125 34.390625 
Q 34.125 38.671875 28.125 38.671875 
Q 22.171875 38.671875 18.015625 34.390625 
Q 13.875 30.125 13.875 23.1875 
z
" id="ArialMT-54"/>
      </defs>
      <g style="fill:#262626;" transform="translate(491.537853 407.67875)scale(0.24 -0.24)">
       <use xlink:href="#ArialMT-54"/>
      </g>
     </g>
    </g>
    <g id="xtick_5">
     <g id="text_5">
      <!-- 8 -->
      <defs>
       <path d="M 17.671875 38.8125 
Q 12.203125 40.828125 9.5625 44.53125 
Q 6.9375 48.25 6.9375 53.421875 
Q 6.9375 61.234375 12.546875 66.546875 
Q 18.171875 71.875 27.484375 71.875 
Q 36.859375 71.875 42.578125 66.421875 
Q 48.296875 60.984375 48.296875 53.171875 
Q 48.296875 48.1875 45.671875 44.5 
Q 43.0625 40.828125 37.75 38.8125 
Q 44.34375 36.671875 47.78125 31.875 
Q 51.21875 27.09375 51.21875 20.453125 
Q 51.21875 11.28125 44.71875 5.03125 
Q 38.234375 -1.21875 27.640625 -1.21875 
Q 17.046875 -1.21875 10.546875 5.046875 
Q 4.046875 11.328125 4.046875 20.703125 
Q 4.046875 27.6875 7.59375 32.390625 
Q 11.140625 37.109375 17.671875 38.8125 
z
M 15.921875 53.71875 
Q 15.921875 48.640625 19.1875 45.40625 
Q 22.46875 42.1875 27.6875 42.1875 
Q 32.765625 42.1875 36.015625 45.375 
Q 39.265625 48.578125 39.265625 53.21875 
Q 39.265625 58.0625 35.90625 61.359375 
Q 32.5625 64.65625 27.59375 64.65625 
Q 22.5625 64.65625 19.234375 61.421875 
Q 15.921875 58.203125 15.921875 53.71875 
z
M 13.09375 20.65625 
Q 13.09375 16.890625 14.875 13.375 
Q 16.65625 9.859375 20.171875 7.921875 
Q 23.6875 6 27.734375 6 
Q 34.03125 6 38.125 10.046875 
Q 42.234375 14.109375 42.234375 20.359375 
Q 42.234375 26.703125 38.015625 30.859375 
Q 33.796875 35.015625 27.4375 35.015625 
Q 21.234375 35.015625 17.15625 30.90625 
Q 13.09375 26.8125 13.09375 20.65625 
z
" id="ArialMT-56"/>
      </defs>
      <g style="fill:#262626;" transform="translate(619.153633 407.67875)scale(0.24 -0.24)">
       <use xlink:href="#ArialMT-56"/>
      </g>
     </g>
    </g>
    <g id="text_6">
     <!-- Time(sec) -->
     <defs>
      <path d="M 25.921875 0 
L 25.921875 63.140625 
L 2.34375 63.140625 
L 2.34375 71.578125 
L 59.078125 71.578125 
L 59.078125 63.140625 
L 35.40625 63.140625 
L 35.40625 0 
z
" id="ArialMT-84"/>
      <path d="M 6.640625 61.46875 
L 6.640625 71.578125 
L 15.4375 71.578125 
L 15.4375 61.46875 
z
M 6.640625 0 
L 6.640625 51.859375 
L 15.4375 51.859375 
L 15.4375 0 
z
" id="ArialMT-105"/>
      <path d="M 6.59375 0 
L 6.59375 51.859375 
L 14.453125 51.859375 
L 14.453125 44.578125 
Q 16.890625 48.390625 20.9375 50.703125 
Q 25 53.03125 30.171875 53.03125 
Q 35.9375 53.03125 39.625 50.640625 
Q 43.3125 48.25 44.828125 43.953125 
Q 50.984375 53.03125 60.84375 53.03125 
Q 68.5625 53.03125 72.703125 48.75 
Q 76.859375 44.484375 76.859375 35.59375 
L 76.859375 0 
L 68.109375 0 
L 68.109375 32.671875 
Q 68.109375 37.9375 67.25 40.25 
Q 66.40625 42.578125 64.15625 43.984375 
Q 61.921875 45.40625 58.890625 45.40625 
Q 53.421875 45.40625 49.796875 41.765625 
Q 46.1875 38.140625 46.1875 30.125 
L 46.1875 0 
L 37.40625 0 
L 37.40625 33.6875 
Q 37.40625 39.546875 35.25 42.46875 
Q 33.109375 45.40625 28.21875 45.40625 
Q 24.515625 45.40625 21.359375 43.453125 
Q 18.21875 41.5 16.796875 37.734375 
Q 15.375 33.984375 15.375 26.90625 
L 15.375 0 
z
" id="ArialMT-109"/>
      <path d="M 42.09375 16.703125 
L 51.171875 15.578125 
Q 49.03125 7.625 43.21875 3.21875 
Q 37.40625 -1.171875 28.375 -1.171875 
Q 17 -1.171875 10.328125 5.828125 
Q 3.65625 12.84375 3.65625 25.484375 
Q 3.65625 38.578125 10.390625 45.796875 
Q 17.140625 53.03125 27.875 53.03125 
Q 38.28125 53.03125 44.875 45.953125 
Q 51.46875 38.875 51.46875 26.03125 
Q 51.46875 25.25 51.421875 23.6875 
L 12.75 23.6875 
Q 13.234375 15.140625 17.578125 10.59375 
Q 21.921875 6.0625 28.421875 6.0625 
Q 33.25 6.0625 36.671875 8.59375 
Q 40.09375 11.140625 42.09375 16.703125 
z
M 13.234375 30.90625 
L 42.1875 30.90625 
Q 41.609375 37.453125 38.875 40.71875 
Q 34.671875 45.796875 27.984375 45.796875 
Q 21.921875 45.796875 17.796875 41.75 
Q 13.671875 37.703125 13.234375 30.90625 
z
" id="ArialMT-101"/>
      <path d="M 23.390625 -21.046875 
Q 16.109375 -11.859375 11.078125 0.4375 
Q 6.0625 12.75 6.0625 25.921875 
Q 6.0625 37.546875 9.8125 48.1875 
Q 14.203125 60.546875 23.390625 72.796875 
L 29.6875 72.796875 
Q 23.78125 62.640625 21.875 58.296875 
Q 18.890625 51.5625 17.1875 44.234375 
Q 15.09375 35.109375 15.09375 25.875 
Q 15.09375 2.390625 29.6875 -21.046875 
z
" id="ArialMT-40"/>
      <path d="M 3.078125 15.484375 
L 11.765625 16.84375 
Q 12.5 11.625 15.84375 8.84375 
Q 19.1875 6.0625 25.203125 6.0625 
Q 31.25 6.0625 34.171875 8.515625 
Q 37.109375 10.984375 37.109375 14.3125 
Q 37.109375 17.28125 34.515625 19 
Q 32.71875 20.171875 25.53125 21.96875 
Q 15.875 24.421875 12.140625 26.203125 
Q 8.40625 27.984375 6.46875 31.125 
Q 4.546875 34.28125 4.546875 38.09375 
Q 4.546875 41.546875 6.125 44.5 
Q 7.71875 47.46875 10.453125 49.421875 
Q 12.5 50.921875 16.03125 51.96875 
Q 19.578125 53.03125 23.640625 53.03125 
Q 29.734375 53.03125 34.34375 51.265625 
Q 38.96875 49.515625 41.15625 46.5 
Q 43.359375 43.5 44.1875 38.484375 
L 35.59375 37.3125 
Q 35.015625 41.3125 32.203125 43.546875 
Q 29.390625 45.796875 24.265625 45.796875 
Q 18.21875 45.796875 15.625 43.796875 
Q 13.03125 41.796875 13.03125 39.109375 
Q 13.03125 37.40625 14.109375 36.03125 
Q 15.1875 34.625 17.484375 33.6875 
Q 18.796875 33.203125 25.25 31.453125 
Q 34.578125 28.953125 38.25 27.359375 
Q 41.9375 25.78125 44.03125 22.75 
Q 46.140625 19.734375 46.140625 15.234375 
Q 46.140625 10.84375 43.578125 6.953125 
Q 41.015625 3.078125 36.171875 0.953125 
Q 31.34375 -1.171875 25.25 -1.171875 
Q 15.140625 -1.171875 9.84375 3.03125 
Q 4.546875 7.234375 3.078125 15.484375 
z
" id="ArialMT-115"/>
      <path d="M 40.4375 19 
L 49.078125 17.875 
Q 47.65625 8.9375 41.8125 3.875 
Q 35.984375 -1.171875 27.484375 -1.171875 
Q 16.84375 -1.171875 10.375 5.78125 
Q 3.90625 12.75 3.90625 25.734375 
Q 3.90625 34.125 6.6875 40.421875 
Q 9.46875 46.734375 15.15625 49.875 
Q 20.84375 53.03125 27.546875 53.03125 
Q 35.984375 53.03125 41.359375 48.75 
Q 46.734375 44.484375 48.25 36.625 
L 39.703125 35.296875 
Q 38.484375 40.53125 35.375 43.15625 
Q 32.28125 45.796875 27.875 45.796875 
Q 21.234375 45.796875 17.078125 41.03125 
Q 12.9375 36.28125 12.9375 25.984375 
Q 12.9375 15.53125 16.9375 10.796875 
Q 20.953125 6.0625 27.390625 6.0625 
Q 32.5625 6.0625 36.03125 9.234375 
Q 39.5 12.40625 40.4375 19 
z
" id="ArialMT-99"/>
      <path d="M 12.359375 -21.046875 
L 6.0625 -21.046875 
Q 20.65625 2.390625 20.65625 25.875 
Q 20.65625 35.0625 18.5625 44.09375 
Q 16.890625 51.421875 13.921875 58.15625 
Q 12.015625 62.546875 6.0625 72.796875 
L 12.359375 72.796875 
Q 21.53125 60.546875 25.921875 48.1875 
Q 29.6875 37.546875 29.6875 25.921875 
Q 29.6875 12.75 24.625 0.4375 
Q 19.578125 -11.859375 12.359375 -21.046875 
z
" id="ArialMT-41"/>
     </defs>
     <g style="fill:#262626;" transform="translate(298.495 439.74375)scale(0.32 -0.32)">
      <use xlink:href="#ArialMT-84"/>
      <use x="57.333984" xlink:href="#ArialMT-105"/>
      <use x="79.550781" xlink:href="#ArialMT-109"/>
      <use x="162.851562" xlink:href="#ArialMT-101"/>
      <use x="218.466797" xlink:href="#ArialMT-40"/>
      <use x="251.767578" xlink:href="#ArialMT-115"/>
      <use x="301.767578" xlink:href="#ArialMT-101"/>
      <use x="357.382812" xlink:href="#ArialMT-99"/>
      <use x="407.382812" xlink:href="#ArialMT-41"/>
     </g>
    </g>
   </g>
   <g id="matplotlib.axis_2">
    <g id="ytick_1">
     <g id="text_7">
      <!-- 0.0 -->
      <defs>
       <path d="M 9.078125 0 
L 9.078125 10.015625 
L 19.09375 10.015625 
L 19.09375 0 
z
" id="ArialMT-46"/>
      </defs>
      <g style="fill:#262626;" transform="translate(44.14 371.76392)scale(0.24 -0.24)">
       <use xlink:href="#ArialMT-48"/>
       <use x="55.615234" xlink:href="#ArialMT-46"/>
       <use x="83.398438" xlink:href="#ArialMT-48"/>
      </g>
     </g>
    </g>
    <g id="ytick_2">
     <g id="text_8">
      <!-- 0.2 -->
      <g style="fill:#262626;" transform="translate(44.14 313.795503)scale(0.24 -0.24)">
       <use xlink:href="#ArialMT-48"/>
       <use x="55.615234" xlink:href="#ArialMT-46"/>
       <use x="83.398438" xlink:href="#ArialMT-50"/>
      </g>
     </g>
    </g>
    <g id="ytick_3">
     <g id="text_9">
      <!-- 0.4 -->
      <g style="fill:#262626;" transform="translate(44.14 255.827085)scale(0.24 -0.24)">
       <use xlink:href="#ArialMT-48"/>
       <use x="55.615234" xlink:href="#ArialMT-46"/>
       <use x="83.398438" xlink:href="#ArialMT-52"/>
      </g>
     </g>
    </g>
    <g id="ytick_4">
     <g id="text_10">
      <!-- 0.6 -->
      <g style="fill:#262626;" transform="translate(44.14 197.858668)scale(0.24 -0.24)">
       <use xlink:href="#ArialMT-48"/>
       <use x="55.615234" xlink:href="#ArialMT-46"/>
       <use x="83.398438" xlink:href="#ArialMT-54"/>
      </g>
     </g>
    </g>
    <g id="ytick_5">
     <g id="text_11">
      <!-- 0.8 -->
      <g style="fill:#262626;" transform="translate(44.14 139.89025)scale(0.24 -0.24)">
       <use xlink:href="#ArialMT-48"/>
       <use x="55.615234" xlink:href="#ArialMT-46"/>
       <use x="83.398438" xlink:href="#ArialMT-56"/>
      </g>
     </g>
    </g>
    <g id="ytick_6">
     <g id="text_12">
      <!-- 1.0 -->
      <defs>
       <path d="M 37.25 0 
L 28.46875 0 
L 28.46875 56 
Q 25.296875 52.984375 20.140625 49.953125 
Q 14.984375 46.921875 10.890625 45.40625 
L 10.890625 53.90625 
Q 18.265625 57.375 23.78125 62.296875 
Q 29.296875 67.234375 31.59375 71.875 
L 37.25 71.875 
z
" id="ArialMT-49"/>
      </defs>
      <g style="fill:#262626;" transform="translate(44.14 81.921833)scale(0.24 -0.24)">
       <use xlink:href="#ArialMT-49"/>
       <use x="55.615234" xlink:href="#ArialMT-46"/>
       <use x="83.398438" xlink:href="#ArialMT-48"/>
      </g>
     </g>
    </g>
    <g id="text_13">
     <!-- Cocontraction -->
     <defs>
      <path d="M 58.796875 25.09375 
L 68.265625 22.703125 
Q 65.28125 11.03125 57.546875 4.90625 
Q 49.8125 -1.21875 38.625 -1.21875 
Q 27.046875 -1.21875 19.796875 3.484375 
Q 12.546875 8.203125 8.765625 17.140625 
Q 4.984375 26.078125 4.984375 36.328125 
Q 4.984375 47.515625 9.25 55.828125 
Q 13.53125 64.15625 21.40625 68.46875 
Q 29.296875 72.796875 38.765625 72.796875 
Q 49.515625 72.796875 56.828125 67.328125 
Q 64.15625 61.859375 67.046875 51.953125 
L 57.71875 49.75 
Q 55.21875 57.5625 50.484375 61.125 
Q 45.75 64.703125 38.578125 64.703125 
Q 30.328125 64.703125 24.78125 60.734375 
Q 19.234375 56.78125 16.984375 50.109375 
Q 14.75 43.453125 14.75 36.375 
Q 14.75 27.25 17.40625 20.4375 
Q 20.0625 13.625 25.671875 10.25 
Q 31.296875 6.890625 37.84375 6.890625 
Q 45.796875 6.890625 51.3125 11.46875 
Q 56.84375 16.0625 58.796875 25.09375 
z
" id="ArialMT-67"/>
      <path d="M 3.328125 25.921875 
Q 3.328125 40.328125 11.328125 47.265625 
Q 18.015625 53.03125 27.640625 53.03125 
Q 38.328125 53.03125 45.109375 46.015625 
Q 51.90625 39.015625 51.90625 26.65625 
Q 51.90625 16.65625 48.90625 10.90625 
Q 45.90625 5.171875 40.15625 2 
Q 34.421875 -1.171875 27.640625 -1.171875 
Q 16.75 -1.171875 10.03125 5.8125 
Q 3.328125 12.796875 3.328125 25.921875 
z
M 12.359375 25.921875 
Q 12.359375 15.96875 16.703125 11.015625 
Q 21.046875 6.0625 27.640625 6.0625 
Q 34.1875 6.0625 38.53125 11.03125 
Q 42.875 16.015625 42.875 26.21875 
Q 42.875 35.84375 38.5 40.796875 
Q 34.125 45.75 27.640625 45.75 
Q 21.046875 45.75 16.703125 40.8125 
Q 12.359375 35.890625 12.359375 25.921875 
z
" id="ArialMT-111"/>
      <path d="M 6.59375 0 
L 6.59375 51.859375 
L 14.5 51.859375 
L 14.5 44.484375 
Q 20.21875 53.03125 31 53.03125 
Q 35.6875 53.03125 39.625 51.34375 
Q 43.5625 49.65625 45.515625 46.921875 
Q 47.46875 44.1875 48.25 40.4375 
Q 48.734375 37.984375 48.734375 31.890625 
L 48.734375 0 
L 39.9375 0 
L 39.9375 31.546875 
Q 39.9375 36.921875 38.90625 39.578125 
Q 37.890625 42.234375 35.28125 43.8125 
Q 32.671875 45.40625 29.15625 45.40625 
Q 23.53125 45.40625 19.453125 41.84375 
Q 15.375 38.28125 15.375 28.328125 
L 15.375 0 
z
" id="ArialMT-110"/>
      <path d="M 25.78125 7.859375 
L 27.046875 0.09375 
Q 23.34375 -0.6875 20.40625 -0.6875 
Q 15.625 -0.6875 12.984375 0.828125 
Q 10.359375 2.34375 9.28125 4.8125 
Q 8.203125 7.28125 8.203125 15.1875 
L 8.203125 45.015625 
L 1.765625 45.015625 
L 1.765625 51.859375 
L 8.203125 51.859375 
L 8.203125 64.703125 
L 16.9375 69.96875 
L 16.9375 51.859375 
L 25.78125 51.859375 
L 25.78125 45.015625 
L 16.9375 45.015625 
L 16.9375 14.703125 
Q 16.9375 10.9375 17.40625 9.859375 
Q 17.875 8.796875 18.921875 8.15625 
Q 19.96875 7.515625 21.921875 7.515625 
Q 23.390625 7.515625 25.78125 7.859375 
z
" id="ArialMT-116"/>
      <path d="M 6.5 0 
L 6.5 51.859375 
L 14.40625 51.859375 
L 14.40625 44 
Q 17.4375 49.515625 20 51.265625 
Q 22.5625 53.03125 25.640625 53.03125 
Q 30.078125 53.03125 34.671875 50.203125 
L 31.640625 42.046875 
Q 28.421875 43.953125 25.203125 43.953125 
Q 22.3125 43.953125 20.015625 42.21875 
Q 17.71875 40.484375 16.75 37.40625 
Q 15.28125 32.71875 15.28125 27.15625 
L 15.28125 0 
z
" id="ArialMT-114"/>
      <path d="M 40.4375 6.390625 
Q 35.546875 2.25 31.03125 0.53125 
Q 26.515625 -1.171875 21.34375 -1.171875 
Q 12.796875 -1.171875 8.203125 3 
Q 3.609375 7.171875 3.609375 13.671875 
Q 3.609375 17.484375 5.34375 20.625 
Q 7.078125 23.78125 9.890625 25.6875 
Q 12.703125 27.59375 16.21875 28.5625 
Q 18.796875 29.25 24.03125 29.890625 
Q 34.671875 31.15625 39.703125 32.90625 
Q 39.75 34.71875 39.75 35.203125 
Q 39.75 40.578125 37.25 42.78125 
Q 33.890625 45.75 27.25 45.75 
Q 21.046875 45.75 18.09375 43.578125 
Q 15.140625 41.40625 13.71875 35.890625 
L 5.125 37.0625 
Q 6.296875 42.578125 8.984375 45.96875 
Q 11.671875 49.359375 16.75 51.1875 
Q 21.828125 53.03125 28.515625 53.03125 
Q 35.15625 53.03125 39.296875 51.46875 
Q 43.453125 49.90625 45.40625 47.53125 
Q 47.359375 45.171875 48.140625 41.546875 
Q 48.578125 39.3125 48.578125 33.453125 
L 48.578125 21.734375 
Q 48.578125 9.46875 49.140625 6.21875 
Q 49.703125 2.984375 51.375 0 
L 42.1875 0 
Q 40.828125 2.734375 40.4375 6.390625 
z
M 39.703125 26.03125 
Q 34.90625 24.078125 25.34375 22.703125 
Q 19.921875 21.921875 17.671875 20.9375 
Q 15.4375 19.96875 14.203125 18.09375 
Q 12.984375 16.21875 12.984375 13.921875 
Q 12.984375 10.40625 15.640625 8.0625 
Q 18.3125 5.71875 23.4375 5.71875 
Q 28.515625 5.71875 32.46875 7.9375 
Q 36.421875 10.15625 38.28125 14.015625 
Q 39.703125 17 39.703125 22.796875 
z
" id="ArialMT-97"/>
     </defs>
     <g style="fill:#262626;" transform="translate(33.78 313.6325)rotate(-90)scale(0.32 -0.32)">
      <use xlink:href="#ArialMT-67"/>
      <use x="72.216797" xlink:href="#ArialMT-111"/>
      <use x="127.832031" xlink:href="#ArialMT-99"/>
      <use x="177.832031" xlink:href="#ArialMT-111"/>
      <use x="233.447266" xlink:href="#ArialMT-110"/>
      <use x="289.0625" xlink:href="#ArialMT-116"/>
      <use x="316.845703" xlink:href="#ArialMT-114"/>
      <use x="350.146484" xlink:href="#ArialMT-97"/>
      <use x="405.761719" xlink:href="#ArialMT-99"/>
      <use x="455.761719" xlink:href="#ArialMT-116"/>
      <use x="483.544922" xlink:href="#ArialMT-105"/>
      <use x="505.761719" xlink:href="#ArialMT-111"/>
      <use x="561.376953" xlink:href="#ArialMT-110"/>
     </g>
    </g>
   </g>
   <g id="PolyCollection_1">
    <defs>
     <path d="M 115.363636 -76.86075 
L 115.363636 -68.825455 
L 118.554031 -68.825455 
L 121.744425 -68.825455 
L 124.93482 -68.825455 
L 128.125214 -68.825455 
L 131.315609 -68.825455 
L 134.506003 -68.825455 
L 137.696398 -68.825455 
L 140.886792 -69.261595 
L 144.077187 -70.347677 
L 147.267581 -73.189802 
L 150.457976 -78.151799 
L 153.64837 -85.451795 
L 156.838765 -92.646221 
L 160.02916 -101.155956 
L 163.219554 -109.810732 
L 166.409949 -124.769865 
L 169.600343 -140.562778 
L 172.790738 -158.014294 
L 175.981132 -180.711886 
L 179.171527 -202.958722 
L 182.361921 -224.780044 
L 185.552316 -240.625708 
L 188.74271 -258.196439 
L 191.933105 -271.415111 
L 195.123499 -287.113457 
L 198.313894 -298.102463 
L 201.504288 -297.948695 
L 204.694683 -300.063534 
L 207.885077 -300.535693 
L 211.075472 -292.351691 
L 214.265866 -282.824273 
L 217.456261 -266.117797 
L 220.646655 -251.748819 
L 223.83705 -236.641955 
L 227.027444 -214.73101 
L 230.217839 -190.88413 
L 233.408233 -171.826325 
L 236.598628 -152.950023 
L 239.789022 -138.155958 
L 242.979417 -122.155849 
L 246.169811 -109.776103 
L 249.360206 -99.648357 
L 252.5506 -91.745503 
L 255.740995 -86.855916 
L 258.931389 -84.846102 
L 262.121784 -81.460173 
L 265.312178 -80.01535 
L 268.502573 -78.150002 
L 271.692967 -76.325684 
L 274.883362 -75.37139 
L 278.073756 -73.344178 
L 281.264151 -72.49968 
L 284.454545 -71.504562 
L 287.64494 -70.949576 
L 290.835334 -70.593904 
L 294.025729 -70.40732 
L 297.216123 -70.15463 
L 300.406518 -69.733338 
L 303.596913 -70.043813 
L 306.787307 -70.095254 
L 309.977702 -70.069909 
L 313.168096 -70.148464 
L 316.358491 -70.038648 
L 319.548885 -69.788929 
L 322.73928 -69.843433 
L 325.929674 -70.368984 
L 329.120069 -70.794031 
L 332.310463 -71.366673 
L 335.500858 -71.586744 
L 338.691252 -72.015103 
L 341.881647 -72.509814 
L 345.072041 -73.179011 
L 348.262436 -73.037114 
L 351.45283 -73.453946 
L 354.643225 -75.866407 
L 357.833619 -77.573731 
L 361.024014 -79.781595 
L 364.214408 -81.958722 
L 367.404803 -84.710723 
L 370.595197 -87.764109 
L 373.785592 -89.824212 
L 376.975986 -94.526838 
L 380.166381 -98.443848 
L 383.356775 -102.775279 
L 386.54717 -107.459046 
L 389.737564 -113.90852 
L 392.927959 -121.714193 
L 396.118353 -129.292988 
L 399.308748 -139.426005 
L 402.499142 -150.846237 
L 405.689537 -163.144012 
L 408.879931 -179.741467 
L 412.070326 -195.816612 
L 415.26072 -209.622841 
L 418.451115 -225.17453 
L 421.641509 -237.599841 
L 424.831904 -249.769379 
L 428.022298 -262.268764 
L 431.212693 -271.205773 
L 434.403087 -277.506539 
L 437.593482 -284.617193 
L 440.783877 -292.23405 
L 443.974271 -294.866993 
L 447.164666 -285.499878 
L 450.35506 -282.391898 
L 453.545455 -274.282324 
L 456.735849 -256.716717 
L 459.926244 -241.719163 
L 463.116638 -227.468189 
L 466.307033 -207.759145 
L 469.497427 -195.993696 
L 472.687822 -183.896937 
L 475.878216 -171.083301 
L 479.068611 -160.086575 
L 482.259005 -149.490566 
L 485.4494 -139.946193 
L 488.639794 -128.517183 
L 491.830189 -122.066017 
L 495.020583 -113.363591 
L 498.210978 -110.091921 
L 501.401372 -105.118797 
L 504.591767 -101.905465 
L 507.782161 -97.974053 
L 510.972556 -93.626776 
L 514.16295 -89.649253 
L 517.353345 -85.592107 
L 520.543739 -82.258903 
L 523.734134 -79.678133 
L 526.924528 -77.699301 
L 530.114923 -76.621978 
L 533.305317 -75.37274 
L 536.495712 -74.609568 
L 539.686106 -73.978046 
L 542.876501 -73.244094 
L 546.066895 -72.882405 
L 549.25729 -72.56143 
L 552.447684 -72.789769 
L 555.638079 -72.027907 
L 558.828473 -71.770437 
L 562.018868 -71.441397 
L 565.209262 -71.086548 
L 568.399657 -70.663948 
L 571.590051 -70.536461 
L 574.780446 -70.247991 
L 577.97084 -70.322522 
L 581.161235 -70.835578 
L 584.35163 -71.015895 
L 587.542024 -71.301658 
L 590.732419 -72.196945 
L 593.922813 -72.311877 
L 597.113208 -72.875832 
L 600.303602 -74.11256 
L 603.493997 -75.996765 
L 606.684391 -78.021509 
L 609.874786 -80.330226 
L 613.06518 -82.46037 
L 616.255575 -84.274022 
L 619.445969 -87.155806 
L 622.636364 -89.86406 
L 622.636364 -114.106859 
L 622.636364 -114.106859 
L 619.445969 -110.274309 
L 616.255575 -103.404682 
L 613.06518 -99.778971 
L 609.874786 -96.203803 
L 606.684391 -93.160296 
L 603.493997 -88.243367 
L 600.303602 -84.674958 
L 597.113208 -81.890145 
L 593.922813 -79.387029 
L 590.732419 -78.366384 
L 587.542024 -77.404427 
L 584.35163 -77.08979 
L 581.161235 -76.456301 
L 577.97084 -76.271797 
L 574.780446 -77.005996 
L 571.590051 -77.415684 
L 568.399657 -78.031243 
L 565.209262 -78.829755 
L 562.018868 -78.914683 
L 558.828473 -79.999467 
L 555.638079 -80.811635 
L 552.447684 -82.681287 
L 549.25729 -84.216818 
L 546.066895 -85.050631 
L 542.876501 -86.09919 
L 539.686106 -86.348544 
L 536.495712 -87.621593 
L 533.305317 -89.09202 
L 530.114923 -91.794959 
L 526.924528 -93.554345 
L 523.734134 -95.59738 
L 520.543739 -99.266826 
L 517.353345 -102.105587 
L 514.16295 -106.377156 
L 510.972556 -110.916801 
L 507.782161 -118.700081 
L 504.591767 -123.361823 
L 501.401372 -129.268559 
L 498.210978 -139.655984 
L 495.020583 -149.695528 
L 491.830189 -160.611456 
L 488.639794 -178.374332 
L 485.4494 -196.104006 
L 482.259005 -209.055438 
L 479.068611 -219.955347 
L 475.878216 -232.608919 
L 472.687822 -248.653517 
L 469.497427 -264.031451 
L 466.307033 -276.4064 
L 463.116638 -285.20433 
L 459.926244 -295.810833 
L 456.735849 -310.76976 
L 453.545455 -328.692418 
L 450.35506 -337.946764 
L 447.164666 -344.259695 
L 443.974271 -348.695144 
L 440.783877 -349.878057 
L 437.593482 -346.621084 
L 434.403087 -343.95619 
L 431.212693 -341.427891 
L 428.022298 -330.125572 
L 424.831904 -325.47393 
L 421.641509 -312.904257 
L 418.451115 -299.756818 
L 415.26072 -289.29137 
L 412.070326 -271.590779 
L 408.879931 -259.300399 
L 405.689537 -237.694416 
L 402.499142 -221.994576 
L 399.308748 -208.534726 
L 396.118353 -199.752737 
L 392.927959 -180.161575 
L 389.737564 -168.801804 
L 386.54717 -160.21312 
L 383.356775 -151.44632 
L 380.166381 -141.25707 
L 376.975986 -129.455503 
L 373.785592 -122.319504 
L 370.595197 -115.802184 
L 367.404803 -109.567404 
L 364.214408 -106.036417 
L 361.024014 -102.176823 
L 357.833619 -98.167615 
L 354.643225 -93.31348 
L 351.45283 -89.053778 
L 348.262436 -87.086612 
L 345.072041 -85.581879 
L 341.881647 -83.699398 
L 338.691252 -82.789987 
L 335.500858 -81.641022 
L 332.310463 -81.420465 
L 329.120069 -81.554587 
L 325.929674 -81.450421 
L 322.73928 -80.619988 
L 319.548885 -81.219743 
L 316.358491 -81.843136 
L 313.168096 -81.658359 
L 309.977702 -83.105671 
L 306.787307 -82.199123 
L 303.596913 -81.884942 
L 300.406518 -81.643524 
L 297.216123 -80.972418 
L 294.025729 -80.118677 
L 290.835334 -80.736799 
L 287.64494 -80.57972 
L 284.454545 -80.944826 
L 281.264151 -81.929969 
L 278.073756 -83.097574 
L 274.883362 -86.723753 
L 271.692967 -88.489933 
L 268.502573 -91.941995 
L 265.312178 -94.654893 
L 262.121784 -97.008347 
L 258.931389 -100.094362 
L 255.740995 -103.615434 
L 252.5506 -110.687715 
L 249.360206 -120.421121 
L 246.169811 -133.949204 
L 242.979417 -151.196219 
L 239.789022 -171.342705 
L 236.598628 -193.833343 
L 233.408233 -217.548646 
L 230.217839 -239.69316 
L 227.027444 -262.164994 
L 223.83705 -285.713804 
L 220.646655 -307.37563 
L 217.456261 -323.299414 
L 214.265866 -339.068446 
L 211.075472 -353.317489 
L 207.885077 -359.410693 
L 204.694683 -362.152523 
L 201.504288 -360.33019 
L 198.313894 -355.53157 
L 195.123499 -343.955237 
L 191.933105 -329.35424 
L 188.74271 -312.874626 
L 185.552316 -295.594603 
L 182.361921 -271.287881 
L 179.171527 -245.221791 
L 175.981132 -217.182913 
L 172.790738 -191.981242 
L 169.600343 -170.451041 
L 166.409949 -149.739948 
L 163.219554 -129.201127 
L 160.02916 -116.719019 
L 156.838765 -106.558644 
L 153.64837 -96.055823 
L 150.457976 -85.928902 
L 147.267581 -79.284177 
L 144.077187 -74.613933 
L 140.886792 -71.995479 
L 137.696398 -69.017735 
L 134.506003 -68.825455 
L 131.315609 -68.825455 
L 128.125214 -70.374785 
L 124.93482 -71.00033 
L 121.744425 -72.608793 
L 118.554031 -74.447334 
L 115.363636 -76.86075 
z
" id="m051b52afb5" style="stroke:#808080;stroke-opacity:0.2;stroke-width:1.5;"/>
    </defs>
    <g clip-path="url(#p59e56e8d06)">
     <use style="fill:#808080;fill-opacity:0.2;stroke:#808080;stroke-opacity:0.2;stroke-width:1.5;" x="0" xlink:href="#m051b52afb5" y="432"/>
    </g>
   </g>
   <g id="PolyCollection_2">
    <defs>
     <path d="M 115.363636 -68.825455 
L 115.363636 -68.825455 
L 118.554031 -68.825455 
L 121.744425 -68.825455 
L 124.93482 -68.825455 
L 128.125214 -68.825455 
L 131.315609 -68.825455 
L 134.506003 -68.825455 
L 137.696398 -68.825455 
L 140.886792 -68.825455 
L 144.077187 -68.825455 
L 147.267581 -68.825455 
L 150.457976 -68.825455 
L 153.64837 -68.825455 
L 156.838765 -68.825455 
L 160.02916 -68.825455 
L 163.219554 -68.825455 
L 166.409949 -68.881772 
L 169.600343 -69.177825 
L 172.790738 -69.740478 
L 175.981132 -70.852196 
L 179.171527 -72.406342 
L 182.361921 -73.894802 
L 185.552316 -75.220588 
L 188.74271 -77.182978 
L 191.933105 -78.523233 
L 195.123499 -80.193286 
L 198.313894 -81.096502 
L 201.504288 -81.397852 
L 204.694683 -81.943247 
L 207.885077 -83.072817 
L 211.075472 -83.533571 
L 214.265866 -83.30602 
L 217.456261 -83.564179 
L 220.646655 -83.131598 
L 223.83705 -83.972521 
L 227.027444 -82.457953 
L 230.217839 -84.188533 
L 233.408233 -83.83837 
L 236.598628 -87.921537 
L 239.789022 -89.564802 
L 242.979417 -92.462672 
L 246.169811 -95.736215 
L 249.360206 -102.089375 
L 252.5506 -106.654904 
L 255.740995 -115.233589 
L 258.931389 -120.854161 
L 262.121784 -128.470557 
L 265.312178 -135.395042 
L 268.502573 -145.856244 
L 271.692967 -155.849389 
L 274.883362 -167.37205 
L 278.073756 -180.027713 
L 281.264151 -193.51668 
L 284.454545 -204.35151 
L 287.64494 -216.949359 
L 290.835334 -227.964339 
L 294.025729 -240.139329 
L 297.216123 -253.042081 
L 300.406518 -265.919542 
L 303.596913 -279.290674 
L 306.787307 -286.568077 
L 309.977702 -296.489008 
L 313.168096 -298.223903 
L 316.358491 -299.969324 
L 319.548885 -293.233491 
L 322.73928 -288.496611 
L 325.929674 -281.01766 
L 329.120069 -265.577679 
L 332.310463 -251.019355 
L 335.500858 -236.207173 
L 338.691252 -221.301741 
L 341.881647 -202.729517 
L 345.072041 -183.561162 
L 348.262436 -166.804048 
L 351.45283 -149.145344 
L 354.643225 -133.806655 
L 357.833619 -122.425434 
L 361.024014 -112.946908 
L 364.214408 -104.019898 
L 367.404803 -98.16059 
L 370.595197 -92.350535 
L 373.785592 -88.337968 
L 376.975986 -85.398877 
L 380.166381 -83.576303 
L 383.356775 -80.972877 
L 386.54717 -78.551368 
L 389.737564 -76.61855 
L 392.927959 -75.123619 
L 396.118353 -74.591607 
L 399.308748 -74.039442 
L 402.499142 -74.47381 
L 405.689537 -73.805881 
L 408.879931 -74.600436 
L 412.070326 -75.048933 
L 415.26072 -74.997129 
L 418.451115 -76.129701 
L 421.641509 -77.058498 
L 424.831904 -77.274311 
L 428.022298 -78.075487 
L 431.212693 -78.4298 
L 434.403087 -79.174894 
L 437.593482 -80.144968 
L 440.783877 -80.753477 
L 443.974271 -81.301779 
L 447.164666 -81.452018 
L 450.35506 -81.286804 
L 453.545455 -81.508347 
L 456.735849 -81.216164 
L 459.926244 -81.69486 
L 463.116638 -82.320895 
L 466.307033 -83.43763 
L 469.497427 -85.244675 
L 472.687822 -86.535005 
L 475.878216 -88.90628 
L 479.068611 -91.059277 
L 482.259005 -94.300815 
L 485.4494 -96.901786 
L 488.639794 -101.040527 
L 491.830189 -105.000992 
L 495.020583 -111.304574 
L 498.210978 -118.363903 
L 501.401372 -121.717206 
L 504.591767 -127.829802 
L 507.782161 -132.807947 
L 510.972556 -137.982291 
L 514.16295 -144.178269 
L 517.353345 -148.950003 
L 520.543739 -154.188886 
L 523.734134 -161.807489 
L 526.924528 -168.791467 
L 530.114923 -178.75099 
L 533.305317 -190.260898 
L 536.495712 -201.250479 
L 539.686106 -211.427386 
L 542.876501 -223.256618 
L 546.066895 -236.203542 
L 549.25729 -249.083364 
L 552.447684 -262.868724 
L 555.638079 -278.613444 
L 558.828473 -284.990401 
L 562.018868 -291.618552 
L 565.209262 -295.2632 
L 568.399657 -293.756274 
L 571.590051 -289.491328 
L 574.780446 -279.967666 
L 577.97084 -270.286631 
L 581.161235 -255.63918 
L 584.35163 -237.529638 
L 587.542024 -220.492158 
L 590.732419 -203.252611 
L 593.922813 -185.717539 
L 597.113208 -165.205428 
L 600.303602 -147.406153 
L 603.493997 -130.936593 
L 606.684391 -115.864805 
L 609.874786 -104.967109 
L 613.06518 -98.389078 
L 616.255575 -91.289931 
L 619.445969 -86.768444 
L 622.636364 -81.948408 
L 622.636364 -109.184787 
L 622.636364 -109.184787 
L 619.445969 -118.299758 
L 616.255575 -129.830488 
L 613.06518 -141.344568 
L 609.874786 -154.337989 
L 606.684391 -171.216523 
L 603.493997 -187.691734 
L 600.303602 -212.293977 
L 597.113208 -232.718192 
L 593.922813 -251.316483 
L 590.732419 -272.959626 
L 587.542024 -288.023866 
L 584.35163 -303.194516 
L 581.161235 -315.193768 
L 577.97084 -325.89784 
L 574.780446 -335.699601 
L 571.590051 -342.4293 
L 568.399657 -344.557186 
L 565.209262 -344.125201 
L 562.018868 -342.860921 
L 558.828473 -336.234558 
L 555.638079 -326.709199 
L 552.447684 -313.958555 
L 549.25729 -299.577868 
L 546.066895 -285.378162 
L 542.876501 -274.84684 
L 539.686106 -261.901851 
L 536.495712 -256.218992 
L 533.305317 -237.317581 
L 530.114923 -225.775433 
L 526.924528 -215.272209 
L 523.734134 -201.62435 
L 520.543739 -195.049841 
L 517.353345 -187.275343 
L 514.16295 -181.205189 
L 510.972556 -178.313299 
L 507.782161 -169.770491 
L 504.591767 -163.105155 
L 501.401372 -156.884869 
L 498.210978 -150.154752 
L 495.020583 -141.809308 
L 491.830189 -131.880552 
L 488.639794 -125.10573 
L 485.4494 -119.673745 
L 482.259005 -117.027742 
L 479.068611 -110.920271 
L 475.878216 -106.875863 
L 472.687822 -103.476598 
L 469.497427 -99.224775 
L 466.307033 -95.226758 
L 463.116638 -92.779615 
L 459.926244 -90.996128 
L 456.735849 -89.679278 
L 453.545455 -89.794195 
L 450.35506 -89.001796 
L 447.164666 -88.163863 
L 443.974271 -87.545608 
L 440.783877 -86.905772 
L 437.593482 -86.318397 
L 434.403087 -85.273162 
L 431.212693 -84.506124 
L 428.022298 -84.260158 
L 424.831904 -83.67751 
L 421.641509 -83.742264 
L 418.451115 -83.305246 
L 415.26072 -82.024722 
L 412.070326 -82.839876 
L 408.879931 -82.821369 
L 405.689537 -82.090602 
L 402.499142 -83.473606 
L 399.308748 -84.079705 
L 396.118353 -85.131292 
L 392.927959 -87.581159 
L 389.737564 -92.203414 
L 386.54717 -95.248486 
L 383.356775 -100.15089 
L 380.166381 -105.535397 
L 376.975986 -111.976467 
L 373.785592 -118.510444 
L 370.595197 -125.917872 
L 367.404803 -139.760635 
L 364.214408 -150.575209 
L 361.024014 -162.647582 
L 357.833619 -182.162482 
L 354.643225 -204.161338 
L 351.45283 -223.48745 
L 348.262436 -247.573452 
L 345.072041 -266.629691 
L 341.881647 -284.317713 
L 338.691252 -301.283061 
L 335.500858 -313.268498 
L 332.310463 -329.117314 
L 329.120069 -338.944848 
L 325.929674 -351.020279 
L 322.73928 -359.088508 
L 319.548885 -362.312603 
L 316.358491 -365.334545 
L 313.168096 -361.492402 
L 309.977702 -358.446281 
L 306.787307 -353.248991 
L 303.596913 -336.363816 
L 300.406518 -326.311038 
L 297.216123 -311.654204 
L 294.025729 -298.611237 
L 290.835334 -280.242754 
L 287.64494 -263.506008 
L 284.454545 -250.211397 
L 281.264151 -238.325358 
L 278.073756 -225.286738 
L 274.883362 -214.114541 
L 271.692967 -205.028554 
L 268.502573 -199.379759 
L 265.312178 -189.42509 
L 262.121784 -183.292156 
L 258.931389 -179.449443 
L 255.740995 -175.129979 
L 252.5506 -171.093437 
L 249.360206 -166.344211 
L 246.169811 -157.592558 
L 242.979417 -152.569024 
L 239.789022 -142.454632 
L 236.598628 -139.153499 
L 233.408233 -133.649364 
L 230.217839 -128.489389 
L 227.027444 -125.739543 
L 223.83705 -122.7917 
L 220.646655 -118.194204 
L 217.456261 -115.931542 
L 214.265866 -110.460261 
L 211.075472 -108.597667 
L 207.885077 -104.003723 
L 204.694683 -102.205609 
L 201.504288 -99.258311 
L 198.313894 -98.688969 
L 195.123499 -96.178363 
L 191.933105 -93.95714 
L 188.74271 -90.470428 
L 185.552316 -88.53084 
L 182.361921 -86.203215 
L 179.171527 -84.357018 
L 175.981132 -81.598645 
L 172.790738 -79.670778 
L 169.600343 -78.643901 
L 166.409949 -77.340587 
L 163.219554 -75.216514 
L 160.02916 -74.220966 
L 156.838765 -72.497758 
L 153.64837 -71.497253 
L 150.457976 -69.825013 
L 147.267581 -68.895895 
L 144.077187 -68.872503 
L 140.886792 -68.825455 
L 137.696398 -68.825455 
L 134.506003 -68.825455 
L 131.315609 -68.825455 
L 128.125214 -68.825455 
L 124.93482 -68.825455 
L 121.744425 -68.825455 
L 118.554031 -68.825455 
L 115.363636 -68.825455 
z
" id="m633373e334" style="stroke:#808080;stroke-opacity:0.2;stroke-width:1.5;"/>
    </defs>
    <g clip-path="url(#p59e56e8d06)">
     <use style="fill:#808080;fill-opacity:0.2;stroke:#808080;stroke-opacity:0.2;stroke-width:1.5;" x="0" xlink:href="#m633373e334" y="432"/>
    </g>
   </g>
   <g id="PolyCollection_3">
    <defs>
     <path d="M 115.363636 -68.825455 
L 115.363636 -68.825455 
L 118.554031 -68.825455 
L 121.744425 -68.825455 
L 124.93482 -68.825455 
L 128.125214 -68.825455 
L 131.315609 -68.825455 
L 134.506003 -68.825455 
L 137.696398 -68.825455 
L 140.886792 -68.825455 
L 144.077187 -68.825455 
L 147.267581 -68.825455 
L 150.457976 -68.825455 
L 153.64837 -68.825455 
L 156.838765 -68.825455 
L 160.02916 -68.825455 
L 163.219554 -68.825455 
L 166.409949 -68.839202 
L 169.600343 -69.058609 
L 172.790738 -69.417965 
L 175.981132 -70.411797 
L 179.171527 -71.977287 
L 182.361921 -73.103655 
L 185.552316 -74.65873 
L 188.74271 -76.266056 
L 191.933105 -77.697456 
L 195.123499 -78.917171 
L 198.313894 -80.018166 
L 201.504288 -80.265574 
L 204.694683 -80.878507 
L 207.885077 -81.547468 
L 211.075472 -82.438225 
L 214.265866 -81.87305 
L 217.456261 -81.260974 
L 220.646655 -81.465238 
L 223.83705 -81.926416 
L 227.027444 -80.957158 
L 230.217839 -83.113811 
L 233.408233 -83.966847 
L 236.598628 -86.850181 
L 239.789022 -89.304819 
L 242.979417 -92.205374 
L 246.169811 -98.009985 
L 249.360206 -102.703603 
L 252.5506 -99.578144 
L 255.740995 -95.44688 
L 258.931389 -92.546569 
L 262.121784 -86.971379 
L 265.312178 -83.07911 
L 268.502573 -80.974897 
L 271.692967 -77.719301 
L 274.883362 -75.781684 
L 278.073756 -73.948901 
L 281.264151 -72.577921 
L 284.454545 -71.781722 
L 287.64494 -71.542768 
L 290.835334 -70.747742 
L 294.025729 -70.15952 
L 297.216123 -70.323464 
L 300.406518 -69.902361 
L 303.596913 -70.029951 
L 306.787307 -70.059456 
L 309.977702 -69.935314 
L 313.168096 -70.21236 
L 316.358491 -70.01872 
L 319.548885 -69.768036 
L 322.73928 -69.845967 
L 325.929674 -70.41808 
L 329.120069 -70.829708 
L 332.310463 -71.427347 
L 335.500858 -71.685117 
L 338.691252 -72.120412 
L 341.881647 -71.463702 
L 345.072041 -71.770102 
L 348.262436 -71.614014 
L 351.45283 -72.100729 
L 354.643225 -73.916092 
L 357.833619 -76.719975 
L 361.024014 -79.116824 
L 364.214408 -78.814204 
L 367.404803 -77.035327 
L 370.595197 -77.149063 
L 373.785592 -78.001192 
L 376.975986 -78.86929 
L 380.166381 -82.570749 
L 383.356775 -82.401472 
L 386.54717 -80.755513 
L 389.737564 -78.206635 
L 392.927959 -76.745461 
L 396.118353 -75.496904 
L 399.308748 -74.998072 
L 402.499142 -75.379904 
L 405.689537 -74.827204 
L 408.879931 -75.090594 
L 412.070326 -75.605291 
L 415.26072 -75.598572 
L 418.451115 -76.766532 
L 421.641509 -77.757545 
L 424.831904 -78.068365 
L 428.022298 -78.361497 
L 431.212693 -79.216344 
L 434.403087 -79.722372 
L 437.593482 -80.770611 
L 440.783877 -81.767876 
L 443.974271 -82.063521 
L 447.164666 -82.227135 
L 450.35506 -82.349863 
L 453.545455 -82.330478 
L 456.735849 -81.888057 
L 459.926244 -82.920919 
L 463.116638 -83.444878 
L 466.307033 -85.255439 
L 469.497427 -87.042435 
L 472.687822 -88.811152 
L 475.878216 -91.221373 
L 479.068611 -93.664768 
L 482.259005 -98.390187 
L 485.4494 -102.398885 
L 488.639794 -109.721978 
L 491.830189 -113.855705 
L 495.020583 -121.140722 
L 498.210978 -119.178083 
L 501.401372 -114.100471 
L 504.591767 -112.072822 
L 507.782161 -107.868614 
L 510.972556 -103.48238 
L 514.16295 -98.400166 
L 517.353345 -90.639925 
L 520.543739 -85.855875 
L 523.734134 -82.447791 
L 526.924528 -79.62649 
L 530.114923 -77.71111 
L 533.305317 -76.338804 
L 536.495712 -74.789477 
L 539.686106 -74.217119 
L 542.876501 -73.783847 
L 546.066895 -73.170536 
L 549.25729 -73.188225 
L 552.447684 -73.024344 
L 555.638079 -72.177183 
L 558.828473 -71.760995 
L 562.018868 -71.644254 
L 565.209262 -71.29044 
L 568.399657 -70.711839 
L 571.590051 -70.741054 
L 574.780446 -70.455589 
L 577.97084 -70.329097 
L 581.161235 -70.856601 
L 584.35163 -71.072367 
L 587.542024 -71.483538 
L 590.732419 -72.483948 
L 593.922813 -72.80533 
L 597.113208 -73.999891 
L 600.303602 -74.732703 
L 603.493997 -74.612956 
L 606.684391 -75.696112 
L 609.874786 -76.273938 
L 613.06518 -78.089524 
L 616.255575 -78.583295 
L 619.445969 -78.622149 
L 622.636364 -79.637215 
L 622.636364 -105.155337 
L 622.636364 -105.155337 
L 619.445969 -105.644468 
L 616.255575 -101.833192 
L 613.06518 -98.178874 
L 609.874786 -93.730308 
L 606.684391 -90.194515 
L 603.493997 -87.16735 
L 600.303602 -85.292217 
L 597.113208 -87.738343 
L 593.922813 -81.381845 
L 590.732419 -79.664472 
L 587.542024 -78.11026 
L 584.35163 -77.984359 
L 581.161235 -76.979442 
L 577.97084 -76.776314 
L 574.780446 -77.579596 
L 571.590051 -78.035164 
L 568.399657 -78.674131 
L 565.209262 -79.551936 
L 562.018868 -79.639101 
L 558.828473 -81.0124 
L 555.638079 -81.923836 
L 552.447684 -84.769557 
L 549.25729 -85.954089 
L 546.066895 -87.648177 
L 542.876501 -89.890096 
L 539.686106 -90.311645 
L 536.495712 -91.292085 
L 533.305317 -95.0102 
L 530.114923 -98.198004 
L 526.924528 -101.90898 
L 523.734134 -104.800768 
L 520.543739 -110.975429 
L 517.353345 -115.434808 
L 514.16295 -126.873786 
L 510.972556 -132.893928 
L 507.782161 -141.204716 
L 504.591767 -147.633269 
L 501.401372 -153.487365 
L 498.210978 -164.013244 
L 495.020583 -172.912816 
L 491.830189 -156.778531 
L 488.639794 -140.417022 
L 485.4494 -131.203375 
L 482.259005 -121.148958 
L 479.068611 -112.102175 
L 475.878216 -106.188038 
L 472.687822 -103.822371 
L 469.497427 -99.840678 
L 466.307033 -102.777659 
L 463.116638 -102.70596 
L 459.926244 -98.99096 
L 456.735849 -93.900981 
L 453.545455 -93.689273 
L 450.35506 -91.754288 
L 447.164666 -90.212099 
L 443.974271 -89.135406 
L 440.783877 -88.448295 
L 437.593482 -87.339257 
L 434.403087 -86.390689 
L 431.212693 -85.692959 
L 428.022298 -85.428097 
L 424.831904 -84.818591 
L 421.641509 -84.815283 
L 418.451115 -84.391744 
L 415.26072 -83.244507 
L 412.070326 -84.529021 
L 408.879931 -85.052709 
L 405.689537 -85.55782 
L 402.499142 -89.109651 
L 399.308748 -90.927022 
L 396.118353 -93.527705 
L 392.927959 -101.938821 
L 389.737564 -101.117232 
L 386.54717 -102.657303 
L 383.356775 -108.569363 
L 380.166381 -109.126993 
L 376.975986 -102.856734 
L 373.785592 -96.006732 
L 370.595197 -92.886826 
L 367.404803 -91.13301 
L 364.214408 -91.577002 
L 361.024014 -91.412139 
L 357.833619 -88.326146 
L 354.643225 -83.273657 
L 351.45283 -80.394816 
L 348.262436 -79.852134 
L 345.072041 -80.422857 
L 341.881647 -85.759375 
L 338.691252 -84.169453 
L 335.500858 -84.165244 
L 332.310463 -83.059563 
L 329.120069 -83.134276 
L 325.929674 -84.090099 
L 322.73928 -83.352452 
L 319.548885 -84.001166 
L 316.358491 -84.489423 
L 313.168096 -85.274454 
L 309.977702 -86.376137 
L 306.787307 -86.339455 
L 303.596913 -85.17492 
L 300.406518 -84.819018 
L 297.216123 -84.663359 
L 294.025729 -83.125558 
L 290.835334 -81.817666 
L 287.64494 -83.269022 
L 284.454545 -83.464302 
L 281.264151 -86.09224 
L 278.073756 -87.346066 
L 274.883362 -92.624468 
L 271.692967 -97.161488 
L 268.502573 -102.512042 
L 265.312178 -108.326402 
L 262.121784 -112.704159 
L 258.931389 -120.188906 
L 255.740995 -124.382233 
L 252.5506 -132.273357 
L 249.360206 -138.573121 
L 246.169811 -131.014507 
L 242.979417 -134.109313 
L 239.789022 -126.119578 
L 236.598628 -128.607116 
L 233.408233 -127.514333 
L 230.217839 -118.45119 
L 227.027444 -110.388752 
L 223.83705 -106.76859 
L 220.646655 -103.251498 
L 217.456261 -100.968121 
L 214.265866 -100.265407 
L 211.075472 -97.892644 
L 207.885077 -94.444687 
L 204.694683 -93.527008 
L 201.504288 -91.947416 
L 198.313894 -91.403566 
L 195.123499 -88.760847 
L 191.933105 -85.246564 
L 188.74271 -79.983396 
L 185.552316 -78.011277 
L 182.361921 -76.575909 
L 179.171527 -74.664941 
L 175.981132 -72.990676 
L 172.790738 -71.705028 
L 169.600343 -70.808144 
L 166.409949 -70.013504 
L 163.219554 -69.62695 
L 160.02916 -69.369134 
L 156.838765 -69.119828 
L 153.64837 -68.986487 
L 150.457976 -68.982937 
L 147.267581 -68.899444 
L 144.077187 -68.874926 
L 140.886792 -68.825455 
L 137.696398 -68.825455 
L 134.506003 -68.825455 
L 131.315609 -68.825455 
L 128.125214 -68.825455 
L 124.93482 -68.825455 
L 121.744425 -68.825455 
L 118.554031 -68.825455 
L 115.363636 -68.825455 
z
" id="md9d23f3c33" style="stroke:#0000ff;stroke-opacity:0.2;stroke-width:1.5;"/>
    </defs>
    <g clip-path="url(#p59e56e8d06)">
     <use style="fill:#0000ff;fill-opacity:0.2;stroke:#0000ff;stroke-opacity:0.2;stroke-width:1.5;" x="0" xlink:href="#md9d23f3c33" y="432"/>
    </g>
   </g>
   <g id="line2d_1">
    <path clip-path="url(#p59e56e8d06)" d="M 115.363636 360.403155 
L 118.554031 361.187764 
L 121.744425 361.794252 
L 124.93482 362.274321 
L 128.125214 362.547657 
L 131.315609 363.174545 
L 137.696398 363.110452 
L 140.886792 361.516388 
L 144.077187 359.766548 
L 147.267581 356.020251 
L 150.457976 350.163657 
L 156.838765 332.437675 
L 160.02916 323.443902 
L 163.219554 312.373378 
L 166.409949 295.110879 
L 169.600343 276.107824 
L 172.790738 255.858362 
L 182.361921 181.950214 
L 185.552316 160.627243 
L 188.74271 142.614915 
L 191.933105 127.393187 
L 195.123499 112.833214 
L 198.313894 101.939275 
L 201.504288 97.83277 
L 204.694683 96.82659 
L 207.885077 98.197969 
L 211.075472 104.783476 
L 214.265866 117.717474 
L 220.646655 149.735947 
L 227.027444 192.454365 
L 230.217839 215.557352 
L 236.598628 257.836016 
L 242.979417 294.763952 
L 246.169811 310.685627 
L 249.360206 322.199273 
L 252.5506 331.003515 
L 255.740995 337.062105 
L 262.121784 343.046292 
L 265.312178 344.837657 
L 268.502573 347.649294 
L 271.692967 350.158764 
L 274.883362 351.891179 
L 278.073756 354.205157 
L 284.454545 356.326606 
L 287.64494 356.712038 
L 290.835334 357.297193 
L 294.025729 357.264906 
L 297.216123 357.466554 
L 300.406518 357.425699 
L 303.596913 357.13369 
L 306.787307 356.967023 
L 309.977702 357.209354 
L 316.358491 357.461561 
L 319.548885 357.815331 
L 322.73928 357.981937 
L 325.929674 357.368721 
L 332.310463 356.608537 
L 335.500858 356.123891 
L 338.691252 355.22698 
L 341.881647 354.528425 
L 345.072041 353.214069 
L 348.262436 352.567567 
L 351.45283 350.968051 
L 354.643225 348.360046 
L 357.833619 345.429163 
L 361.024014 342.259695 
L 364.214408 339.363566 
L 367.404803 336.187281 
L 370.595197 332.010846 
L 373.785592 327.344321 
L 376.975986 322.26863 
L 380.166381 315.644706 
L 383.356775 308.103883 
L 386.54717 300.190141 
L 389.737564 292.887917 
L 392.927959 284.040485 
L 396.118353 272.764885 
L 399.308748 259.977291 
L 402.499142 248.752104 
L 405.689537 235.34572 
L 408.879931 216.442203 
L 412.070326 198.299708 
L 415.26072 181.986968 
L 418.451115 168.101436 
L 421.641509 155.723537 
L 424.831904 142.867475 
L 428.022298 133.196333 
L 431.212693 125.759633 
L 434.403087 121.033734 
L 440.783877 110.48101 
L 443.974271 111.162898 
L 447.164666 115.278227 
L 450.35506 121.15859 
L 453.545455 129.543356 
L 456.735849 146.544619 
L 459.926244 161.676224 
L 469.497427 202.471478 
L 472.687822 216.964602 
L 475.878216 230.547 
L 479.068611 243.241711 
L 482.259005 254.616841 
L 485.4494 266.417801 
L 488.639794 280.100553 
L 491.830189 291.133655 
L 495.020583 301.142766 
L 498.210978 308.459904 
L 501.401372 315.17132 
L 507.782161 324.26263 
L 510.972556 329.588069 
L 517.353345 338.694299 
L 520.543739 342.033712 
L 523.734134 344.81351 
L 526.924528 347.15147 
L 533.305317 350.215032 
L 536.495712 352.073322 
L 539.686106 352.854781 
L 546.066895 353.727033 
L 549.25729 354.421754 
L 552.447684 354.820033 
L 555.638079 355.941073 
L 558.828473 356.45876 
L 562.018868 357.195095 
L 565.209262 357.352478 
L 568.399657 358.07559 
L 571.590051 358.492518 
L 574.780446 358.631417 
L 577.97084 358.894482 
L 581.161235 358.679778 
L 584.35163 358.07465 
L 587.542024 357.843926 
L 590.732419 356.866307 
L 593.922813 356.267072 
L 597.113208 354.835977 
L 600.303602 352.80244 
L 603.493997 350.287623 
L 606.684391 347.001595 
L 609.874786 344.073887 
L 616.255575 337.934482 
L 619.445969 333.564116 
L 622.636364 329.862086 
L 622.636364 329.862086 
" style="fill:none;stroke:#808080;stroke-linecap:round;stroke-width:2.25;"/>
   </g>
   <g id="line2d_2">
    <path clip-path="url(#p59e56e8d06)" d="M 115.363636 363.174545 
L 147.267581 363.151065 
L 150.457976 362.876128 
L 153.64837 362.250703 
L 156.838765 361.893182 
L 160.02916 361.237411 
L 163.219554 360.895274 
L 169.600343 359.404758 
L 172.790738 358.559326 
L 175.981132 357.151069 
L 179.171527 355.275222 
L 185.552316 351.782475 
L 188.74271 349.808804 
L 191.933105 347.096662 
L 198.313894 343.667171 
L 201.504288 343.051837 
L 204.694683 342.111261 
L 207.885077 340.237753 
L 211.075472 338.508485 
L 220.646655 334.635305 
L 223.83705 332.770094 
L 227.027444 331.686967 
L 230.217839 328.782554 
L 233.408233 326.784573 
L 236.598628 323.149743 
L 239.789022 320.239241 
L 242.979417 315.77688 
L 246.169811 310.851326 
L 252.5506 298.808319 
L 255.740995 291.782678 
L 262.121784 278.823967 
L 265.312178 272.04556 
L 268.502573 263.164691 
L 271.692967 253.42971 
L 278.073756 231.316894 
L 284.454545 204.156085 
L 287.64494 191.478445 
L 290.835334 179.494284 
L 294.025729 164.782781 
L 297.216123 150.915603 
L 303.596913 126.76073 
L 306.787307 115.891247 
L 309.977702 107.280918 
L 313.168096 102.403408 
L 316.358491 101.695828 
L 319.548885 104.171757 
L 322.73928 108.359685 
L 325.929674 116.268748 
L 329.120069 128.67573 
L 338.691252 170.737579 
L 345.072041 207.913262 
L 348.262436 225.401846 
L 351.45283 245.684006 
L 354.643225 264.285969 
L 357.833619 280.466094 
L 361.024014 293.897944 
L 364.214408 305.150539 
L 370.595197 323.065168 
L 373.785592 329.777803 
L 376.975986 333.474924 
L 380.166381 338.144692 
L 383.356775 341.627839 
L 386.54717 345.646542 
L 389.737564 348.420743 
L 392.927959 350.933947 
L 396.118353 352.544455 
L 399.308748 353.361505 
L 402.499142 353.569081 
L 405.689537 354.18682 
L 412.070326 353.465005 
L 415.26072 353.567244 
L 418.451115 352.397506 
L 421.641509 351.607175 
L 424.831904 351.492596 
L 428.022298 350.831853 
L 431.212693 350.362285 
L 434.403087 349.746667 
L 437.593482 348.779654 
L 440.783877 348.070936 
L 443.974271 347.627511 
L 447.164666 347.48009 
L 450.35506 347.214416 
L 453.545455 346.731599 
L 456.735849 347.063857 
L 459.926244 345.984394 
L 463.116638 345.116538 
L 466.307033 343.308857 
L 469.497427 341.019803 
L 472.687822 338.005042 
L 475.878216 335.580499 
L 479.068611 332.334029 
L 482.259005 327.776757 
L 485.4494 324.511479 
L 488.639794 319.609509 
L 491.830189 313.519028 
L 495.020583 305.684587 
L 498.210978 298.806889 
L 501.401372 293.230431 
L 504.591767 286.530934 
L 507.782161 280.589214 
L 510.972556 274.180486 
L 514.16295 268.963019 
L 517.353345 263.407064 
L 520.543739 257.398204 
L 523.734134 250.35836 
L 526.924528 240.632489 
L 533.305317 219.228265 
L 536.495712 206.00045 
L 539.686106 195.446795 
L 542.876501 183.804154 
L 546.066895 170.921644 
L 549.25729 156.4832 
L 555.638079 129.736715 
L 558.828473 121.230927 
L 562.018868 114.624866 
L 565.209262 112.471451 
L 568.399657 112.894952 
L 571.590051 115.432309 
L 574.780446 122.390533 
L 581.161235 145.643345 
L 587.542024 176.495892 
L 593.922813 213.115918 
L 600.303602 252.460815 
L 603.493997 272.891861 
L 606.684391 289.158622 
L 609.874786 303.497753 
L 613.06518 314.635521 
L 616.255575 323.242957 
L 619.445969 330.813498 
L 622.636364 337.671872 
L 622.636364 337.671872 
" style="fill:none;stroke:#808080;stroke-dasharray:8.325,3.6;stroke-dashoffset:0;stroke-width:2.25;"/>
   </g>
   <g id="line2d_3">
    <path clip-path="url(#p59e56e8d06)" d="M 115.363636 363.174545 
L 153.64837 363.120868 
L 163.219554 362.856377 
L 166.409949 362.690704 
L 169.600343 362.203888 
L 172.790738 361.50624 
L 175.981132 360.347773 
L 182.361921 357.160696 
L 185.552316 355.731833 
L 188.74271 353.819096 
L 191.933105 351.012751 
L 195.123499 348.941282 
L 198.313894 347.304403 
L 201.504288 346.650666 
L 204.694683 346.173551 
L 207.885077 344.879348 
L 211.075472 343.46167 
L 214.265866 342.588286 
L 217.456261 342.022021 
L 220.646655 341.268131 
L 223.83705 338.952612 
L 227.027444 337.476625 
L 230.217839 333.323325 
L 233.408233 329.607153 
L 236.598628 328.180475 
L 239.789022 326.923725 
L 242.979417 321.305325 
L 246.169811 318.044143 
L 249.360206 312.414154 
L 252.5506 316.897674 
L 255.740995 322.969105 
L 258.931389 325.773089 
L 262.121784 333.023294 
L 265.312178 336.881552 
L 268.502573 342.049808 
L 271.692967 346.146762 
L 274.883362 348.990016 
L 278.073756 352.249536 
L 284.454545 355.094946 
L 287.64494 355.567519 
L 290.835334 356.23289 
L 294.025729 356.160211 
L 297.216123 356.333071 
L 300.406518 356.138168 
L 303.596913 355.74366 
L 306.787307 355.514203 
L 309.977702 355.926665 
L 316.358491 356.469869 
L 319.548885 356.870089 
L 322.73928 357.127766 
L 325.929674 356.508279 
L 329.120069 356.221734 
L 332.310463 355.690367 
L 335.500858 354.71632 
L 338.691252 354.399927 
L 341.881647 354.391477 
L 345.072041 356.282254 
L 348.262436 356.6762 
L 351.45283 356.193233 
L 354.643225 353.720226 
L 357.833619 349.864539 
L 361.024014 347.217708 
L 364.214408 347.380009 
L 367.404803 348.425064 
L 370.595197 347.828277 
L 373.785592 345.63879 
L 376.975986 342.115752 
L 380.166381 337.31734 
L 383.356775 337.061706 
L 386.54717 340.968212 
L 389.737564 344.055495 
L 392.927959 344.208277 
L 396.118353 347.682068 
L 399.308748 349.734741 
L 402.499142 350.609234 
L 405.689537 352.302669 
L 412.070326 352.321359 
L 415.26072 352.755806 
L 418.451115 351.549428 
L 421.641509 350.78933 
L 424.831904 350.760455 
L 428.022298 350.065097 
L 431.212693 349.58302 
L 434.403087 348.924355 
L 437.593482 347.848252 
L 440.783877 347.028898 
L 443.974271 346.451222 
L 447.164666 346.177161 
L 450.35506 345.708728 
L 453.545455 344.880219 
L 456.735849 344.906245 
L 459.926244 343.026847 
L 463.116638 340.938091 
L 466.307033 339.49043 
L 469.497427 338.902066 
L 472.687822 335.975265 
L 475.878216 333.660241 
L 479.068611 329.187612 
L 485.4494 315.673046 
L 488.639794 307.8811 
L 495.020583 287.875485 
L 498.210978 290.718514 
L 501.401372 298.532584 
L 507.782161 308.475609 
L 510.972556 313.977476 
L 514.16295 321.180635 
L 517.353345 329.887333 
L 520.543739 335.485327 
L 523.734134 339.898416 
L 526.924528 343.247215 
L 530.114923 345.604641 
L 533.305317 347.710547 
L 536.495712 350.216732 
L 539.686106 351.254403 
L 542.876501 351.706826 
L 546.066895 352.375838 
L 549.25729 353.261578 
L 552.447684 353.845229 
L 555.638079 355.250531 
L 558.828473 355.840927 
L 562.018868 356.706801 
L 565.209262 356.87184 
L 568.399657 357.675767 
L 571.590051 358.148848 
L 574.780446 358.316952 
L 577.97084 358.637985 
L 581.161235 358.406357 
L 584.35163 357.693477 
L 587.542024 357.399668 
L 590.732419 356.103698 
L 593.922813 354.994286 
L 597.113208 351.853167 
L 600.303602 352.162702 
L 603.493997 351.48188 
L 606.684391 349.302127 
L 609.874786 347.859437 
L 613.06518 344.677306 
L 616.255575 342.966754 
L 619.445969 340.970301 
L 622.636364 340.251392 
L 622.636364 340.251392 
" style="fill:none;stroke:#0000ff;stroke-linecap:round;stroke-width:2.25;"/>
   </g>
   <g id="patch_3">
    <path d="M 90 378 
L 90 51.84 
" style="fill:none;stroke:#262626;stroke-linecap:square;stroke-linejoin:miter;stroke-width:1.875;"/>
   </g>
   <g id="patch_4">
    <path d="M 90 378 
L 648 378 
" style="fill:none;stroke:#262626;stroke-linecap:square;stroke-linejoin:miter;stroke-width:1.875;"/>
   </g>
   <g id="legend_1">
    <g id="patch_5">
     <path d="M 101.55 252.404648 
L 256.147266 252.404648 
Q 259.447266 252.404648 259.447266 249.104648 
L 259.447266 180.735352 
Q 259.447266 177.435352 256.147266 177.435352 
L 101.55 177.435352 
Q 98.25 177.435352 98.25 180.735352 
L 98.25 249.104648 
Q 98.25 252.404648 101.55 252.404648 
z
" style="fill:#ffffff;opacity:0.8;stroke:#cccccc;stroke-linejoin:miter;stroke-width:1.5;"/>
    </g>
    <g id="line2d_4">
     <path d="M 104.85 190.070742 
L 137.85 190.070742 
" style="fill:none;stroke:#808080;stroke-linecap:round;stroke-width:2.25;"/>
    </g>
    <g id="line2d_5"/>
    <g id="text_14">
     <!-- MAV1 -->
     <defs>
      <path d="M 7.421875 0 
L 7.421875 71.578125 
L 21.6875 71.578125 
L 38.625 20.90625 
Q 40.96875 13.8125 42.046875 10.296875 
Q 43.265625 14.203125 45.84375 21.78125 
L 62.984375 71.578125 
L 75.734375 71.578125 
L 75.734375 0 
L 66.609375 0 
L 66.609375 59.90625 
L 45.796875 0 
L 37.25 0 
L 16.546875 60.9375 
L 16.546875 0 
z
" id="ArialMT-77"/>
      <path d="M -0.140625 0 
L 27.34375 71.578125 
L 37.546875 71.578125 
L 66.84375 0 
L 56.0625 0 
L 47.703125 21.6875 
L 17.78125 21.6875 
L 9.90625 0 
z
M 20.515625 29.390625 
L 44.78125 29.390625 
L 37.3125 49.21875 
Q 33.890625 58.25 32.234375 64.0625 
Q 30.859375 57.171875 28.375 50.390625 
z
" id="ArialMT-65"/>
      <path d="M 28.171875 0 
L 0.4375 71.578125 
L 10.6875 71.578125 
L 29.296875 19.578125 
Q 31.546875 13.328125 33.0625 7.859375 
Q 34.71875 13.71875 36.921875 19.578125 
L 56.25 71.578125 
L 65.921875 71.578125 
L 37.890625 0 
z
" id="ArialMT-86"/>
     </defs>
     <g style="fill:#262626;" transform="translate(151.05 195.845742)scale(0.165 -0.165)">
      <use xlink:href="#ArialMT-77"/>
      <use x="83.300781" xlink:href="#ArialMT-65"/>
      <use x="142.625" xlink:href="#ArialMT-86"/>
      <use x="209.324219" xlink:href="#ArialMT-49"/>
     </g>
    </g>
    <g id="line2d_6">
     <path d="M 104.85 213.410508 
L 137.85 213.410508 
" style="fill:none;stroke:#808080;stroke-dasharray:8.325,3.6;stroke-dashoffset:0;stroke-width:2.25;"/>
    </g>
    <g id="line2d_7"/>
    <g id="text_15">
     <!-- MAV2 -->
     <g style="fill:#262626;" transform="translate(151.05 219.185508)scale(0.165 -0.165)">
      <use xlink:href="#ArialMT-77"/>
      <use x="83.300781" xlink:href="#ArialMT-65"/>
      <use x="142.625" xlink:href="#ArialMT-86"/>
      <use x="209.324219" xlink:href="#ArialMT-50"/>
     </g>
    </g>
    <g id="line2d_8">
     <path d="M 104.85 236.750273 
L 137.85 236.750273 
" style="fill:none;stroke:#0000ff;stroke-linecap:round;stroke-width:2.25;"/>
    </g>
    <g id="line2d_9"/>
    <g id="text_16">
     <!-- Cocontraction -->
     <g style="fill:#262626;" transform="translate(151.05 242.525273)scale(0.165 -0.165)">
      <use xlink:href="#ArialMT-67"/>
      <use x="72.216797" xlink:href="#ArialMT-111"/>
      <use x="127.832031" xlink:href="#ArialMT-99"/>
      <use x="177.832031" xlink:href="#ArialMT-111"/>
      <use x="233.447266" xlink:href="#ArialMT-110"/>
      <use x="289.0625" xlink:href="#ArialMT-116"/>
      <use x="316.845703" xlink:href="#ArialMT-114"/>
      <use x="350.146484" xlink:href="#ArialMT-97"/>
      <use x="405.761719" xlink:href="#ArialMT-99"/>
      <use x="455.761719" xlink:href="#ArialMT-116"/>
      <use x="483.544922" xlink:href="#ArialMT-105"/>
      <use x="505.761719" xlink:href="#ArialMT-111"/>
      <use x="561.376953" xlink:href="#ArialMT-110"/>
     </g>
    </g>
   </g>
  </g>
 </g>
 <defs>
  <clipPath id="p59e56e8d06">
   <rect height="326.16" width="558" x="90" y="51.84"/>
  </clipPath>
 </defs>
</svg>
