<?xml version="1.0" encoding="utf-8" standalone="no"?>
<!DOCTYPE svg PUBLIC "-//W3C//DTD SVG 1.1//EN"
  "http://www.w3.org/Graphics/SVG/1.1/DTD/svg11.dtd">
<!-- Created with matplotlib (https://matplotlib.org/) -->
<svg height="432pt" version="1.1" viewBox="0 0 720 432" width="720pt" xmlns="http://www.w3.org/2000/svg" xmlns:xlink="http://www.w3.org/1999/xlink">
 <defs>
  <style type="text/css">
*{stroke-linecap:butt;stroke-linejoin:round;}
  </style>
 </defs>
 <g id="figure_1">
  <g id="patch_1">
   <path d="M 0 432 
L 720 432 
L 720 0 
L 0 0 
z
" style="fill:#ffffff;"/>
  </g>
  <g id="axes_1">
   <g id="patch_2">
    <path d="M 90 378 
L 648 378 
L 648 51.84 
L 90 51.84 
z
" style="fill:#ffffff;"/>
   </g>
   <g id="matplotlib.axis_1">
    <g id="xtick_1">
     <g id="text_1">
      <!-- 0 -->
      <defs>
       <path d="M 4.15625 35.296875 
Q 4.15625 48 6.765625 55.734375 
Q 9.375 63.484375 14.515625 67.671875 
Q 19.671875 71.875 27.484375 71.875 
Q 33.25 71.875 37.59375 69.546875 
Q 41.9375 67.234375 44.765625 62.859375 
Q 47.609375 58.5 49.21875 52.21875 
Q 50.828125 45.953125 50.828125 35.296875 
Q 50.828125 22.703125 48.234375 14.96875 
Q 45.65625 7.234375 40.5 3 
Q 35.359375 -1.21875 27.484375 -1.21875 
Q 17.140625 -1.21875 11.234375 6.203125 
Q 4.15625 15.140625 4.15625 35.296875 
z
M 13.1875 35.296875 
Q 13.1875 17.671875 17.3125 11.828125 
Q 21.4375 6 27.484375 6 
Q 33.546875 6 37.671875 11.859375 
Q 41.796875 17.71875 41.796875 35.296875 
Q 41.796875 52.984375 37.671875 58.78125 
Q 33.546875 64.59375 27.390625 64.59375 
Q 21.34375 64.59375 17.71875 59.46875 
Q 13.1875 52.9375 13.1875 35.296875 
z
" id="ArialMT-48"/>
      </defs>
      <g style="fill:#262626;" transform="translate(108.690511 407.67875)scale(0.24 -0.24)">
       <use xlink:href="#ArialMT-48"/>
      </g>
     </g>
    </g>
    <g id="xtick_2">
     <g id="text_2">
      <!-- 2 -->
      <defs>
       <path d="M 50.34375 8.453125 
L 50.34375 0 
L 3.03125 0 
Q 2.9375 3.171875 4.046875 6.109375 
Q 5.859375 10.9375 9.828125 15.625 
Q 13.8125 20.3125 21.34375 26.46875 
Q 33.015625 36.03125 37.109375 41.625 
Q 41.21875 47.21875 41.21875 52.203125 
Q 41.21875 57.421875 37.46875 61 
Q 33.734375 64.59375 27.734375 64.59375 
Q 21.390625 64.59375 17.578125 60.78125 
Q 13.765625 56.984375 13.71875 50.25 
L 4.6875 51.171875 
Q 5.609375 61.28125 11.65625 66.578125 
Q 17.71875 71.875 27.9375 71.875 
Q 38.234375 71.875 44.234375 66.15625 
Q 50.25 60.453125 50.25 52 
Q 50.25 47.703125 48.484375 43.546875 
Q 46.734375 39.40625 42.65625 34.8125 
Q 38.578125 30.21875 29.109375 22.21875 
Q 21.1875 15.578125 18.9375 13.203125 
Q 16.703125 10.84375 15.234375 8.453125 
z
" id="ArialMT-50"/>
      </defs>
      <g style="fill:#262626;" transform="translate(236.306292 407.67875)scale(0.24 -0.24)">
       <use xlink:href="#ArialMT-50"/>
      </g>
     </g>
    </g>
    <g id="xtick_3">
     <g id="text_3">
      <!-- 4 -->
      <defs>
       <path d="M 32.328125 0 
L 32.328125 17.140625 
L 1.265625 17.140625 
L 1.265625 25.203125 
L 33.9375 71.578125 
L 41.109375 71.578125 
L 41.109375 25.203125 
L 50.78125 25.203125 
L 50.78125 17.140625 
L 41.109375 17.140625 
L 41.109375 0 
z
M 32.328125 25.203125 
L 32.328125 57.46875 
L 9.90625 25.203125 
z
" id="ArialMT-52"/>
      </defs>
      <g style="fill:#262626;" transform="translate(363.922072 407.67875)scale(0.24 -0.24)">
       <use xlink:href="#ArialMT-52"/>
      </g>
     </g>
    </g>
    <g id="xtick_4">
     <g id="text_4">
      <!-- 6 -->
      <defs>
       <path d="M 49.75 54.046875 
L 41.015625 53.375 
Q 39.84375 58.546875 37.703125 60.890625 
Q 34.125 64.65625 28.90625 64.65625 
Q 24.703125 64.65625 21.53125 62.3125 
Q 17.390625 59.28125 14.984375 53.46875 
Q 12.59375 47.65625 12.5 36.921875 
Q 15.671875 41.75 20.265625 44.09375 
Q 24.859375 46.4375 29.890625 46.4375 
Q 38.671875 46.4375 44.84375 39.96875 
Q 51.03125 33.5 51.03125 23.25 
Q 51.03125 16.5 48.125 10.71875 
Q 45.21875 4.9375 40.140625 1.859375 
Q 35.0625 -1.21875 28.609375 -1.21875 
Q 17.625 -1.21875 10.6875 6.859375 
Q 3.765625 14.9375 3.765625 33.5 
Q 3.765625 54.25 11.421875 63.671875 
Q 18.109375 71.875 29.4375 71.875 
Q 37.890625 71.875 43.28125 67.140625 
Q 48.6875 62.40625 49.75 54.046875 
z
M 13.875 23.1875 
Q 13.875 18.65625 15.796875 14.5 
Q 17.71875 10.359375 21.1875 8.171875 
Q 24.65625 6 28.46875 6 
Q 34.03125 6 38.03125 10.484375 
Q 42.046875 14.984375 42.046875 22.703125 
Q 42.046875 30.125 38.078125 34.390625 
Q 34.125 38.671875 28.125 38.671875 
Q 22.171875 38.671875 18.015625 34.390625 
Q 13.875 30.125 13.875 23.1875 
z
" id="ArialMT-54"/>
      </defs>
      <g style="fill:#262626;" transform="translate(491.537853 407.67875)scale(0.24 -0.24)">
       <use xlink:href="#ArialMT-54"/>
      </g>
     </g>
    </g>
    <g id="xtick_5">
     <g id="text_5">
      <!-- 8 -->
      <defs>
       <path d="M 17.671875 38.8125 
Q 12.203125 40.828125 9.5625 44.53125 
Q 6.9375 48.25 6.9375 53.421875 
Q 6.9375 61.234375 12.546875 66.546875 
Q 18.171875 71.875 27.484375 71.875 
Q 36.859375 71.875 42.578125 66.421875 
Q 48.296875 60.984375 48.296875 53.171875 
Q 48.296875 48.1875 45.671875 44.5 
Q 43.0625 40.828125 37.75 38.8125 
Q 44.34375 36.671875 47.78125 31.875 
Q 51.21875 27.09375 51.21875 20.453125 
Q 51.21875 11.28125 44.71875 5.03125 
Q 38.234375 -1.21875 27.640625 -1.21875 
Q 17.046875 -1.21875 10.546875 5.046875 
Q 4.046875 11.328125 4.046875 20.703125 
Q 4.046875 27.6875 7.59375 32.390625 
Q 11.140625 37.109375 17.671875 38.8125 
z
M 15.921875 53.71875 
Q 15.921875 48.640625 19.1875 45.40625 
Q 22.46875 42.1875 27.6875 42.1875 
Q 32.765625 42.1875 36.015625 45.375 
Q 39.265625 48.578125 39.265625 53.21875 
Q 39.265625 58.0625 35.90625 61.359375 
Q 32.5625 64.65625 27.59375 64.65625 
Q 22.5625 64.65625 19.234375 61.421875 
Q 15.921875 58.203125 15.921875 53.71875 
z
M 13.09375 20.65625 
Q 13.09375 16.890625 14.875 13.375 
Q 16.65625 9.859375 20.171875 7.921875 
Q 23.6875 6 27.734375 6 
Q 34.03125 6 38.125 10.046875 
Q 42.234375 14.109375 42.234375 20.359375 
Q 42.234375 26.703125 38.015625 30.859375 
Q 33.796875 35.015625 27.4375 35.015625 
Q 21.234375 35.015625 17.15625 30.90625 
Q 13.09375 26.8125 13.09375 20.65625 
z
" id="ArialMT-56"/>
      </defs>
      <g style="fill:#262626;" transform="translate(619.153633 407.67875)scale(0.24 -0.24)">
       <use xlink:href="#ArialMT-56"/>
      </g>
     </g>
    </g>
    <g id="text_6">
     <!-- Time(sec) -->
     <defs>
      <path d="M 25.921875 0 
L 25.921875 63.140625 
L 2.34375 63.140625 
L 2.34375 71.578125 
L 59.078125 71.578125 
L 59.078125 63.140625 
L 35.40625 63.140625 
L 35.40625 0 
z
" id="ArialMT-84"/>
      <path d="M 6.640625 61.46875 
L 6.640625 71.578125 
L 15.4375 71.578125 
L 15.4375 61.46875 
z
M 6.640625 0 
L 6.640625 51.859375 
L 15.4375 51.859375 
L 15.4375 0 
z
" id="ArialMT-105"/>
      <path d="M 6.59375 0 
L 6.59375 51.859375 
L 14.453125 51.859375 
L 14.453125 44.578125 
Q 16.890625 48.390625 20.9375 50.703125 
Q 25 53.03125 30.171875 53.03125 
Q 35.9375 53.03125 39.625 50.640625 
Q 43.3125 48.25 44.828125 43.953125 
Q 50.984375 53.03125 60.84375 53.03125 
Q 68.5625 53.03125 72.703125 48.75 
Q 76.859375 44.484375 76.859375 35.59375 
L 76.859375 0 
L 68.109375 0 
L 68.109375 32.671875 
Q 68.109375 37.9375 67.25 40.25 
Q 66.40625 42.578125 64.15625 43.984375 
Q 61.921875 45.40625 58.890625 45.40625 
Q 53.421875 45.40625 49.796875 41.765625 
Q 46.1875 38.140625 46.1875 30.125 
L 46.1875 0 
L 37.40625 0 
L 37.40625 33.6875 
Q 37.40625 39.546875 35.25 42.46875 
Q 33.109375 45.40625 28.21875 45.40625 
Q 24.515625 45.40625 21.359375 43.453125 
Q 18.21875 41.5 16.796875 37.734375 
Q 15.375 33.984375 15.375 26.90625 
L 15.375 0 
z
" id="ArialMT-109"/>
      <path d="M 42.09375 16.703125 
L 51.171875 15.578125 
Q 49.03125 7.625 43.21875 3.21875 
Q 37.40625 -1.171875 28.375 -1.171875 
Q 17 -1.171875 10.328125 5.828125 
Q 3.65625 12.84375 3.65625 25.484375 
Q 3.65625 38.578125 10.390625 45.796875 
Q 17.140625 53.03125 27.875 53.03125 
Q 38.28125 53.03125 44.875 45.953125 
Q 51.46875 38.875 51.46875 26.03125 
Q 51.46875 25.25 51.421875 23.6875 
L 12.75 23.6875 
Q 13.234375 15.140625 17.578125 10.59375 
Q 21.921875 6.0625 28.421875 6.0625 
Q 33.25 6.0625 36.671875 8.59375 
Q 40.09375 11.140625 42.09375 16.703125 
z
M 13.234375 30.90625 
L 42.1875 30.90625 
Q 41.609375 37.453125 38.875 40.71875 
Q 34.671875 45.796875 27.984375 45.796875 
Q 21.921875 45.796875 17.796875 41.75 
Q 13.671875 37.703125 13.234375 30.90625 
z
" id="ArialMT-101"/>
      <path d="M 23.390625 -21.046875 
Q 16.109375 -11.859375 11.078125 0.4375 
Q 6.0625 12.75 6.0625 25.921875 
Q 6.0625 37.546875 9.8125 48.1875 
Q 14.203125 60.546875 23.390625 72.796875 
L 29.6875 72.796875 
Q 23.78125 62.640625 21.875 58.296875 
Q 18.890625 51.5625 17.1875 44.234375 
Q 15.09375 35.109375 15.09375 25.875 
Q 15.09375 2.390625 29.6875 -21.046875 
z
" id="ArialMT-40"/>
      <path d="M 3.078125 15.484375 
L 11.765625 16.84375 
Q 12.5 11.625 15.84375 8.84375 
Q 19.1875 6.0625 25.203125 6.0625 
Q 31.25 6.0625 34.171875 8.515625 
Q 37.109375 10.984375 37.109375 14.3125 
Q 37.109375 17.28125 34.515625 19 
Q 32.71875 20.171875 25.53125 21.96875 
Q 15.875 24.421875 12.140625 26.203125 
Q 8.40625 27.984375 6.46875 31.125 
Q 4.546875 34.28125 4.546875 38.09375 
Q 4.546875 41.546875 6.125 44.5 
Q 7.71875 47.46875 10.453125 49.421875 
Q 12.5 50.921875 16.03125 51.96875 
Q 19.578125 53.03125 23.640625 53.03125 
Q 29.734375 53.03125 34.34375 51.265625 
Q 38.96875 49.515625 41.15625 46.5 
Q 43.359375 43.5 44.1875 38.484375 
L 35.59375 37.3125 
Q 35.015625 41.3125 32.203125 43.546875 
Q 29.390625 45.796875 24.265625 45.796875 
Q 18.21875 45.796875 15.625 43.796875 
Q 13.03125 41.796875 13.03125 39.109375 
Q 13.03125 37.40625 14.109375 36.03125 
Q 15.1875 34.625 17.484375 33.6875 
Q 18.796875 33.203125 25.25 31.453125 
Q 34.578125 28.953125 38.25 27.359375 
Q 41.9375 25.78125 44.03125 22.75 
Q 46.140625 19.734375 46.140625 15.234375 
Q 46.140625 10.84375 43.578125 6.953125 
Q 41.015625 3.078125 36.171875 0.953125 
Q 31.34375 -1.171875 25.25 -1.171875 
Q 15.140625 -1.171875 9.84375 3.03125 
Q 4.546875 7.234375 3.078125 15.484375 
z
" id="ArialMT-115"/>
      <path d="M 40.4375 19 
L 49.078125 17.875 
Q 47.65625 8.9375 41.8125 3.875 
Q 35.984375 -1.171875 27.484375 -1.171875 
Q 16.84375 -1.171875 10.375 5.78125 
Q 3.90625 12.75 3.90625 25.734375 
Q 3.90625 34.125 6.6875 40.421875 
Q 9.46875 46.734375 15.15625 49.875 
Q 20.84375 53.03125 27.546875 53.03125 
Q 35.984375 53.03125 41.359375 48.75 
Q 46.734375 44.484375 48.25 36.625 
L 39.703125 35.296875 
Q 38.484375 40.53125 35.375 43.15625 
Q 32.28125 45.796875 27.875 45.796875 
Q 21.234375 45.796875 17.078125 41.03125 
Q 12.9375 36.28125 12.9375 25.984375 
Q 12.9375 15.53125 16.9375 10.796875 
Q 20.953125 6.0625 27.390625 6.0625 
Q 32.5625 6.0625 36.03125 9.234375 
Q 39.5 12.40625 40.4375 19 
z
" id="ArialMT-99"/>
      <path d="M 12.359375 -21.046875 
L 6.0625 -21.046875 
Q 20.65625 2.390625 20.65625 25.875 
Q 20.65625 35.0625 18.5625 44.09375 
Q 16.890625 51.421875 13.921875 58.15625 
Q 12.015625 62.546875 6.0625 72.796875 
L 12.359375 72.796875 
Q 21.53125 60.546875 25.921875 48.1875 
Q 29.6875 37.546875 29.6875 25.921875 
Q 29.6875 12.75 24.625 0.4375 
Q 19.578125 -11.859375 12.359375 -21.046875 
z
" id="ArialMT-41"/>
     </defs>
     <g style="fill:#262626;" transform="translate(298.495 439.74375)scale(0.32 -0.32)">
      <use xlink:href="#ArialMT-84"/>
      <use x="57.333984" xlink:href="#ArialMT-105"/>
      <use x="79.550781" xlink:href="#ArialMT-109"/>
      <use x="162.851562" xlink:href="#ArialMT-101"/>
      <use x="218.466797" xlink:href="#ArialMT-40"/>
      <use x="251.767578" xlink:href="#ArialMT-115"/>
      <use x="301.767578" xlink:href="#ArialMT-101"/>
      <use x="357.382812" xlink:href="#ArialMT-99"/>
      <use x="407.382812" xlink:href="#ArialMT-41"/>
     </g>
    </g>
   </g>
   <g id="matplotlib.axis_2">
    <g id="ytick_1">
     <g id="text_7">
      <!-- 0.0 -->
      <defs>
       <path d="M 9.078125 0 
L 9.078125 10.015625 
L 19.09375 10.015625 
L 19.09375 0 
z
" id="ArialMT-46"/>
      </defs>
      <g style="fill:#262626;" transform="translate(44.14 371.76392)scale(0.24 -0.24)">
       <use xlink:href="#ArialMT-48"/>
       <use x="55.615234" xlink:href="#ArialMT-46"/>
       <use x="83.398438" xlink:href="#ArialMT-48"/>
      </g>
     </g>
    </g>
    <g id="ytick_2">
     <g id="text_8">
      <!-- 0.2 -->
      <g style="fill:#262626;" transform="translate(44.14 317.852287)scale(0.24 -0.24)">
       <use xlink:href="#ArialMT-48"/>
       <use x="55.615234" xlink:href="#ArialMT-46"/>
       <use x="83.398438" xlink:href="#ArialMT-50"/>
      </g>
     </g>
    </g>
    <g id="ytick_3">
     <g id="text_9">
      <!-- 0.4 -->
      <g style="fill:#262626;" transform="translate(44.14 263.940653)scale(0.24 -0.24)">
       <use xlink:href="#ArialMT-48"/>
       <use x="55.615234" xlink:href="#ArialMT-46"/>
       <use x="83.398438" xlink:href="#ArialMT-52"/>
      </g>
     </g>
    </g>
    <g id="ytick_4">
     <g id="text_10">
      <!-- 0.6 -->
      <g style="fill:#262626;" transform="translate(44.14 210.02902)scale(0.24 -0.24)">
       <use xlink:href="#ArialMT-48"/>
       <use x="55.615234" xlink:href="#ArialMT-46"/>
       <use x="83.398438" xlink:href="#ArialMT-54"/>
      </g>
     </g>
    </g>
    <g id="ytick_5">
     <g id="text_11">
      <!-- 0.8 -->
      <g style="fill:#262626;" transform="translate(44.14 156.117386)scale(0.24 -0.24)">
       <use xlink:href="#ArialMT-48"/>
       <use x="55.615234" xlink:href="#ArialMT-46"/>
       <use x="83.398438" xlink:href="#ArialMT-56"/>
      </g>
     </g>
    </g>
    <g id="ytick_6">
     <g id="text_12">
      <!-- 1.0 -->
      <defs>
       <path d="M 37.25 0 
L 28.46875 0 
L 28.46875 56 
Q 25.296875 52.984375 20.140625 49.953125 
Q 14.984375 46.921875 10.890625 45.40625 
L 10.890625 53.90625 
Q 18.265625 57.375 23.78125 62.296875 
Q 29.296875 67.234375 31.59375 71.875 
L 37.25 71.875 
z
" id="ArialMT-49"/>
      </defs>
      <g style="fill:#262626;" transform="translate(44.14 102.205753)scale(0.24 -0.24)">
       <use xlink:href="#ArialMT-49"/>
       <use x="55.615234" xlink:href="#ArialMT-46"/>
       <use x="83.398438" xlink:href="#ArialMT-48"/>
      </g>
     </g>
    </g>
    <g id="text_13">
     <!-- Cocontraction -->
     <defs>
      <path d="M 58.796875 25.09375 
L 68.265625 22.703125 
Q 65.28125 11.03125 57.546875 4.90625 
Q 49.8125 -1.21875 38.625 -1.21875 
Q 27.046875 -1.21875 19.796875 3.484375 
Q 12.546875 8.203125 8.765625 17.140625 
Q 4.984375 26.078125 4.984375 36.328125 
Q 4.984375 47.515625 9.25 55.828125 
Q 13.53125 64.15625 21.40625 68.46875 
Q 29.296875 72.796875 38.765625 72.796875 
Q 49.515625 72.796875 56.828125 67.328125 
Q 64.15625 61.859375 67.046875 51.953125 
L 57.71875 49.75 
Q 55.21875 57.5625 50.484375 61.125 
Q 45.75 64.703125 38.578125 64.703125 
Q 30.328125 64.703125 24.78125 60.734375 
Q 19.234375 56.78125 16.984375 50.109375 
Q 14.75 43.453125 14.75 36.375 
Q 14.75 27.25 17.40625 20.4375 
Q 20.0625 13.625 25.671875 10.25 
Q 31.296875 6.890625 37.84375 6.890625 
Q 45.796875 6.890625 51.3125 11.46875 
Q 56.84375 16.0625 58.796875 25.09375 
z
" id="ArialMT-67"/>
      <path d="M 3.328125 25.921875 
Q 3.328125 40.328125 11.328125 47.265625 
Q 18.015625 53.03125 27.640625 53.03125 
Q 38.328125 53.03125 45.109375 46.015625 
Q 51.90625 39.015625 51.90625 26.65625 
Q 51.90625 16.65625 48.90625 10.90625 
Q 45.90625 5.171875 40.15625 2 
Q 34.421875 -1.171875 27.640625 -1.171875 
Q 16.75 -1.171875 10.03125 5.8125 
Q 3.328125 12.796875 3.328125 25.921875 
z
M 12.359375 25.921875 
Q 12.359375 15.96875 16.703125 11.015625 
Q 21.046875 6.0625 27.640625 6.0625 
Q 34.1875 6.0625 38.53125 11.03125 
Q 42.875 16.015625 42.875 26.21875 
Q 42.875 35.84375 38.5 40.796875 
Q 34.125 45.75 27.640625 45.75 
Q 21.046875 45.75 16.703125 40.8125 
Q 12.359375 35.890625 12.359375 25.921875 
z
" id="ArialMT-111"/>
      <path d="M 6.59375 0 
L 6.59375 51.859375 
L 14.5 51.859375 
L 14.5 44.484375 
Q 20.21875 53.03125 31 53.03125 
Q 35.6875 53.03125 39.625 51.34375 
Q 43.5625 49.65625 45.515625 46.921875 
Q 47.46875 44.1875 48.25 40.4375 
Q 48.734375 37.984375 48.734375 31.890625 
L 48.734375 0 
L 39.9375 0 
L 39.9375 31.546875 
Q 39.9375 36.921875 38.90625 39.578125 
Q 37.890625 42.234375 35.28125 43.8125 
Q 32.671875 45.40625 29.15625 45.40625 
Q 23.53125 45.40625 19.453125 41.84375 
Q 15.375 38.28125 15.375 28.328125 
L 15.375 0 
z
" id="ArialMT-110"/>
      <path d="M 25.78125 7.859375 
L 27.046875 0.09375 
Q 23.34375 -0.6875 20.40625 -0.6875 
Q 15.625 -0.6875 12.984375 0.828125 
Q 10.359375 2.34375 9.28125 4.8125 
Q 8.203125 7.28125 8.203125 15.1875 
L 8.203125 45.015625 
L 1.765625 45.015625 
L 1.765625 51.859375 
L 8.203125 51.859375 
L 8.203125 64.703125 
L 16.9375 69.96875 
L 16.9375 51.859375 
L 25.78125 51.859375 
L 25.78125 45.015625 
L 16.9375 45.015625 
L 16.9375 14.703125 
Q 16.9375 10.9375 17.40625 9.859375 
Q 17.875 8.796875 18.921875 8.15625 
Q 19.96875 7.515625 21.921875 7.515625 
Q 23.390625 7.515625 25.78125 7.859375 
z
" id="ArialMT-116"/>
      <path d="M 6.5 0 
L 6.5 51.859375 
L 14.40625 51.859375 
L 14.40625 44 
Q 17.4375 49.515625 20 51.265625 
Q 22.5625 53.03125 25.640625 53.03125 
Q 30.078125 53.03125 34.671875 50.203125 
L 31.640625 42.046875 
Q 28.421875 43.953125 25.203125 43.953125 
Q 22.3125 43.953125 20.015625 42.21875 
Q 17.71875 40.484375 16.75 37.40625 
Q 15.28125 32.71875 15.28125 27.15625 
L 15.28125 0 
z
" id="ArialMT-114"/>
      <path d="M 40.4375 6.390625 
Q 35.546875 2.25 31.03125 0.53125 
Q 26.515625 -1.171875 21.34375 -1.171875 
Q 12.796875 -1.171875 8.203125 3 
Q 3.609375 7.171875 3.609375 13.671875 
Q 3.609375 17.484375 5.34375 20.625 
Q 7.078125 23.78125 9.890625 25.6875 
Q 12.703125 27.59375 16.21875 28.5625 
Q 18.796875 29.25 24.03125 29.890625 
Q 34.671875 31.15625 39.703125 32.90625 
Q 39.75 34.71875 39.75 35.203125 
Q 39.75 40.578125 37.25 42.78125 
Q 33.890625 45.75 27.25 45.75 
Q 21.046875 45.75 18.09375 43.578125 
Q 15.140625 41.40625 13.71875 35.890625 
L 5.125 37.0625 
Q 6.296875 42.578125 8.984375 45.96875 
Q 11.671875 49.359375 16.75 51.1875 
Q 21.828125 53.03125 28.515625 53.03125 
Q 35.15625 53.03125 39.296875 51.46875 
Q 43.453125 49.90625 45.40625 47.53125 
Q 47.359375 45.171875 48.140625 41.546875 
Q 48.578125 39.3125 48.578125 33.453125 
L 48.578125 21.734375 
Q 48.578125 9.46875 49.140625 6.21875 
Q 49.703125 2.984375 51.375 0 
L 42.1875 0 
Q 40.828125 2.734375 40.4375 6.390625 
z
M 39.703125 26.03125 
Q 34.90625 24.078125 25.34375 22.703125 
Q 19.921875 21.921875 17.671875 20.9375 
Q 15.4375 19.96875 14.203125 18.09375 
Q 12.984375 16.21875 12.984375 13.921875 
Q 12.984375 10.40625 15.640625 8.0625 
Q 18.3125 5.71875 23.4375 5.71875 
Q 28.515625 5.71875 32.46875 7.9375 
Q 36.421875 10.15625 38.28125 14.015625 
Q 39.703125 17 39.703125 22.796875 
z
" id="ArialMT-97"/>
     </defs>
     <g style="fill:#262626;" transform="translate(33.78 313.6325)rotate(-90)scale(0.32 -0.32)">
      <use xlink:href="#ArialMT-67"/>
      <use x="72.216797" xlink:href="#ArialMT-111"/>
      <use x="127.832031" xlink:href="#ArialMT-99"/>
      <use x="177.832031" xlink:href="#ArialMT-111"/>
      <use x="233.447266" xlink:href="#ArialMT-110"/>
      <use x="289.0625" xlink:href="#ArialMT-116"/>
      <use x="316.845703" xlink:href="#ArialMT-114"/>
      <use x="350.146484" xlink:href="#ArialMT-97"/>
      <use x="405.761719" xlink:href="#ArialMT-99"/>
      <use x="455.761719" xlink:href="#ArialMT-116"/>
      <use x="483.544922" xlink:href="#ArialMT-105"/>
      <use x="505.761719" xlink:href="#ArialMT-111"/>
      <use x="561.376953" xlink:href="#ArialMT-110"/>
     </g>
    </g>
   </g>
   <g id="PolyCollection_1">
    <defs>
     <path d="M 115.363636 -69.249762 
L 115.363636 -68.825455 
L 118.554031 -68.825455 
L 121.744425 -68.825455 
L 124.93482 -68.825455 
L 128.125214 -68.825455 
L 131.315609 -68.825455 
L 134.506003 -68.825455 
L 137.696398 -69.110347 
L 140.886792 -71.705259 
L 144.077187 -76.108579 
L 147.267581 -84.24973 
L 150.457976 -93.610444 
L 153.64837 -105.886557 
L 156.838765 -120.037717 
L 160.02916 -135.583627 
L 163.219554 -157.457742 
L 166.409949 -181.48779 
L 169.600343 -201.255247 
L 172.790738 -220.780326 
L 175.981132 -244.019017 
L 179.171527 -262.14009 
L 182.361921 -281.110875 
L 185.552316 -294.465292 
L 188.74271 -302.500231 
L 191.933105 -310.399382 
L 195.123499 -313.615434 
L 198.313894 -314.182331 
L 201.504288 -309.081527 
L 204.694683 -300.02181 
L 207.885077 -286.707851 
L 211.075472 -265.978928 
L 214.265866 -242.60866 
L 217.456261 -221.898577 
L 220.646655 -204.812441 
L 223.83705 -184.132217 
L 227.027444 -168.41016 
L 230.217839 -150.989303 
L 233.408233 -135.495833 
L 236.598628 -126.913846 
L 239.789022 -118.57115 
L 242.979417 -109.825035 
L 246.169811 -102.311995 
L 249.360206 -97.972496 
L 252.5506 -93.168787 
L 255.740995 -88.520364 
L 258.931389 -85.3464 
L 262.121784 -83.059158 
L 265.312178 -81.766681 
L 268.502573 -80.43969 
L 271.692967 -78.28556 
L 274.883362 -75.983444 
L 278.073756 -74.649485 
L 281.264151 -73.379908 
L 284.454545 -72.876105 
L 287.64494 -72.420712 
L 290.835334 -72.542383 
L 294.025729 -72.55252 
L 297.216123 -72.663343 
L 300.406518 -72.46821 
L 303.596913 -71.75025 
L 306.787307 -71.627779 
L 309.977702 -71.237009 
L 313.168096 -71.07435 
L 316.358491 -70.831099 
L 319.548885 -70.76892 
L 322.73928 -70.324726 
L 325.929674 -70.320244 
L 329.120069 -70.159901 
L 332.310463 -69.977969 
L 335.500858 -69.372459 
L 338.691252 -69.099986 
L 341.881647 -68.998829 
L 345.072041 -69.210379 
L 348.262436 -69.64583 
L 351.45283 -71.002501 
L 354.643225 -72.633801 
L 357.833619 -74.455669 
L 361.024014 -77.707297 
L 364.214408 -81.33252 
L 367.404803 -84.876269 
L 370.595197 -90.04098 
L 373.785592 -96.165971 
L 376.975986 -102.245424 
L 380.166381 -109.866628 
L 383.356775 -122.061095 
L 386.54717 -135.443384 
L 389.737564 -148.569435 
L 392.927959 -162.74605 
L 396.118353 -176.007518 
L 399.308748 -194.253658 
L 402.499142 -206.983352 
L 405.689537 -223.652093 
L 408.879931 -240.539074 
L 412.070326 -254.100808 
L 415.26072 -267.797063 
L 418.451115 -280.908169 
L 421.641509 -290.907152 
L 424.831904 -300.312929 
L 428.022298 -303.875163 
L 431.212693 -307.840835 
L 434.403087 -301.64137 
L 437.593482 -298.845664 
L 440.783877 -291.697374 
L 443.974271 -276.641724 
L 447.164666 -270.237504 
L 450.35506 -260.449236 
L 453.545455 -244.161204 
L 456.735849 -230.486045 
L 459.926244 -219.282631 
L 463.116638 -204.520846 
L 466.307033 -194.722815 
L 469.497427 -180.479684 
L 472.687822 -167.385999 
L 475.878216 -152.383873 
L 479.068611 -140.459215 
L 482.259005 -130.139464 
L 485.4494 -122.030414 
L 488.639794 -115.667251 
L 491.830189 -110.276269 
L 495.020583 -106.420612 
L 498.210978 -101.751155 
L 501.401372 -98.659086 
L 504.591767 -95.00524 
L 507.782161 -93.178975 
L 510.972556 -89.193976 
L 514.16295 -87.73281 
L 517.353345 -83.843889 
L 520.543739 -82.595692 
L 523.734134 -81.221939 
L 526.924528 -80.527674 
L 530.114923 -79.723618 
L 533.305317 -78.122737 
L 536.495712 -76.964974 
L 539.686106 -75.318639 
L 542.876501 -73.945333 
L 546.066895 -73.686597 
L 549.25729 -72.47242 
L 552.447684 -72.256294 
L 555.638079 -71.465607 
L 558.828473 -71.075041 
L 562.018868 -70.414899 
L 565.209262 -70.239008 
L 568.399657 -69.830607 
L 571.590051 -69.183456 
L 574.780446 -68.975398 
L 577.97084 -68.829741 
L 581.161235 -68.83391 
L 584.35163 -68.825455 
L 587.542024 -68.853222 
L 590.732419 -68.976447 
L 593.922813 -69.198754 
L 597.113208 -69.966118 
L 600.303602 -70.412371 
L 603.493997 -70.722978 
L 606.684391 -71.725129 
L 609.874786 -72.78655 
L 613.06518 -74.510733 
L 616.255575 -77.250211 
L 619.445969 -80.290662 
L 622.636364 -84.537727 
L 622.636364 -110.041609 
L 622.636364 -110.041609 
L 619.445969 -101.626551 
L 616.255575 -94.530185 
L 613.06518 -89.241379 
L 609.874786 -86.26881 
L 606.684391 -82.623466 
L 603.493997 -81.489209 
L 600.303602 -79.282423 
L 597.113208 -76.840716 
L 593.922813 -73.579689 
L 590.732419 -71.589208 
L 587.542024 -70.297509 
L 584.35163 -69.927851 
L 581.161235 -69.88582 
L 577.97084 -70.182601 
L 574.780446 -71.667872 
L 571.590051 -72.632365 
L 568.399657 -73.919226 
L 565.209262 -75.098341 
L 562.018868 -76.089953 
L 558.828473 -77.110137 
L 555.638079 -77.796157 
L 552.447684 -78.749067 
L 549.25729 -79.647621 
L 546.066895 -81.748037 
L 542.876501 -83.766823 
L 539.686106 -86.029132 
L 536.495712 -87.614235 
L 533.305317 -89.134726 
L 530.114923 -92.187751 
L 526.924528 -95.0054 
L 523.734134 -96.929504 
L 520.543739 -99.577672 
L 517.353345 -102.958843 
L 514.16295 -108.104762 
L 510.972556 -112.973069 
L 507.782161 -116.451993 
L 504.591767 -123.184884 
L 501.401372 -128.834178 
L 498.210978 -135.291722 
L 495.020583 -142.145072 
L 491.830189 -150.775122 
L 488.639794 -159.742295 
L 485.4494 -167.916407 
L 482.259005 -177.290575 
L 479.068611 -190.224158 
L 475.878216 -207.026746 
L 472.687822 -219.380537 
L 469.497427 -238.218987 
L 466.307033 -253.053533 
L 463.116638 -267.604717 
L 459.926244 -284.953495 
L 456.735849 -296.340784 
L 453.545455 -309.67708 
L 450.35506 -325.612794 
L 447.164666 -334.069241 
L 443.974271 -341.543362 
L 440.783877 -350.021323 
L 437.593482 -355.674381 
L 434.403087 -358.037824 
L 431.212693 -359.140866 
L 428.022298 -354.830367 
L 424.831904 -347.287917 
L 421.641509 -337.06309 
L 418.451115 -326.36144 
L 415.26072 -315.474968 
L 412.070326 -306.032324 
L 408.879931 -295.579659 
L 405.689537 -281.964971 
L 402.499142 -267.654702 
L 399.308748 -256.31312 
L 396.118353 -245.519849 
L 392.927959 -229.293135 
L 389.737564 -211.457979 
L 386.54717 -196.52133 
L 383.356775 -180.271899 
L 380.166381 -166.009111 
L 376.975986 -152.179984 
L 373.785592 -141.617864 
L 370.595197 -127.066393 
L 367.404803 -118.153011 
L 364.214408 -109.026343 
L 361.024014 -101.266926 
L 357.833619 -94.326221 
L 354.643225 -88.569652 
L 351.45283 -85.06305 
L 348.262436 -80.563401 
L 345.072041 -76.858569 
L 341.881647 -76.925538 
L 338.691252 -74.725734 
L 335.500858 -74.232444 
L 332.310463 -73.504774 
L 329.120069 -73.59592 
L 325.929674 -73.721633 
L 322.73928 -74.282371 
L 319.548885 -75.159894 
L 316.358491 -75.764213 
L 313.168096 -76.320672 
L 309.977702 -76.894931 
L 306.787307 -77.75089 
L 303.596913 -78.852407 
L 300.406518 -79.41103 
L 297.216123 -81.257316 
L 294.025729 -81.757648 
L 290.835334 -82.504775 
L 287.64494 -83.817587 
L 284.454545 -83.381986 
L 281.264151 -85.628746 
L 278.073756 -88.461747 
L 274.883362 -90.812151 
L 271.692967 -94.656681 
L 268.502573 -96.989624 
L 265.312178 -99.669578 
L 262.121784 -102.408793 
L 258.931389 -105.507308 
L 255.740995 -110.349205 
L 252.5506 -115.966079 
L 249.360206 -121.861841 
L 246.169811 -131.476891 
L 242.979417 -140.418257 
L 239.789022 -152.080253 
L 236.598628 -162.612134 
L 233.408233 -179.01107 
L 230.217839 -194.718379 
L 227.027444 -214.29159 
L 223.83705 -228.139202 
L 220.646655 -254.965729 
L 217.456261 -271.179966 
L 214.265866 -288.941671 
L 211.075472 -308.280153 
L 207.885077 -322.79224 
L 204.694683 -335.244657 
L 201.504288 -343.388564 
L 198.313894 -350.728639 
L 195.123499 -354.119357 
L 191.933105 -355.526101 
L 188.74271 -350.507525 
L 185.552316 -343.117865 
L 182.361921 -333.210061 
L 179.171527 -316.671462 
L 175.981132 -297.787513 
L 172.790738 -272.376717 
L 169.600343 -246.915252 
L 166.409949 -220.306614 
L 163.219554 -195.695616 
L 160.02916 -170.550195 
L 156.838765 -150.022459 
L 153.64837 -129.312676 
L 150.457976 -111.212398 
L 147.267581 -97.721434 
L 144.077187 -87.005177 
L 140.886792 -79.725675 
L 137.696398 -74.528866 
L 134.506003 -70.990537 
L 131.315609 -70.616869 
L 128.125214 -70.072901 
L 124.93482 -69.677761 
L 121.744425 -69.32561 
L 118.554031 -69.052099 
L 115.363636 -69.249762 
z
" id="m525d5d8ff4" style="stroke:#808080;stroke-opacity:0.2;stroke-width:1.5;"/>
    </defs>
    <g clip-path="url(#p8501e2f27d)">
     <use style="fill:#808080;fill-opacity:0.2;stroke:#808080;stroke-opacity:0.2;stroke-width:1.5;" x="0" xlink:href="#m525d5d8ff4" y="432"/>
    </g>
   </g>
   <g id="PolyCollection_2">
    <defs>
     <path d="M 115.363636 -98.464473 
L 115.363636 -68.825455 
L 118.554031 -68.825455 
L 121.744425 -68.825455 
L 124.93482 -68.825455 
L 128.125214 -68.825455 
L 131.315609 -68.825455 
L 134.506003 -68.825455 
L 137.696398 -68.825455 
L 140.886792 -68.825455 
L 144.077187 -68.825455 
L 147.267581 -68.825455 
L 150.457976 -68.870336 
L 153.64837 -68.862644 
L 156.838765 -69.114023 
L 160.02916 -69.54818 
L 163.219554 -70.281375 
L 166.409949 -71.208149 
L 169.600343 -72.47528 
L 172.790738 -73.650412 
L 175.981132 -75.342997 
L 179.171527 -76.33065 
L 182.361921 -77.907059 
L 185.552316 -78.839561 
L 188.74271 -79.785528 
L 191.933105 -80.600216 
L 195.123499 -81.01855 
L 198.313894 -81.623253 
L 201.504288 -81.854075 
L 204.694683 -81.700581 
L 207.885077 -81.578752 
L 211.075472 -81.65099 
L 214.265866 -81.779545 
L 217.456261 -81.948562 
L 220.646655 -82.466219 
L 223.83705 -83.373691 
L 227.027444 -85.307764 
L 230.217839 -87.193081 
L 233.408233 -88.623672 
L 236.598628 -93.87344 
L 239.789022 -98.773623 
L 242.979417 -105.853931 
L 246.169811 -110.819044 
L 249.360206 -117.047975 
L 252.5506 -124.6484 
L 255.740995 -130.225889 
L 258.931389 -139.068256 
L 262.121784 -144.988995 
L 265.312178 -156.08615 
L 268.502573 -164.464189 
L 271.692967 -171.997661 
L 274.883362 -179.903277 
L 278.073756 -191.352766 
L 281.264151 -199.802502 
L 284.454545 -215.184792 
L 287.64494 -227.703475 
L 290.835334 -242.802137 
L 294.025729 -255.103002 
L 297.216123 -269.436454 
L 300.406518 -281.290055 
L 303.596913 -293.353796 
L 306.787307 -301.159356 
L 309.977702 -308.174707 
L 313.168096 -310.606885 
L 316.358491 -313.108823 
L 319.548885 -308.253245 
L 322.73928 -302.424328 
L 325.929674 -292.560845 
L 329.120069 -280.260936 
L 332.310463 -262.468311 
L 335.500858 -245.778988 
L 338.691252 -223.735242 
L 341.881647 -205.320202 
L 345.072041 -188.599601 
L 348.262436 -172.649029 
L 351.45283 -155.786379 
L 354.643225 -140.885916 
L 357.833619 -129.033111 
L 361.024014 -120.815021 
L 364.214408 -110.773973 
L 367.404803 -102.781633 
L 370.595197 -95.470376 
L 373.785592 -90.0631 
L 376.975986 -84.818851 
L 380.166381 -82.065493 
L 383.356775 -79.370614 
L 386.54717 -77.778691 
L 389.737564 -76.217189 
L 392.927959 -75.842515 
L 396.118353 -75.713524 
L 399.308748 -76.022017 
L 402.499142 -76.454531 
L 405.689537 -77.223047 
L 408.879931 -77.445636 
L 412.070326 -78.229324 
L 415.26072 -78.696513 
L 418.451115 -79.778166 
L 421.641509 -80.676807 
L 424.831904 -82.046044 
L 428.022298 -83.034922 
L 431.212693 -83.557124 
L 434.403087 -83.712644 
L 437.593482 -84.043112 
L 440.783877 -83.74755 
L 443.974271 -83.113534 
L 447.164666 -82.614612 
L 450.35506 -82.660631 
L 453.545455 -82.297693 
L 456.735849 -83.693081 
L 459.926244 -83.049472 
L 463.116638 -83.357496 
L 466.307033 -83.972529 
L 469.497427 -86.103034 
L 472.687822 -88.552293 
L 475.878216 -90.929267 
L 479.068611 -93.816141 
L 482.259005 -97.984188 
L 485.4494 -102.090839 
L 488.639794 -108.666726 
L 491.830189 -115.524872 
L 495.020583 -122.107548 
L 498.210978 -127.017454 
L 501.401372 -135.493661 
L 504.591767 -142.991146 
L 507.782161 -152.647963 
L 510.972556 -163.355811 
L 514.16295 -171.972485 
L 517.353345 -180.361891 
L 520.543739 -189.317118 
L 523.734134 -200.827758 
L 526.924528 -213.586854 
L 530.114923 -223.042661 
L 533.305317 -237.330505 
L 536.495712 -247.303538 
L 539.686106 -261.483254 
L 542.876501 -271.14481 
L 546.066895 -281.788694 
L 549.25729 -292.094631 
L 552.447684 -300.71876 
L 555.638079 -307.32273 
L 558.828473 -310.744356 
L 562.018868 -307.657193 
L 565.209262 -307.391227 
L 568.399657 -302.921081 
L 571.590051 -297.132813 
L 574.780446 -283.10768 
L 577.97084 -272.474517 
L 581.161235 -256.790576 
L 584.35163 -242.419738 
L 587.542024 -229.789758 
L 590.732419 -216.281722 
L 593.922813 -203.694829 
L 597.113208 -185.297288 
L 600.303602 -170.982134 
L 603.493997 -156.852485 
L 606.684391 -146.535778 
L 609.874786 -137.147975 
L 613.06518 -126.188708 
L 616.255575 -117.769718 
L 619.445969 -109.29245 
L 622.636364 -103.996167 
L 622.636364 -141.691714 
L 622.636364 -141.691714 
L 619.445969 -148.369752 
L 616.255575 -158.784335 
L 613.06518 -171.093812 
L 609.874786 -182.920338 
L 606.684391 -195.470716 
L 603.493997 -207.585158 
L 600.303602 -224.442706 
L 597.113208 -240.289543 
L 593.922813 -257.855256 
L 590.732419 -274.119989 
L 587.542024 -286.111114 
L 584.35163 -305.34986 
L 581.161235 -315.613428 
L 577.97084 -329.037938 
L 574.780446 -337.038659 
L 571.590051 -349.139051 
L 568.399657 -353.099754 
L 565.209262 -361.944196 
L 562.018868 -363.387733 
L 558.828473 -365.334545 
L 555.638079 -362.088389 
L 552.447684 -360.117313 
L 549.25729 -353.083468 
L 546.066895 -345.808385 
L 542.876501 -334.59084 
L 539.686106 -321.873386 
L 536.495712 -310.725057 
L 533.305317 -296.623419 
L 530.114923 -283.844853 
L 526.924528 -266.701131 
L 523.734134 -249.492602 
L 520.543739 -235.301086 
L 517.353345 -225.311313 
L 514.16295 -211.029909 
L 510.972556 -198.993327 
L 507.782161 -191.651781 
L 504.591767 -180.674828 
L 501.401372 -174.674526 
L 498.210978 -166.014723 
L 495.020583 -160.586662 
L 491.830189 -155.183634 
L 488.639794 -147.55024 
L 485.4494 -141.622086 
L 482.259005 -139.738776 
L 479.068611 -135.07749 
L 475.878216 -133.528717 
L 472.687822 -135.87346 
L 469.497427 -135.156572 
L 466.307033 -134.512545 
L 463.116638 -134.083961 
L 459.926244 -134.580403 
L 456.735849 -135.741779 
L 453.545455 -134.299699 
L 450.35506 -133.370945 
L 447.164666 -134.868436 
L 443.974271 -133.92763 
L 440.783877 -133.313159 
L 437.593482 -131.995785 
L 434.403087 -130.374123 
L 431.212693 -126.621247 
L 428.022298 -122.263918 
L 424.831904 -114.349249 
L 421.641509 -108.024374 
L 418.451115 -103.403428 
L 415.26072 -98.689226 
L 412.070326 -95.467959 
L 408.879931 -91.238611 
L 405.689537 -88.884991 
L 402.499142 -88.205001 
L 399.308748 -86.291127 
L 396.118353 -86.723793 
L 392.927959 -89.724178 
L 389.737564 -92.98196 
L 386.54717 -96.432363 
L 383.356775 -99.986054 
L 380.166381 -105.743575 
L 376.975986 -110.877304 
L 373.785592 -117.777128 
L 370.595197 -128.295783 
L 367.404803 -142.775437 
L 364.214408 -151.649857 
L 361.024014 -167.58036 
L 357.833619 -178.350673 
L 354.643225 -197.774052 
L 351.45283 -216.399192 
L 348.262436 -233.719911 
L 345.072041 -251.485411 
L 341.881647 -271.09134 
L 338.691252 -286.611818 
L 335.500858 -305.973872 
L 332.310463 -319.617953 
L 329.120069 -331.76129 
L 325.929674 -340.716513 
L 322.73928 -345.441255 
L 319.548885 -345.214997 
L 316.358491 -346.373406 
L 313.168096 -343.687812 
L 309.977702 -342.724248 
L 306.787307 -339.43223 
L 303.596913 -332.537107 
L 300.406518 -321.971781 
L 297.216123 -314.442294 
L 294.025729 -302.59184 
L 290.835334 -289.044525 
L 287.64494 -272.173892 
L 284.454545 -259.782491 
L 281.264151 -247.04306 
L 278.073756 -235.314422 
L 274.883362 -222.133882 
L 271.692967 -211.477718 
L 268.502573 -201.964527 
L 265.312178 -193.448897 
L 262.121784 -180.301342 
L 258.931389 -171.918592 
L 255.740995 -163.667288 
L 252.5506 -153.953198 
L 249.360206 -144.182686 
L 246.169811 -137.867352 
L 242.979417 -129.853044 
L 239.789022 -122.25958 
L 236.598628 -116.569741 
L 233.408233 -108.854847 
L 230.217839 -104.144247 
L 227.027444 -99.635969 
L 223.83705 -96.511727 
L 220.646655 -92.901037 
L 217.456261 -91.629974 
L 214.265866 -89.702122 
L 211.075472 -88.654287 
L 207.885077 -87.70919 
L 204.694683 -87.556196 
L 201.504288 -87.637803 
L 198.313894 -87.40057 
L 195.123499 -86.138382 
L 191.933105 -85.622813 
L 188.74271 -84.986272 
L 185.552316 -84.326419 
L 182.361921 -83.159436 
L 179.171527 -80.052965 
L 175.981132 -78.847646 
L 172.790738 -76.71007 
L 169.600343 -75.446809 
L 166.409949 -74.142593 
L 163.219554 -72.401773 
L 160.02916 -71.157716 
L 156.838765 -70.180762 
L 153.64837 -69.664201 
L 150.457976 -70.506824 
L 147.267581 -73.124591 
L 144.077187 -74.930881 
L 140.886792 -80.741703 
L 137.696398 -88.078296 
L 134.506003 -91.554661 
L 131.315609 -95.090842 
L 128.125214 -97.067092 
L 124.93482 -97.608001 
L 121.744425 -98.42316 
L 118.554031 -98.412272 
L 115.363636 -98.464473 
z
" id="m6c091d5ac3" style="stroke:#808080;stroke-opacity:0.2;stroke-width:1.5;"/>
    </defs>
    <g clip-path="url(#p8501e2f27d)">
     <use style="fill:#808080;fill-opacity:0.2;stroke:#808080;stroke-opacity:0.2;stroke-width:1.5;" x="0" xlink:href="#m6c091d5ac3" y="432"/>
    </g>
   </g>
   <g id="PolyCollection_3">
    <defs>
     <path d="M 115.363636 -68.825455 
L 115.363636 -68.825455 
L 118.554031 -68.825455 
L 121.744425 -68.825455 
L 124.93482 -68.825455 
L 128.125214 -68.825455 
L 131.315609 -68.825455 
L 134.506003 -68.825455 
L 137.696398 -68.825455 
L 140.886792 -68.825455 
L 144.077187 -68.825455 
L 147.267581 -68.825455 
L 150.457976 -68.870905 
L 153.64837 -68.863146 
L 156.838765 -69.096681 
L 160.02916 -69.557674 
L 163.219554 -70.30333 
L 166.409949 -71.2315 
L 169.600343 -72.600818 
L 172.790738 -73.822367 
L 175.981132 -75.530988 
L 179.171527 -76.757252 
L 182.361921 -78.16124 
L 185.552316 -79.307713 
L 188.74271 -80.160645 
L 191.933105 -81.15085 
L 195.123499 -81.738403 
L 198.313894 -82.451802 
L 201.504288 -82.539326 
L 204.694683 -82.560687 
L 207.885077 -82.392362 
L 211.075472 -82.615878 
L 214.265866 -82.820605 
L 217.456261 -83.354097 
L 220.646655 -84.351503 
L 223.83705 -86.34724 
L 227.027444 -88.632866 
L 230.217839 -91.471381 
L 233.408233 -92.465996 
L 236.598628 -95.872934 
L 239.789022 -99.106383 
L 242.979417 -100.702285 
L 246.169811 -99.709599 
L 249.360206 -100.599315 
L 252.5506 -96.363499 
L 255.740995 -93.152304 
L 258.931389 -89.684112 
L 262.121784 -85.501201 
L 265.312178 -84.161569 
L 268.502573 -82.294262 
L 271.692967 -80.236281 
L 274.883362 -77.12306 
L 278.073756 -75.897155 
L 281.264151 -74.587347 
L 284.454545 -73.66138 
L 287.64494 -72.810833 
L 290.835334 -72.624313 
L 294.025729 -72.896169 
L 297.216123 -73.115844 
L 300.406518 -72.575126 
L 303.596913 -72.082665 
L 306.787307 -71.582321 
L 309.977702 -71.477669 
L 313.168096 -71.184019 
L 316.358491 -70.939549 
L 319.548885 -70.77292 
L 322.73928 -70.464745 
L 325.929674 -70.279211 
L 329.120069 -70.224072 
L 332.310463 -70.01293 
L 335.500858 -69.454432 
L 338.691252 -69.045077 
L 341.881647 -69.173487 
L 345.072041 -69.146646 
L 348.262436 -69.848168 
L 351.45283 -70.915686 
L 354.643225 -71.316167 
L 357.833619 -72.829096 
L 361.024014 -75.707525 
L 364.214408 -78.61676 
L 367.404803 -80.069754 
L 370.595197 -81.844519 
L 373.785592 -82.533881 
L 376.975986 -81.29556 
L 380.166381 -79.957336 
L 383.356775 -79.831537 
L 386.54717 -79.589442 
L 389.737564 -77.911852 
L 392.927959 -76.310345 
L 396.118353 -76.711429 
L 399.308748 -77.058554 
L 402.499142 -77.471558 
L 405.689537 -77.569054 
L 408.879931 -77.963607 
L 412.070326 -78.322691 
L 415.26072 -79.167355 
L 418.451115 -80.533426 
L 421.641509 -81.386588 
L 424.831904 -82.824741 
L 428.022298 -83.684262 
L 431.212693 -84.619196 
L 434.403087 -84.801972 
L 437.593482 -84.751241 
L 440.783877 -84.336983 
L 443.974271 -83.739003 
L 447.164666 -83.584611 
L 450.35506 -83.343656 
L 453.545455 -83.32935 
L 456.735849 -84.237572 
L 459.926244 -83.868785 
L 463.116638 -83.577566 
L 466.307033 -83.936192 
L 469.497427 -85.649312 
L 472.687822 -87.209035 
L 475.878216 -89.459298 
L 479.068611 -92.114858 
L 482.259005 -96.295519 
L 485.4494 -99.422646 
L 488.639794 -103.950893 
L 491.830189 -108.66294 
L 495.020583 -109.814073 
L 498.210978 -106.767223 
L 501.401372 -105.679361 
L 504.591767 -103.256407 
L 507.782161 -101.115349 
L 510.972556 -98.045399 
L 514.16295 -94.21056 
L 517.353345 -89.259251 
L 520.543739 -86.32891 
L 523.734134 -83.972208 
L 526.924528 -82.691029 
L 530.114923 -81.044929 
L 533.305317 -78.854647 
L 536.495712 -77.890273 
L 539.686106 -76.138523 
L 542.876501 -74.624162 
L 546.066895 -73.643949 
L 549.25729 -72.89876 
L 552.447684 -72.071705 
L 555.638079 -71.53674 
L 558.828473 -71.406745 
L 562.018868 -70.553897 
L 565.209262 -70.201184 
L 568.399657 -69.703532 
L 571.590051 -69.297783 
L 574.780446 -69.12625 
L 577.97084 -68.827598 
L 581.161235 -68.842377 
L 584.35163 -68.825455 
L 587.542024 -68.849971 
L 590.732419 -68.975893 
L 593.922813 -69.145147 
L 597.113208 -70.021481 
L 600.303602 -70.920209 
L 603.493997 -71.244986 
L 606.684391 -71.803404 
L 609.874786 -73.145462 
L 613.06518 -73.936994 
L 616.255575 -75.505934 
L 619.445969 -78.795348 
L 622.636364 -79.261024 
L 622.636364 -97.613156 
L 622.636364 -97.613156 
L 619.445969 -99.200291 
L 616.255575 -101.766286 
L 613.06518 -96.570469 
L 609.874786 -91.632448 
L 606.684391 -87.349966 
L 603.493997 -84.309642 
L 600.303602 -82.580009 
L 597.113208 -78.195268 
L 593.922813 -74.151776 
L 590.732419 -71.796418 
L 587.542024 -70.302877 
L 584.35163 -69.994623 
L 581.161235 -69.902769 
L 577.97084 -70.216271 
L 574.780446 -71.723741 
L 571.590051 -72.813328 
L 568.399657 -73.943651 
L 565.209262 -75.408851 
L 562.018868 -76.597777 
L 558.828473 -77.519279 
L 555.638079 -78.039261 
L 552.447684 -79.60516 
L 549.25729 -80.861137 
L 546.066895 -83.37936 
L 542.876501 -85.794669 
L 539.686106 -89.031425 
L 536.495712 -90.718993 
L 533.305317 -94.662891 
L 530.114923 -98.821843 
L 526.924528 -103.97648 
L 523.734134 -109.3917 
L 520.543739 -116.641713 
L 517.353345 -119.293256 
L 514.16295 -126.326092 
L 510.972556 -132.623407 
L 507.782161 -138.072037 
L 504.591767 -140.88454 
L 501.401372 -141.496801 
L 498.210978 -142.983504 
L 495.020583 -156.322203 
L 491.830189 -151.324026 
L 488.639794 -143.141607 
L 485.4494 -136.876259 
L 482.259005 -133.211277 
L 479.068611 -126.967181 
L 475.878216 -116.319669 
L 472.687822 -107.615129 
L 469.497427 -100.355039 
L 466.307033 -95.554285 
L 463.116638 -93.05311 
L 459.926244 -92.719107 
L 456.735849 -91.078874 
L 453.545455 -88.589666 
L 450.35506 -88.81366 
L 447.164666 -89.402006 
L 443.974271 -89.897493 
L 440.783877 -90.750225 
L 437.593482 -91.733976 
L 434.403087 -93.812713 
L 431.212693 -98.381469 
L 428.022298 -103.869003 
L 424.831904 -111.389635 
L 421.641509 -123.755773 
L 418.451115 -121.674632 
L 415.26072 -110.541755 
L 412.070326 -102.661481 
L 408.879931 -95.667448 
L 405.689537 -92.317707 
L 402.499142 -92.113157 
L 399.308748 -89.989555 
L 396.118353 -92.286383 
L 392.927959 -100.89066 
L 389.737564 -106.141526 
L 386.54717 -111.510317 
L 383.356775 -109.745446 
L 380.166381 -104.625185 
L 376.975986 -106.374457 
L 373.785592 -109.25447 
L 370.595197 -114.967998 
L 367.404803 -115.981624 
L 364.214408 -119.122546 
L 361.024014 -108.024775 
L 357.833619 -92.91579 
L 354.643225 -85.443788 
L 351.45283 -80.913643 
L 348.262436 -76.322131 
L 345.072041 -77.621604 
L 341.881647 -82.786036 
L 338.691252 -77.22868 
L 335.500858 -74.953454 
L 332.310463 -73.777034 
L 329.120069 -73.656127 
L 325.929674 -73.807406 
L 322.73928 -74.544458 
L 319.548885 -75.475182 
L 316.358491 -76.027906 
L 313.168096 -76.707087 
L 309.977702 -77.550971 
L 306.787307 -78.312115 
L 303.596913 -79.642614 
L 300.406518 -80.339281 
L 297.216123 -82.887773 
L 294.025729 -84.065097 
L 290.835334 -85.65791 
L 287.64494 -86.418535 
L 284.454545 -87.726335 
L 281.264151 -92.647106 
L 278.073756 -93.935117 
L 274.883362 -95.427095 
L 271.692967 -101.60436 
L 268.502573 -105.534083 
L 265.312178 -111.039147 
L 262.121784 -115.61195 
L 258.931389 -118.23528 
L 255.740995 -120.846595 
L 252.5506 -127.413431 
L 249.360206 -138.746157 
L 246.169811 -137.00234 
L 242.979417 -133.008866 
L 239.789022 -135.438502 
L 236.598628 -136.563643 
L 233.408233 -127.244916 
L 230.217839 -121.918144 
L 227.027444 -110.066379 
L 223.83705 -106.066568 
L 220.646655 -99.637386 
L 217.456261 -95.191199 
L 214.265866 -93.380463 
L 211.075472 -91.005786 
L 207.885077 -89.620115 
L 204.694683 -89.530756 
L 201.504288 -88.776694 
L 198.313894 -88.456891 
L 195.123499 -87.647877 
L 191.933105 -87.221721 
L 188.74271 -86.024341 
L 185.552316 -85.666617 
L 182.361921 -84.044863 
L 179.171527 -80.894736 
L 175.981132 -79.233947 
L 172.790738 -77.155687 
L 169.600343 -75.654626 
L 166.409949 -74.369433 
L 163.219554 -72.460068 
L 160.02916 -71.264214 
L 156.838765 -70.193924 
L 153.64837 -69.719331 
L 150.457976 -70.795959 
L 147.267581 -76.127549 
L 144.077187 -79.097304 
L 140.886792 -75.074168 
L 137.696398 -73.167834 
L 134.506003 -71.196773 
L 131.315609 -70.739051 
L 128.125214 -70.128001 
L 124.93482 -69.703 
L 121.744425 -69.267458 
L 118.554031 -68.825455 
L 115.363636 -68.825455 
z
" id="md63aa5503b" style="stroke:#0000ff;stroke-opacity:0.2;stroke-width:1.5;"/>
    </defs>
    <g clip-path="url(#p8501e2f27d)">
     <use style="fill:#0000ff;fill-opacity:0.2;stroke:#0000ff;stroke-opacity:0.2;stroke-width:1.5;" x="0" xlink:href="#md63aa5503b" y="432"/>
    </g>
   </g>
   <g id="line2d_1">
    <path clip-path="url(#p8501e2f27d)" d="M 115.363636 363.03311 
L 118.554031 363.098997 
L 128.125214 362.75873 
L 134.506003 362.452851 
L 137.696398 360.428163 
L 140.886792 356.608413 
L 144.077187 350.594911 
L 147.267581 341.027203 
L 150.457976 330.044355 
L 153.64837 314.337089 
L 156.838765 297.277591 
L 160.02916 278.552687 
L 163.219554 255.390667 
L 166.409949 229.597217 
L 169.600343 206.500123 
L 172.790738 184.394854 
L 175.981132 160.027148 
L 179.171527 140.753653 
L 182.361921 122.711326 
L 185.552316 110.96984 
L 188.74271 103.514516 
L 191.933105 98.948997 
L 195.123499 98.04108 
L 198.313894 99.134799 
L 201.504288 105.282708 
L 204.694683 114.388556 
L 207.885077 126.773785 
L 211.075472 144.351278 
L 214.265866 165.693331 
L 217.456261 185.515178 
L 220.646655 204.196484 
L 223.83705 225.623425 
L 227.027444 241.349918 
L 230.217839 259.17494 
L 233.408233 274.51465 
L 236.598628 287.212232 
L 239.789022 297.465838 
L 242.979417 306.291059 
L 249.360206 322.73492 
L 252.5506 328.406673 
L 255.740995 333.173329 
L 258.931389 337.136462 
L 262.121784 339.569099 
L 265.312178 341.441928 
L 271.692967 345.941974 
L 274.883362 349.213184 
L 281.264151 352.514005 
L 284.454545 353.905952 
L 287.64494 354.613668 
L 290.835334 354.899771 
L 297.216123 355.222037 
L 300.406518 356.377584 
L 303.596913 356.865613 
L 306.787307 357.598403 
L 313.168096 358.573195 
L 319.548885 359.207486 
L 322.73928 359.741776 
L 325.929674 360.04991 
L 338.691252 360.66667 
L 341.881647 360.101206 
L 345.072041 359.951481 
L 348.262436 357.844321 
L 354.643225 352.050962 
L 357.833619 348.438865 
L 361.024014 343.542632 
L 364.214408 338.313822 
L 370.595197 325.439939 
L 373.785592 317.476141 
L 376.975986 308.478855 
L 380.166381 297.702944 
L 383.356775 284.933124 
L 386.54717 270.17563 
L 399.308748 208.893836 
L 402.499142 195.013471 
L 405.689537 178.899062 
L 408.879931 165.054165 
L 412.070326 151.88996 
L 415.26072 139.736953 
L 418.451115 128.147722 
L 421.641509 117.482782 
L 424.831904 107.764639 
L 428.022298 100.264079 
L 431.212693 96.296669 
L 434.403087 98.64105 
L 437.593482 102.088377 
L 440.783877 109.051519 
L 443.974271 118.12827 
L 447.164666 128.59358 
L 450.35506 138.262155 
L 456.735849 164.903367 
L 459.926244 178.463894 
L 463.116638 192.85871 
L 466.307033 206.530724 
L 469.497427 221.375715 
L 472.687822 237.1117 
L 475.878216 252.075849 
L 479.068611 266.432661 
L 482.259005 276.149863 
L 485.4494 286.27029 
L 488.639794 293.657195 
L 491.830189 301.403711 
L 495.020583 307.849185 
L 498.210978 313.805129 
L 501.401372 318.248419 
L 504.591767 323.326561 
L 507.782161 327.467747 
L 514.16295 334.48727 
L 517.353345 338.234158 
L 520.543739 340.63694 
L 523.734134 342.775206 
L 526.924528 344.591874 
L 530.114923 346.239222 
L 533.305317 348.350705 
L 536.495712 350.251374 
L 539.686106 351.499763 
L 542.876501 353.111909 
L 546.066895 354.422475 
L 549.25729 356.088158 
L 555.638079 357.711744 
L 558.828473 358.230402 
L 562.018868 359.089047 
L 565.209262 359.55932 
L 568.399657 360.294075 
L 571.590051 361.171981 
L 577.97084 362.580026 
L 581.161235 362.707533 
L 584.35163 362.710577 
L 587.542024 362.550056 
L 590.732419 361.876215 
L 593.922813 360.947668 
L 597.113208 359.172786 
L 600.303602 357.944702 
L 603.493997 356.510061 
L 606.684391 355.309176 
L 609.874786 353.119838 
L 613.06518 350.472302 
L 616.255575 346.968016 
L 619.445969 342.056441 
L 622.636364 335.555262 
L 622.636364 335.555262 
" style="fill:none;stroke:#808080;stroke-linecap:round;stroke-width:2.25;"/>
   </g>
   <g id="line2d_2">
    <path clip-path="url(#p8501e2f27d)" d="M 115.363636 353.294873 
L 121.744425 353.308644 
L 128.125214 353.760666 
L 131.315609 354.419416 
L 137.696398 356.756932 
L 140.886792 359.202463 
L 144.077187 361.139403 
L 147.267581 361.731599 
L 150.457976 362.537122 
L 153.64837 362.767144 
L 156.838765 362.433677 
L 160.02916 361.705379 
L 163.219554 360.743674 
L 169.600343 358.037225 
L 172.790738 356.740803 
L 175.981132 354.950993 
L 179.171527 353.553043 
L 182.361921 351.633073 
L 185.552316 350.447798 
L 188.74271 349.758551 
L 191.933105 348.949372 
L 195.123499 348.456594 
L 198.313894 347.747981 
L 204.694683 347.5484 
L 207.885077 347.763065 
L 217.456261 345.792785 
L 220.646655 344.477847 
L 223.83705 342.291771 
L 227.027444 340.328035 
L 233.408233 333.250812 
L 236.598628 327.223245 
L 239.789022 321.603534 
L 242.979417 314.492411 
L 249.360206 300.838779 
L 252.5506 293.248941 
L 255.740995 284.682381 
L 258.931389 276.542337 
L 262.121784 267.298118 
L 265.312178 257.214952 
L 268.502573 248.210824 
L 271.692967 239.598189 
L 274.883362 229.855577 
L 281.264151 207.609208 
L 287.64494 180.739055 
L 290.835334 165.291911 
L 294.025729 152.641366 
L 297.216123 139.31445 
L 300.406518 127.879655 
L 303.596913 117.410729 
L 306.787307 110.033275 
L 309.977702 104.887406 
L 313.168096 104.283166 
L 316.358491 102.393943 
L 322.73928 107.159921 
L 325.929674 115.248939 
L 329.120069 124.623762 
L 335.500858 155.362746 
L 338.691252 175.529453 
L 341.881647 192.418237 
L 348.262436 228.194591 
L 351.45283 246.043573 
L 354.643225 261.95462 
L 357.833619 276.988713 
L 361.024014 288.5109 
L 364.214408 301.272129 
L 367.404803 310.609925 
L 370.595197 321.018315 
L 373.785592 328.806496 
L 376.975986 334.881146 
L 383.356775 343.380622 
L 386.54717 345.682929 
L 389.737564 348.247902 
L 392.927959 350.188662 
L 396.118353 351.188055 
L 399.308748 351.292127 
L 402.499142 349.955398 
L 405.689537 349.700247 
L 408.879931 349.323096 
L 412.070326 347.249778 
L 415.26072 345.789434 
L 421.641509 341.449853 
L 428.022298 335.386013 
L 431.212693 333.476955 
L 434.403087 332.376345 
L 437.593482 331.399182 
L 440.783877 330.943619 
L 447.164666 331.132885 
L 450.35506 331.667298 
L 453.545455 331.593403 
L 456.735849 330.371838 
L 459.926244 330.900334 
L 463.116638 330.434417 
L 466.307033 329.39104 
L 472.687822 325.678179 
L 475.878216 324.160407 
L 479.068611 321.298489 
L 482.259005 317.200519 
L 485.4494 312.288825 
L 491.830189 299.255551 
L 495.020583 292.440116 
L 498.210978 285.953614 
L 501.401372 277.778178 
L 504.591767 270.891256 
L 507.782161 260.531219 
L 510.972556 251.371351 
L 517.353345 230.85939 
L 520.543739 219.571746 
L 523.734134 207.230875 
L 526.924528 192.295823 
L 530.114923 179.262242 
L 533.305317 164.875162 
L 536.495712 153.460451 
L 539.686106 140.553729 
L 546.066895 118.342524 
L 552.447684 100.186551 
L 555.638079 96.144726 
L 558.828473 93.501198 
L 562.018868 94.686706 
L 565.209262 97.122118 
L 568.399657 102.300763 
L 571.590051 109.042826 
L 574.780446 120.32109 
L 577.97084 130.799609 
L 581.161235 144.695316 
L 584.35163 157.268941 
L 587.542024 172.592097 
L 590.732419 186.40832 
L 597.113208 217.329509 
L 600.303602 234.079319 
L 603.493997 249.027814 
L 606.684391 261.47775 
L 613.06518 284.521637 
L 616.255575 294.744038 
L 619.445969 304.306358 
L 622.636364 311.801883 
L 622.636364 311.801883 
" style="fill:none;stroke:#808080;stroke-dasharray:8.325,3.6;stroke-dashoffset:0;stroke-width:2.25;"/>
   </g>
   <g id="line2d_3">
    <path clip-path="url(#p8501e2f27d)" d="M 115.363636 363.174545 
L 118.554031 363.174545 
L 134.506003 362.384106 
L 140.886792 361.091641 
L 144.077187 359.750596 
L 147.267581 360.730328 
L 150.457976 362.438667 
L 153.64837 362.754729 
L 156.838765 362.412956 
L 160.02916 361.655141 
L 163.219554 360.656983 
L 172.790738 356.477228 
L 175.981132 354.580382 
L 179.171527 353.10067 
L 182.361921 350.990706 
L 185.552316 349.716363 
L 188.74271 348.97881 
L 191.933105 348.097722 
L 195.123499 347.547573 
L 198.313894 346.731352 
L 204.694683 346.375687 
L 207.885077 346.550364 
L 211.075472 345.593983 
L 217.456261 343.013186 
L 220.646655 340.647675 
L 223.83705 336.250077 
L 227.027444 333.364126 
L 230.217839 326.712241 
L 233.408233 323.36588 
L 236.598628 317.660915 
L 239.789022 317.022191 
L 242.979417 315.933298 
L 246.169811 313.708925 
L 249.360206 312.956893 
L 252.5506 321.048114 
L 255.740995 326.13786 
L 258.931389 329.328865 
L 262.121784 331.739585 
L 268.502573 339.084576 
L 271.692967 342.236896 
L 274.883362 346.105329 
L 278.073756 347.462251 
L 281.264151 349.323565 
L 284.454545 351.759063 
L 287.64494 352.969761 
L 294.025729 354.015051 
L 297.216123 354.333966 
L 300.406518 355.78391 
L 303.596913 356.403211 
L 306.787307 357.2644 
L 309.977702 357.855244 
L 313.168096 358.331635 
L 319.548885 359.03822 
L 322.73928 359.617537 
L 325.929674 359.94557 
L 332.310463 360.258218 
L 335.500858 360.220226 
L 338.691252 359.857258 
L 341.881647 358.154837 
L 345.072041 359.660991 
L 348.262436 359.211884 
L 354.643225 354.256471 
L 357.833619 349.620891 
L 361.024014 341.742073 
L 364.214408 335.5096 
L 367.404803 334.759796 
L 370.595197 334.26725 
L 376.975986 339.357249 
L 380.166381 341.41484 
L 383.356775 340.127539 
L 386.54717 339.234436 
L 392.927959 344.991996 
L 396.118353 348.203637 
L 399.308748 349.335558 
L 402.499142 348.067543 
L 405.689537 348.108361 
L 408.879931 347.577833 
L 412.070326 344.352595 
L 415.26072 341.443753 
L 418.451115 336.783908 
L 421.641509 335.506802 
L 424.831904 338.846309 
L 431.212693 342.195537 
L 434.403087 343.479227 
L 443.974271 345.188997 
L 447.164666 345.70238 
L 450.35506 346.000547 
L 453.545455 345.997411 
L 456.735849 344.738094 
L 459.926244 344.085891 
L 463.116638 343.784178 
L 466.307033 342.565245 
L 469.497427 339.414335 
L 472.687822 334.892477 
L 475.878216 329.882095 
L 479.068611 323.443175 
L 482.259005 318.768131 
L 485.4494 314.804378 
L 488.639794 309.148308 
L 491.830189 302.861212 
L 495.020583 301.681885 
L 498.210978 307.098568 
L 501.401372 308.650458 
L 504.591767 310.515816 
L 507.782161 313.025116 
L 510.972556 316.901323 
L 514.16295 323.267708 
L 517.353345 328.117443 
L 520.543739 331.564721 
L 523.734134 336.399906 
L 526.924528 339.815903 
L 530.114923 342.658267 
L 533.305317 345.794833 
L 536.495712 348.318003 
L 539.686106 349.975849 
L 542.876501 352.005474 
L 546.066895 353.630641 
L 549.25729 355.540649 
L 555.638079 357.384798 
L 558.828473 357.947802 
L 562.018868 358.849797 
L 565.209262 359.375053 
L 568.399657 360.167965 
L 571.590051 361.097058 
L 577.97084 362.566948 
L 581.161235 362.699947 
L 584.35163 362.703134 
L 587.542024 362.53511 
L 590.732419 361.814559 
L 593.922813 360.698778 
L 597.113208 358.428658 
L 600.303602 356.346083 
L 603.493997 354.862722 
L 606.684391 353.512333 
L 609.874786 350.49401 
L 613.06518 348.236563 
L 616.255575 345.575108 
L 619.445969 344.007842 
L 622.636364 344.252848 
L 622.636364 344.252848 
" style="fill:none;stroke:#0000ff;stroke-linecap:round;stroke-width:2.25;"/>
   </g>
   <g id="patch_3">
    <path d="M 90 378 
L 90 51.84 
" style="fill:none;stroke:#262626;stroke-linecap:square;stroke-linejoin:miter;stroke-width:1.875;"/>
   </g>
   <g id="patch_4">
    <path d="M 90 378 
L 648 378 
" style="fill:none;stroke:#262626;stroke-linecap:square;stroke-linejoin:miter;stroke-width:1.875;"/>
   </g>
   <g id="legend_1">
    <g id="patch_5">
     <path d="M 101.55 252.404648 
L 256.147266 252.404648 
Q 259.447266 252.404648 259.447266 249.104648 
L 259.447266 180.735352 
Q 259.447266 177.435352 256.147266 177.435352 
L 101.55 177.435352 
Q 98.25 177.435352 98.25 180.735352 
L 98.25 249.104648 
Q 98.25 252.404648 101.55 252.404648 
z
" style="fill:#ffffff;opacity:0.8;stroke:#cccccc;stroke-linejoin:miter;stroke-width:1.5;"/>
    </g>
    <g id="line2d_4">
     <path d="M 104.85 190.070742 
L 137.85 190.070742 
" style="fill:none;stroke:#808080;stroke-linecap:round;stroke-width:2.25;"/>
    </g>
    <g id="line2d_5"/>
    <g id="text_14">
     <!-- MAV1 -->
     <defs>
      <path d="M 7.421875 0 
L 7.421875 71.578125 
L 21.6875 71.578125 
L 38.625 20.90625 
Q 40.96875 13.8125 42.046875 10.296875 
Q 43.265625 14.203125 45.84375 21.78125 
L 62.984375 71.578125 
L 75.734375 71.578125 
L 75.734375 0 
L 66.609375 0 
L 66.609375 59.90625 
L 45.796875 0 
L 37.25 0 
L 16.546875 60.9375 
L 16.546875 0 
z
" id="ArialMT-77"/>
      <path d="M -0.140625 0 
L 27.34375 71.578125 
L 37.546875 71.578125 
L 66.84375 0 
L 56.0625 0 
L 47.703125 21.6875 
L 17.78125 21.6875 
L 9.90625 0 
z
M 20.515625 29.390625 
L 44.78125 29.390625 
L 37.3125 49.21875 
Q 33.890625 58.25 32.234375 64.0625 
Q 30.859375 57.171875 28.375 50.390625 
z
" id="ArialMT-65"/>
      <path d="M 28.171875 0 
L 0.4375 71.578125 
L 10.6875 71.578125 
L 29.296875 19.578125 
Q 31.546875 13.328125 33.0625 7.859375 
Q 34.71875 13.71875 36.921875 19.578125 
L 56.25 71.578125 
L 65.921875 71.578125 
L 37.890625 0 
z
" id="ArialMT-86"/>
     </defs>
     <g style="fill:#262626;" transform="translate(151.05 195.845742)scale(0.165 -0.165)">
      <use xlink:href="#ArialMT-77"/>
      <use x="83.300781" xlink:href="#ArialMT-65"/>
      <use x="142.625" xlink:href="#ArialMT-86"/>
      <use x="209.324219" xlink:href="#ArialMT-49"/>
     </g>
    </g>
    <g id="line2d_6">
     <path d="M 104.85 213.410508 
L 137.85 213.410508 
" style="fill:none;stroke:#808080;stroke-dasharray:8.325,3.6;stroke-dashoffset:0;stroke-width:2.25;"/>
    </g>
    <g id="line2d_7"/>
    <g id="text_15">
     <!-- MAV2 -->
     <g style="fill:#262626;" transform="translate(151.05 219.185508)scale(0.165 -0.165)">
      <use xlink:href="#ArialMT-77"/>
      <use x="83.300781" xlink:href="#ArialMT-65"/>
      <use x="142.625" xlink:href="#ArialMT-86"/>
      <use x="209.324219" xlink:href="#ArialMT-50"/>
     </g>
    </g>
    <g id="line2d_8">
     <path d="M 104.85 236.750273 
L 137.85 236.750273 
" style="fill:none;stroke:#0000ff;stroke-linecap:round;stroke-width:2.25;"/>
    </g>
    <g id="line2d_9"/>
    <g id="text_16">
     <!-- Cocontraction -->
     <g style="fill:#262626;" transform="translate(151.05 242.525273)scale(0.165 -0.165)">
      <use xlink:href="#ArialMT-67"/>
      <use x="72.216797" xlink:href="#ArialMT-111"/>
      <use x="127.832031" xlink:href="#ArialMT-99"/>
      <use x="177.832031" xlink:href="#ArialMT-111"/>
      <use x="233.447266" xlink:href="#ArialMT-110"/>
      <use x="289.0625" xlink:href="#ArialMT-116"/>
      <use x="316.845703" xlink:href="#ArialMT-114"/>
      <use x="350.146484" xlink:href="#ArialMT-97"/>
      <use x="405.761719" xlink:href="#ArialMT-99"/>
      <use x="455.761719" xlink:href="#ArialMT-116"/>
      <use x="483.544922" xlink:href="#ArialMT-105"/>
      <use x="505.761719" xlink:href="#ArialMT-111"/>
      <use x="561.376953" xlink:href="#ArialMT-110"/>
     </g>
    </g>
   </g>
  </g>
 </g>
 <defs>
  <clipPath id="p8501e2f27d">
   <rect height="326.16" width="558" x="90" y="51.84"/>
  </clipPath>
 </defs>
</svg>
