<?xml version="1.0" encoding="utf-8" standalone="no"?>
<!DOCTYPE svg PUBLIC "-//W3C//DTD SVG 1.1//EN"
  "http://www.w3.org/Graphics/SVG/1.1/DTD/svg11.dtd">
<!-- Created with matplotlib (https://matplotlib.org/) -->
<svg height="432pt" version="1.1" viewBox="0 0 720 432" width="720pt" xmlns="http://www.w3.org/2000/svg" xmlns:xlink="http://www.w3.org/1999/xlink">
 <defs>
  <style type="text/css">
*{stroke-linecap:butt;stroke-linejoin:round;}
  </style>
 </defs>
 <g id="figure_1">
  <g id="patch_1">
   <path d="M 0 432 
L 720 432 
L 720 0 
L 0 0 
z
" style="fill:#ffffff;"/>
  </g>
  <g id="axes_1">
   <g id="patch_2">
    <path d="M 90 378 
L 648 378 
L 648 51.84 
L 90 51.84 
z
" style="fill:#ffffff;"/>
   </g>
   <g id="matplotlib.axis_1">
    <g id="xtick_1">
     <g id="text_1">
      <!-- 1 -->
      <defs>
       <path d="M 37.25 0 
L 28.46875 0 
L 28.46875 56 
Q 25.296875 52.984375 20.140625 49.953125 
Q 14.984375 46.921875 10.890625 45.40625 
L 10.890625 53.90625 
Q 18.265625 57.375 23.78125 62.296875 
Q 29.296875 67.234375 31.59375 71.875 
L 37.25 71.875 
z
" id="ArialMT-49"/>
      </defs>
      <g style="fill:#262626;" transform="translate(114.326875 407.67875)scale(0.24 -0.24)">
       <use xlink:href="#ArialMT-49"/>
      </g>
     </g>
    </g>
    <g id="xtick_2">
     <g id="text_2">
      <!-- 2 -->
      <defs>
       <path d="M 50.34375 8.453125 
L 50.34375 0 
L 3.03125 0 
Q 2.9375 3.171875 4.046875 6.109375 
Q 5.859375 10.9375 9.828125 15.625 
Q 13.8125 20.3125 21.34375 26.46875 
Q 33.015625 36.03125 37.109375 41.625 
Q 41.21875 47.21875 41.21875 52.203125 
Q 41.21875 57.421875 37.46875 61 
Q 33.734375 64.59375 27.734375 64.59375 
Q 21.390625 64.59375 17.578125 60.78125 
Q 13.765625 56.984375 13.71875 50.25 
L 4.6875 51.171875 
Q 5.609375 61.28125 11.65625 66.578125 
Q 17.71875 71.875 27.9375 71.875 
Q 38.234375 71.875 44.234375 66.15625 
Q 50.25 60.453125 50.25 52 
Q 50.25 47.703125 48.484375 43.546875 
Q 46.734375 39.40625 42.65625 34.8125 
Q 38.578125 30.21875 29.109375 22.21875 
Q 21.1875 15.578125 18.9375 13.203125 
Q 16.703125 10.84375 15.234375 8.453125 
z
" id="ArialMT-50"/>
      </defs>
      <g style="fill:#262626;" transform="translate(176.326875 407.67875)scale(0.24 -0.24)">
       <use xlink:href="#ArialMT-50"/>
      </g>
     </g>
    </g>
    <g id="xtick_3">
     <g id="text_3">
      <!-- 3 -->
      <defs>
       <path d="M 4.203125 18.890625 
L 12.984375 20.0625 
Q 14.5 12.59375 18.140625 9.296875 
Q 21.78125 6 27 6 
Q 33.203125 6 37.46875 10.296875 
Q 41.75 14.59375 41.75 20.953125 
Q 41.75 27 37.796875 30.921875 
Q 33.84375 34.859375 27.734375 34.859375 
Q 25.25 34.859375 21.53125 33.890625 
L 22.515625 41.609375 
Q 23.390625 41.5 23.921875 41.5 
Q 29.546875 41.5 34.03125 44.421875 
Q 38.53125 47.359375 38.53125 53.46875 
Q 38.53125 58.296875 35.25 61.46875 
Q 31.984375 64.65625 26.8125 64.65625 
Q 21.6875 64.65625 18.265625 61.421875 
Q 14.84375 58.203125 13.875 51.765625 
L 5.078125 53.328125 
Q 6.6875 62.15625 12.390625 67.015625 
Q 18.109375 71.875 26.609375 71.875 
Q 32.46875 71.875 37.390625 69.359375 
Q 42.328125 66.84375 44.9375 62.5 
Q 47.5625 58.15625 47.5625 53.265625 
Q 47.5625 48.640625 45.0625 44.828125 
Q 42.578125 41.015625 37.703125 38.765625 
Q 44.046875 37.3125 47.5625 32.6875 
Q 51.078125 28.078125 51.078125 21.140625 
Q 51.078125 11.765625 44.234375 5.25 
Q 37.40625 -1.265625 26.953125 -1.265625 
Q 17.53125 -1.265625 11.296875 4.34375 
Q 5.078125 9.96875 4.203125 18.890625 
z
" id="ArialMT-51"/>
      </defs>
      <g style="fill:#262626;" transform="translate(238.326875 407.67875)scale(0.24 -0.24)">
       <use xlink:href="#ArialMT-51"/>
      </g>
     </g>
    </g>
    <g id="xtick_4">
     <g id="text_4">
      <!-- 4 -->
      <defs>
       <path d="M 32.328125 0 
L 32.328125 17.140625 
L 1.265625 17.140625 
L 1.265625 25.203125 
L 33.9375 71.578125 
L 41.109375 71.578125 
L 41.109375 25.203125 
L 50.78125 25.203125 
L 50.78125 17.140625 
L 41.109375 17.140625 
L 41.109375 0 
z
M 32.328125 25.203125 
L 32.328125 57.46875 
L 9.90625 25.203125 
z
" id="ArialMT-52"/>
      </defs>
      <g style="fill:#262626;" transform="translate(300.326875 407.67875)scale(0.24 -0.24)">
       <use xlink:href="#ArialMT-52"/>
      </g>
     </g>
    </g>
    <g id="xtick_5">
     <g id="text_5">
      <!-- 5 -->
      <defs>
       <path d="M 4.15625 18.75 
L 13.375 19.53125 
Q 14.40625 12.796875 18.140625 9.390625 
Q 21.875 6 27.15625 6 
Q 33.5 6 37.890625 10.78125 
Q 42.28125 15.578125 42.28125 23.484375 
Q 42.28125 31 38.0625 35.34375 
Q 33.84375 39.703125 27 39.703125 
Q 22.75 39.703125 19.328125 37.765625 
Q 15.921875 35.84375 13.96875 32.765625 
L 5.71875 33.84375 
L 12.640625 70.609375 
L 48.25 70.609375 
L 48.25 62.203125 
L 19.671875 62.203125 
L 15.828125 42.96875 
Q 22.265625 47.46875 29.34375 47.46875 
Q 38.71875 47.46875 45.15625 40.96875 
Q 51.609375 34.46875 51.609375 24.265625 
Q 51.609375 14.546875 45.953125 7.46875 
Q 39.0625 -1.21875 27.15625 -1.21875 
Q 17.390625 -1.21875 11.203125 4.25 
Q 5.03125 9.71875 4.15625 18.75 
z
" id="ArialMT-53"/>
      </defs>
      <g style="fill:#262626;" transform="translate(362.326875 407.67875)scale(0.24 -0.24)">
       <use xlink:href="#ArialMT-53"/>
      </g>
     </g>
    </g>
    <g id="xtick_6">
     <g id="text_6">
      <!-- 6 -->
      <defs>
       <path d="M 49.75 54.046875 
L 41.015625 53.375 
Q 39.84375 58.546875 37.703125 60.890625 
Q 34.125 64.65625 28.90625 64.65625 
Q 24.703125 64.65625 21.53125 62.3125 
Q 17.390625 59.28125 14.984375 53.46875 
Q 12.59375 47.65625 12.5 36.921875 
Q 15.671875 41.75 20.265625 44.09375 
Q 24.859375 46.4375 29.890625 46.4375 
Q 38.671875 46.4375 44.84375 39.96875 
Q 51.03125 33.5 51.03125 23.25 
Q 51.03125 16.5 48.125 10.71875 
Q 45.21875 4.9375 40.140625 1.859375 
Q 35.0625 -1.21875 28.609375 -1.21875 
Q 17.625 -1.21875 10.6875 6.859375 
Q 3.765625 14.9375 3.765625 33.5 
Q 3.765625 54.25 11.421875 63.671875 
Q 18.109375 71.875 29.4375 71.875 
Q 37.890625 71.875 43.28125 67.140625 
Q 48.6875 62.40625 49.75 54.046875 
z
M 13.875 23.1875 
Q 13.875 18.65625 15.796875 14.5 
Q 17.71875 10.359375 21.1875 8.171875 
Q 24.65625 6 28.46875 6 
Q 34.03125 6 38.03125 10.484375 
Q 42.046875 14.984375 42.046875 22.703125 
Q 42.046875 30.125 38.078125 34.390625 
Q 34.125 38.671875 28.125 38.671875 
Q 22.171875 38.671875 18.015625 34.390625 
Q 13.875 30.125 13.875 23.1875 
z
" id="ArialMT-54"/>
      </defs>
      <g style="fill:#262626;" transform="translate(424.326875 407.67875)scale(0.24 -0.24)">
       <use xlink:href="#ArialMT-54"/>
      </g>
     </g>
    </g>
    <g id="xtick_7">
     <g id="text_7">
      <!-- 7 -->
      <defs>
       <path d="M 4.734375 62.203125 
L 4.734375 70.65625 
L 51.078125 70.65625 
L 51.078125 63.8125 
Q 44.234375 56.546875 37.515625 44.484375 
Q 30.8125 32.421875 27.15625 19.671875 
Q 24.515625 10.6875 23.78125 0 
L 14.75 0 
Q 14.890625 8.453125 18.0625 20.40625 
Q 21.234375 32.375 27.171875 43.484375 
Q 33.109375 54.59375 39.796875 62.203125 
z
" id="ArialMT-55"/>
      </defs>
      <g style="fill:#262626;" transform="translate(486.326875 407.67875)scale(0.24 -0.24)">
       <use xlink:href="#ArialMT-55"/>
      </g>
     </g>
    </g>
    <g id="xtick_8">
     <g id="text_8">
      <!-- 8 -->
      <defs>
       <path d="M 17.671875 38.8125 
Q 12.203125 40.828125 9.5625 44.53125 
Q 6.9375 48.25 6.9375 53.421875 
Q 6.9375 61.234375 12.546875 66.546875 
Q 18.171875 71.875 27.484375 71.875 
Q 36.859375 71.875 42.578125 66.421875 
Q 48.296875 60.984375 48.296875 53.171875 
Q 48.296875 48.1875 45.671875 44.5 
Q 43.0625 40.828125 37.75 38.8125 
Q 44.34375 36.671875 47.78125 31.875 
Q 51.21875 27.09375 51.21875 20.453125 
Q 51.21875 11.28125 44.71875 5.03125 
Q 38.234375 -1.21875 27.640625 -1.21875 
Q 17.046875 -1.21875 10.546875 5.046875 
Q 4.046875 11.328125 4.046875 20.703125 
Q 4.046875 27.6875 7.59375 32.390625 
Q 11.140625 37.109375 17.671875 38.8125 
z
M 15.921875 53.71875 
Q 15.921875 48.640625 19.1875 45.40625 
Q 22.46875 42.1875 27.6875 42.1875 
Q 32.765625 42.1875 36.015625 45.375 
Q 39.265625 48.578125 39.265625 53.21875 
Q 39.265625 58.0625 35.90625 61.359375 
Q 32.5625 64.65625 27.59375 64.65625 
Q 22.5625 64.65625 19.234375 61.421875 
Q 15.921875 58.203125 15.921875 53.71875 
z
M 13.09375 20.65625 
Q 13.09375 16.890625 14.875 13.375 
Q 16.65625 9.859375 20.171875 7.921875 
Q 23.6875 6 27.734375 6 
Q 34.03125 6 38.125 10.046875 
Q 42.234375 14.109375 42.234375 20.359375 
Q 42.234375 26.703125 38.015625 30.859375 
Q 33.796875 35.015625 27.4375 35.015625 
Q 21.234375 35.015625 17.15625 30.90625 
Q 13.09375 26.8125 13.09375 20.65625 
z
" id="ArialMT-56"/>
      </defs>
      <g style="fill:#262626;" transform="translate(548.326875 407.67875)scale(0.24 -0.24)">
       <use xlink:href="#ArialMT-56"/>
      </g>
     </g>
    </g>
    <g id="xtick_9">
     <g id="text_9">
      <!-- 9 -->
      <defs>
       <path d="M 5.46875 16.546875 
L 13.921875 17.328125 
Q 14.984375 11.375 18.015625 8.6875 
Q 21.046875 6 25.78125 6 
Q 29.828125 6 32.875 7.859375 
Q 35.9375 9.71875 37.890625 12.8125 
Q 39.84375 15.921875 41.15625 21.1875 
Q 42.484375 26.46875 42.484375 31.9375 
Q 42.484375 32.515625 42.4375 33.6875 
Q 39.796875 29.5 35.234375 26.875 
Q 30.671875 24.265625 25.34375 24.265625 
Q 16.453125 24.265625 10.296875 30.703125 
Q 4.15625 37.15625 4.15625 47.703125 
Q 4.15625 58.59375 10.578125 65.234375 
Q 17 71.875 26.65625 71.875 
Q 33.640625 71.875 39.421875 68.109375 
Q 45.21875 64.359375 48.21875 57.390625 
Q 51.21875 50.4375 51.21875 37.25 
Q 51.21875 23.53125 48.234375 15.40625 
Q 45.265625 7.28125 39.375 3.03125 
Q 33.5 -1.21875 25.59375 -1.21875 
Q 17.1875 -1.21875 11.859375 3.4375 
Q 6.546875 8.109375 5.46875 16.546875 
z
M 41.453125 48.140625 
Q 41.453125 55.71875 37.421875 60.15625 
Q 33.40625 64.59375 27.734375 64.59375 
Q 21.875 64.59375 17.53125 59.8125 
Q 13.1875 55.03125 13.1875 47.40625 
Q 13.1875 40.578125 17.3125 36.296875 
Q 21.4375 32.03125 27.484375 32.03125 
Q 33.59375 32.03125 37.515625 36.296875 
Q 41.453125 40.578125 41.453125 48.140625 
z
" id="ArialMT-57"/>
      </defs>
      <g style="fill:#262626;" transform="translate(610.326875 407.67875)scale(0.24 -0.24)">
       <use xlink:href="#ArialMT-57"/>
      </g>
     </g>
    </g>
    <g id="text_10">
     <!-- Sense of Agency -->
     <defs>
      <path d="M 4.5 23 
L 13.421875 23.78125 
Q 14.0625 18.40625 16.375 14.96875 
Q 18.703125 11.53125 23.578125 9.40625 
Q 28.46875 7.28125 34.578125 7.28125 
Q 39.984375 7.28125 44.140625 8.890625 
Q 48.296875 10.5 50.3125 13.296875 
Q 52.34375 16.109375 52.34375 19.4375 
Q 52.34375 22.796875 50.390625 25.3125 
Q 48.4375 27.828125 43.953125 29.546875 
Q 41.0625 30.671875 31.203125 33.03125 
Q 21.34375 35.40625 17.390625 37.5 
Q 12.25 40.1875 9.734375 44.15625 
Q 7.234375 48.140625 7.234375 53.078125 
Q 7.234375 58.5 10.296875 63.203125 
Q 13.375 67.921875 19.28125 70.359375 
Q 25.203125 72.796875 32.421875 72.796875 
Q 40.375 72.796875 46.453125 70.234375 
Q 52.546875 67.671875 55.8125 62.6875 
Q 59.078125 57.71875 59.328125 51.421875 
L 50.25 50.734375 
Q 49.515625 57.515625 45.28125 60.984375 
Q 41.0625 64.453125 32.8125 64.453125 
Q 24.21875 64.453125 20.28125 61.296875 
Q 16.359375 58.15625 16.359375 53.71875 
Q 16.359375 49.859375 19.140625 47.359375 
Q 21.875 44.875 33.421875 42.265625 
Q 44.96875 39.65625 49.265625 37.703125 
Q 55.515625 34.8125 58.484375 30.390625 
Q 61.46875 25.984375 61.46875 20.21875 
Q 61.46875 14.5 58.203125 9.4375 
Q 54.9375 4.390625 48.796875 1.578125 
Q 42.671875 -1.21875 35.015625 -1.21875 
Q 25.296875 -1.21875 18.71875 1.609375 
Q 12.15625 4.4375 8.421875 10.125 
Q 4.6875 15.828125 4.5 23 
z
" id="ArialMT-83"/>
      <path d="M 42.09375 16.703125 
L 51.171875 15.578125 
Q 49.03125 7.625 43.21875 3.21875 
Q 37.40625 -1.171875 28.375 -1.171875 
Q 17 -1.171875 10.328125 5.828125 
Q 3.65625 12.84375 3.65625 25.484375 
Q 3.65625 38.578125 10.390625 45.796875 
Q 17.140625 53.03125 27.875 53.03125 
Q 38.28125 53.03125 44.875 45.953125 
Q 51.46875 38.875 51.46875 26.03125 
Q 51.46875 25.25 51.421875 23.6875 
L 12.75 23.6875 
Q 13.234375 15.140625 17.578125 10.59375 
Q 21.921875 6.0625 28.421875 6.0625 
Q 33.25 6.0625 36.671875 8.59375 
Q 40.09375 11.140625 42.09375 16.703125 
z
M 13.234375 30.90625 
L 42.1875 30.90625 
Q 41.609375 37.453125 38.875 40.71875 
Q 34.671875 45.796875 27.984375 45.796875 
Q 21.921875 45.796875 17.796875 41.75 
Q 13.671875 37.703125 13.234375 30.90625 
z
" id="ArialMT-101"/>
      <path d="M 6.59375 0 
L 6.59375 51.859375 
L 14.5 51.859375 
L 14.5 44.484375 
Q 20.21875 53.03125 31 53.03125 
Q 35.6875 53.03125 39.625 51.34375 
Q 43.5625 49.65625 45.515625 46.921875 
Q 47.46875 44.1875 48.25 40.4375 
Q 48.734375 37.984375 48.734375 31.890625 
L 48.734375 0 
L 39.9375 0 
L 39.9375 31.546875 
Q 39.9375 36.921875 38.90625 39.578125 
Q 37.890625 42.234375 35.28125 43.8125 
Q 32.671875 45.40625 29.15625 45.40625 
Q 23.53125 45.40625 19.453125 41.84375 
Q 15.375 38.28125 15.375 28.328125 
L 15.375 0 
z
" id="ArialMT-110"/>
      <path d="M 3.078125 15.484375 
L 11.765625 16.84375 
Q 12.5 11.625 15.84375 8.84375 
Q 19.1875 6.0625 25.203125 6.0625 
Q 31.25 6.0625 34.171875 8.515625 
Q 37.109375 10.984375 37.109375 14.3125 
Q 37.109375 17.28125 34.515625 19 
Q 32.71875 20.171875 25.53125 21.96875 
Q 15.875 24.421875 12.140625 26.203125 
Q 8.40625 27.984375 6.46875 31.125 
Q 4.546875 34.28125 4.546875 38.09375 
Q 4.546875 41.546875 6.125 44.5 
Q 7.71875 47.46875 10.453125 49.421875 
Q 12.5 50.921875 16.03125 51.96875 
Q 19.578125 53.03125 23.640625 53.03125 
Q 29.734375 53.03125 34.34375 51.265625 
Q 38.96875 49.515625 41.15625 46.5 
Q 43.359375 43.5 44.1875 38.484375 
L 35.59375 37.3125 
Q 35.015625 41.3125 32.203125 43.546875 
Q 29.390625 45.796875 24.265625 45.796875 
Q 18.21875 45.796875 15.625 43.796875 
Q 13.03125 41.796875 13.03125 39.109375 
Q 13.03125 37.40625 14.109375 36.03125 
Q 15.1875 34.625 17.484375 33.6875 
Q 18.796875 33.203125 25.25 31.453125 
Q 34.578125 28.953125 38.25 27.359375 
Q 41.9375 25.78125 44.03125 22.75 
Q 46.140625 19.734375 46.140625 15.234375 
Q 46.140625 10.84375 43.578125 6.953125 
Q 41.015625 3.078125 36.171875 0.953125 
Q 31.34375 -1.171875 25.25 -1.171875 
Q 15.140625 -1.171875 9.84375 3.03125 
Q 4.546875 7.234375 3.078125 15.484375 
z
" id="ArialMT-115"/>
      <path id="ArialMT-32"/>
      <path d="M 3.328125 25.921875 
Q 3.328125 40.328125 11.328125 47.265625 
Q 18.015625 53.03125 27.640625 53.03125 
Q 38.328125 53.03125 45.109375 46.015625 
Q 51.90625 39.015625 51.90625 26.65625 
Q 51.90625 16.65625 48.90625 10.90625 
Q 45.90625 5.171875 40.15625 2 
Q 34.421875 -1.171875 27.640625 -1.171875 
Q 16.75 -1.171875 10.03125 5.8125 
Q 3.328125 12.796875 3.328125 25.921875 
z
M 12.359375 25.921875 
Q 12.359375 15.96875 16.703125 11.015625 
Q 21.046875 6.0625 27.640625 6.0625 
Q 34.1875 6.0625 38.53125 11.03125 
Q 42.875 16.015625 42.875 26.21875 
Q 42.875 35.84375 38.5 40.796875 
Q 34.125 45.75 27.640625 45.75 
Q 21.046875 45.75 16.703125 40.8125 
Q 12.359375 35.890625 12.359375 25.921875 
z
" id="ArialMT-111"/>
      <path d="M 8.6875 0 
L 8.6875 45.015625 
L 0.921875 45.015625 
L 0.921875 51.859375 
L 8.6875 51.859375 
L 8.6875 57.375 
Q 8.6875 62.59375 9.625 65.140625 
Q 10.890625 68.5625 14.078125 70.671875 
Q 17.28125 72.796875 23.046875 72.796875 
Q 26.765625 72.796875 31.25 71.921875 
L 29.9375 64.265625 
Q 27.203125 64.75 24.75 64.75 
Q 20.75 64.75 19.09375 63.03125 
Q 17.4375 61.328125 17.4375 56.640625 
L 17.4375 51.859375 
L 27.546875 51.859375 
L 27.546875 45.015625 
L 17.4375 45.015625 
L 17.4375 0 
z
" id="ArialMT-102"/>
      <path d="M -0.140625 0 
L 27.34375 71.578125 
L 37.546875 71.578125 
L 66.84375 0 
L 56.0625 0 
L 47.703125 21.6875 
L 17.78125 21.6875 
L 9.90625 0 
z
M 20.515625 29.390625 
L 44.78125 29.390625 
L 37.3125 49.21875 
Q 33.890625 58.25 32.234375 64.0625 
Q 30.859375 57.171875 28.375 50.390625 
z
" id="ArialMT-65"/>
      <path d="M 4.984375 -4.296875 
L 13.53125 -5.5625 
Q 14.0625 -9.515625 16.5 -11.328125 
Q 19.78125 -13.765625 25.4375 -13.765625 
Q 31.546875 -13.765625 34.859375 -11.328125 
Q 38.1875 -8.890625 39.359375 -4.5 
Q 40.046875 -1.8125 39.984375 6.78125 
Q 34.234375 0 25.640625 0 
Q 14.9375 0 9.078125 7.71875 
Q 3.21875 15.4375 3.21875 26.21875 
Q 3.21875 33.640625 5.90625 39.90625 
Q 8.59375 46.1875 13.6875 49.609375 
Q 18.796875 53.03125 25.6875 53.03125 
Q 34.859375 53.03125 40.828125 45.609375 
L 40.828125 51.859375 
L 48.921875 51.859375 
L 48.921875 7.03125 
Q 48.921875 -5.078125 46.453125 -10.125 
Q 44 -15.1875 38.640625 -18.109375 
Q 33.296875 -21.046875 25.484375 -21.046875 
Q 16.21875 -21.046875 10.5 -16.875 
Q 4.78125 -12.703125 4.984375 -4.296875 
z
M 12.25 26.859375 
Q 12.25 16.65625 16.296875 11.96875 
Q 20.359375 7.28125 26.46875 7.28125 
Q 32.515625 7.28125 36.609375 11.9375 
Q 40.71875 16.609375 40.71875 26.5625 
Q 40.71875 36.078125 36.5 40.90625 
Q 32.28125 45.75 26.3125 45.75 
Q 20.453125 45.75 16.34375 40.984375 
Q 12.25 36.234375 12.25 26.859375 
z
" id="ArialMT-103"/>
      <path d="M 40.4375 19 
L 49.078125 17.875 
Q 47.65625 8.9375 41.8125 3.875 
Q 35.984375 -1.171875 27.484375 -1.171875 
Q 16.84375 -1.171875 10.375 5.78125 
Q 3.90625 12.75 3.90625 25.734375 
Q 3.90625 34.125 6.6875 40.421875 
Q 9.46875 46.734375 15.15625 49.875 
Q 20.84375 53.03125 27.546875 53.03125 
Q 35.984375 53.03125 41.359375 48.75 
Q 46.734375 44.484375 48.25 36.625 
L 39.703125 35.296875 
Q 38.484375 40.53125 35.375 43.15625 
Q 32.28125 45.796875 27.875 45.796875 
Q 21.234375 45.796875 17.078125 41.03125 
Q 12.9375 36.28125 12.9375 25.984375 
Q 12.9375 15.53125 16.9375 10.796875 
Q 20.953125 6.0625 27.390625 6.0625 
Q 32.5625 6.0625 36.03125 9.234375 
Q 39.5 12.40625 40.4375 19 
z
" id="ArialMT-99"/>
      <path d="M 6.203125 -19.96875 
L 5.21875 -11.71875 
Q 8.109375 -12.5 10.25 -12.5 
Q 13.1875 -12.5 14.9375 -11.515625 
Q 16.703125 -10.546875 17.828125 -8.796875 
Q 18.65625 -7.46875 20.515625 -2.25 
Q 20.75 -1.515625 21.296875 -0.09375 
L 1.609375 51.859375 
L 11.078125 51.859375 
L 21.875 21.828125 
Q 23.96875 16.109375 25.640625 9.8125 
Q 27.15625 15.875 29.25 21.625 
L 40.328125 51.859375 
L 49.125 51.859375 
L 29.390625 -0.875 
Q 26.21875 -9.421875 24.46875 -12.640625 
Q 22.125 -17 19.09375 -19.015625 
Q 16.0625 -21.046875 11.859375 -21.046875 
Q 9.328125 -21.046875 6.203125 -19.96875 
z
" id="ArialMT-121"/>
     </defs>
     <g style="fill:#262626;" transform="translate(248.9175 439.74375)scale(0.32 -0.32)">
      <use xlink:href="#ArialMT-83"/>
      <use x="66.699219" xlink:href="#ArialMT-101"/>
      <use x="122.314453" xlink:href="#ArialMT-110"/>
      <use x="177.929688" xlink:href="#ArialMT-115"/>
      <use x="227.929688" xlink:href="#ArialMT-101"/>
      <use x="283.544922" xlink:href="#ArialMT-32"/>
      <use x="311.328125" xlink:href="#ArialMT-111"/>
      <use x="366.943359" xlink:href="#ArialMT-102"/>
      <use x="394.726562" xlink:href="#ArialMT-32"/>
      <use x="417.009766" xlink:href="#ArialMT-65"/>
      <use x="483.708984" xlink:href="#ArialMT-103"/>
      <use x="539.324219" xlink:href="#ArialMT-101"/>
      <use x="594.939453" xlink:href="#ArialMT-110"/>
      <use x="650.554688" xlink:href="#ArialMT-99"/>
      <use x="700.554688" xlink:href="#ArialMT-121"/>
     </g>
    </g>
   </g>
   <g id="matplotlib.axis_2">
    <g id="ytick_1">
     <g id="text_11">
      <!-- 0.0 -->
      <defs>
       <path d="M 4.15625 35.296875 
Q 4.15625 48 6.765625 55.734375 
Q 9.375 63.484375 14.515625 67.671875 
Q 19.671875 71.875 27.484375 71.875 
Q 33.25 71.875 37.59375 69.546875 
Q 41.9375 67.234375 44.765625 62.859375 
Q 47.609375 58.5 49.21875 52.21875 
Q 50.828125 45.953125 50.828125 35.296875 
Q 50.828125 22.703125 48.234375 14.96875 
Q 45.65625 7.234375 40.5 3 
Q 35.359375 -1.21875 27.484375 -1.21875 
Q 17.140625 -1.21875 11.234375 6.203125 
Q 4.15625 15.140625 4.15625 35.296875 
z
M 13.1875 35.296875 
Q 13.1875 17.671875 17.3125 11.828125 
Q 21.4375 6 27.484375 6 
Q 33.546875 6 37.671875 11.859375 
Q 41.796875 17.71875 41.796875 35.296875 
Q 41.796875 52.984375 37.671875 58.78125 
Q 33.546875 64.59375 27.390625 64.59375 
Q 21.34375 64.59375 17.71875 59.46875 
Q 13.1875 52.9375 13.1875 35.296875 
z
" id="ArialMT-48"/>
       <path d="M 9.078125 0 
L 9.078125 10.015625 
L 19.09375 10.015625 
L 19.09375 0 
z
" id="ArialMT-46"/>
      </defs>
      <g style="fill:#262626;" transform="translate(44.14 351.24199)scale(0.24 -0.24)">
       <use xlink:href="#ArialMT-48"/>
       <use x="55.615234" xlink:href="#ArialMT-46"/>
       <use x="83.398438" xlink:href="#ArialMT-48"/>
      </g>
     </g>
    </g>
    <g id="ytick_2">
     <g id="text_12">
      <!-- 0.2 -->
      <g style="fill:#262626;" transform="translate(44.14 292.843193)scale(0.24 -0.24)">
       <use xlink:href="#ArialMT-48"/>
       <use x="55.615234" xlink:href="#ArialMT-46"/>
       <use x="83.398438" xlink:href="#ArialMT-50"/>
      </g>
     </g>
    </g>
    <g id="ytick_3">
     <g id="text_13">
      <!-- 0.4 -->
      <g style="fill:#262626;" transform="translate(44.14 234.444396)scale(0.24 -0.24)">
       <use xlink:href="#ArialMT-48"/>
       <use x="55.615234" xlink:href="#ArialMT-46"/>
       <use x="83.398438" xlink:href="#ArialMT-52"/>
      </g>
     </g>
    </g>
    <g id="ytick_4">
     <g id="text_14">
      <!-- 0.6 -->
      <g style="fill:#262626;" transform="translate(44.14 176.045599)scale(0.24 -0.24)">
       <use xlink:href="#ArialMT-48"/>
       <use x="55.615234" xlink:href="#ArialMT-46"/>
       <use x="83.398438" xlink:href="#ArialMT-54"/>
      </g>
     </g>
    </g>
    <g id="ytick_5">
     <g id="text_15">
      <!-- 0.8 -->
      <g style="fill:#262626;" transform="translate(44.14 117.646802)scale(0.24 -0.24)">
       <use xlink:href="#ArialMT-48"/>
       <use x="55.615234" xlink:href="#ArialMT-46"/>
       <use x="83.398438" xlink:href="#ArialMT-56"/>
      </g>
     </g>
    </g>
    <g id="text_16">
     <!-- Score -->
     <defs>
      <path d="M 6.5 0 
L 6.5 51.859375 
L 14.40625 51.859375 
L 14.40625 44 
Q 17.4375 49.515625 20 51.265625 
Q 22.5625 53.03125 25.640625 53.03125 
Q 30.078125 53.03125 34.671875 50.203125 
L 31.640625 42.046875 
Q 28.421875 43.953125 25.203125 43.953125 
Q 22.3125 43.953125 20.015625 42.21875 
Q 17.71875 40.484375 16.75 37.40625 
Q 15.28125 32.71875 15.28125 27.15625 
L 15.28125 0 
z
" id="ArialMT-114"/>
     </defs>
     <g style="fill:#262626;" transform="translate(33.78 256.715)rotate(-90)scale(0.32 -0.32)">
      <use xlink:href="#ArialMT-83"/>
      <use x="66.699219" xlink:href="#ArialMT-99"/>
      <use x="116.699219" xlink:href="#ArialMT-111"/>
      <use x="172.314453" xlink:href="#ArialMT-114"/>
      <use x="205.615234" xlink:href="#ArialMT-101"/>
     </g>
    </g>
   </g>
   <g id="patch_3">
    <path clip-path="url(#pcbf975c6a6)" d="M 96.448 208.399208 
L 120.752 208.399208 
L 120.752 179.138731 
L 96.448 179.138731 
L 96.448 208.399208 
z
" style="fill:#aeccdb;stroke:#3f3f3f;stroke-linejoin:miter;stroke-width:2.25;"/>
   </g>
   <g id="patch_4">
    <path clip-path="url(#pcbf975c6a6)" d="M 158.448 197.051277 
L 182.752 197.051277 
L 182.752 150.099502 
L 158.448 150.099502 
L 158.448 197.051277 
z
" style="fill:#aeccdb;stroke:#3f3f3f;stroke-linejoin:miter;stroke-width:2.25;"/>
   </g>
   <g id="patch_5">
    <path clip-path="url(#pcbf975c6a6)" d="M 183.248 113.210682 
L 207.552 113.210682 
L 207.552 113.210682 
L 183.248 113.210682 
L 183.248 113.210682 
z
" style="fill:#3274a1;stroke:#3f3f3f;stroke-linejoin:miter;stroke-width:2.25;"/>
   </g>
   <g id="patch_6">
    <path clip-path="url(#pcbf975c6a6)" d="M 220.448 179.172749 
L 244.752 179.172749 
L 244.752 139.630445 
L 220.448 139.630445 
L 220.448 179.172749 
z
" style="fill:#aeccdb;stroke:#3f3f3f;stroke-linejoin:miter;stroke-width:2.25;"/>
   </g>
   <g id="patch_7">
    <path clip-path="url(#pcbf975c6a6)" d="M 245.248 103.110168 
L 269.552 103.110168 
L 269.552 98.305644 
L 245.248 98.305644 
L 245.248 103.110168 
z
" style="fill:#3274a1;stroke:#3f3f3f;stroke-linejoin:miter;stroke-width:2.25;"/>
   </g>
   <g id="patch_8">
    <path clip-path="url(#pcbf975c6a6)" d="M 282.448 172.910843 
L 306.752 172.910843 
L 306.752 132.899513 
L 282.448 132.899513 
L 282.448 172.910843 
z
" style="fill:#aeccdb;stroke:#3f3f3f;stroke-linejoin:miter;stroke-width:2.25;"/>
   </g>
   <g id="patch_9">
    <path clip-path="url(#pcbf975c6a6)" d="M 307.248 105.026214 
L 331.552 105.026214 
L 331.552 92.07062 
L 307.248 92.07062 
L 307.248 105.026214 
z
" style="fill:#3274a1;stroke:#3f3f3f;stroke-linejoin:miter;stroke-width:2.25;"/>
   </g>
   <g id="patch_10">
    <path clip-path="url(#pcbf975c6a6)" d="M 344.448 161.168967 
L 368.752 161.168967 
L 368.752 119.667521 
L 344.448 119.667521 
L 344.448 161.168967 
z
" style="fill:#aeccdb;stroke:#3f3f3f;stroke-linejoin:miter;stroke-width:2.25;"/>
   </g>
   <g id="patch_11">
    <path clip-path="url(#pcbf975c6a6)" d="M 369.248 115.851989 
L 393.552 115.851989 
L 393.552 94.969971 
L 369.248 94.969971 
L 369.248 115.851989 
z
" style="fill:#3274a1;stroke:#3f3f3f;stroke-linejoin:miter;stroke-width:2.25;"/>
   </g>
   <g id="patch_12">
    <path clip-path="url(#pcbf975c6a6)" d="M 406.448 150.474579 
L 430.752 150.474579 
L 430.752 113.321554 
L 406.448 113.321554 
L 406.448 150.474579 
z
" style="fill:#aeccdb;stroke:#3f3f3f;stroke-linejoin:miter;stroke-width:2.25;"/>
   </g>
   <g id="patch_13">
    <path clip-path="url(#pcbf975c6a6)" d="M 431.248 109.275369 
L 455.552 109.275369 
L 455.552 87.990496 
L 431.248 87.990496 
L 431.248 109.275369 
z
" style="fill:#3274a1;stroke:#3f3f3f;stroke-linejoin:miter;stroke-width:2.25;"/>
   </g>
   <g id="patch_14">
    <path clip-path="url(#pcbf975c6a6)" d="M 468.448 150.777666 
L 492.752 150.777666 
L 492.752 110.134622 
L 468.448 110.134622 
L 468.448 150.777666 
z
" style="fill:#aeccdb;stroke:#3f3f3f;stroke-linejoin:miter;stroke-width:2.25;"/>
   </g>
   <g id="patch_15">
    <path clip-path="url(#pcbf975c6a6)" d="M 493.248 104.263258 
L 517.552 104.263258 
L 517.552 85.655255 
L 493.248 85.655255 
L 493.248 104.263258 
z
" style="fill:#3274a1;stroke:#3f3f3f;stroke-linejoin:miter;stroke-width:2.25;"/>
   </g>
   <g id="patch_16">
    <path clip-path="url(#pcbf975c6a6)" d="M 530.448 155.676795 
L 554.752 155.676795 
L 554.752 108.28956 
L 530.448 108.28956 
L 530.448 155.676795 
z
" style="fill:#aeccdb;stroke:#3f3f3f;stroke-linejoin:miter;stroke-width:2.25;"/>
   </g>
   <g id="patch_17">
    <path clip-path="url(#pcbf975c6a6)" d="M 555.248 101.659632 
L 579.552 101.659632 
L 579.552 84.879152 
L 555.248 84.879152 
L 555.248 101.659632 
z
" style="fill:#3274a1;stroke:#3f3f3f;stroke-linejoin:miter;stroke-width:2.25;"/>
   </g>
   <g id="patch_18">
    <path clip-path="url(#pcbf975c6a6)" d="M 592.448 138.51063 
L 616.752 138.51063 
L 616.752 97.516338 
L 592.448 97.516338 
L 592.448 138.51063 
z
" style="fill:#aeccdb;stroke:#3f3f3f;stroke-linejoin:miter;stroke-width:2.25;"/>
   </g>
   <g id="patch_19">
    <path clip-path="url(#pcbf975c6a6)" d="M 617.248 95.307473 
L 641.552 95.307473 
L 641.552 80.864809 
L 617.248 80.864809 
L 617.248 95.307473 
z
" style="fill:#3274a1;stroke:#3f3f3f;stroke-linejoin:miter;stroke-width:2.25;"/>
   </g>
   <g id="patch_20">
    <path clip-path="url(#pcbf975c6a6)" d="M 121 342.652615 
L 121 342.652615 
L 121 342.652615 
L 121 342.652615 
z
" style="fill:#aeccdb;stroke:#3f3f3f;stroke-linejoin:miter;stroke-width:1.125;"/>
   </g>
   <g id="patch_21">
    <path clip-path="url(#pcbf975c6a6)" d="M 121 342.652615 
L 121 342.652615 
L 121 342.652615 
L 121 342.652615 
z
" style="fill:#3274a1;stroke:#3f3f3f;stroke-linejoin:miter;stroke-width:1.125;"/>
   </g>
   <g id="line2d_1">
    <path clip-path="url(#pcbf975c6a6)" d="M 108.6 208.399208 
L 108.6 215.64208 
" style="fill:none;stroke:#3f3f3f;stroke-linecap:round;stroke-width:2.25;"/>
   </g>
   <g id="line2d_2">
    <path clip-path="url(#pcbf975c6a6)" d="M 108.6 179.138731 
L 108.6 157.755138 
" style="fill:none;stroke:#3f3f3f;stroke-linecap:round;stroke-width:2.25;"/>
   </g>
   <g id="line2d_3">
    <path clip-path="url(#pcbf975c6a6)" d="M 102.524 215.64208 
L 114.676 215.64208 
" style="fill:none;stroke:#3f3f3f;stroke-linecap:round;stroke-width:2.25;"/>
   </g>
   <g id="line2d_4">
    <path clip-path="url(#pcbf975c6a6)" d="M 102.524 157.755138 
L 114.676 157.755138 
" style="fill:none;stroke:#3f3f3f;stroke-linecap:round;stroke-width:2.25;"/>
   </g>
   <g id="line2d_5"/>
   <g id="line2d_6">
    <path clip-path="url(#pcbf975c6a6)" d="M 170.6 197.051277 
L 170.6 256.446265 
" style="fill:none;stroke:#3f3f3f;stroke-linecap:round;stroke-width:2.25;"/>
   </g>
   <g id="line2d_7">
    <path clip-path="url(#pcbf975c6a6)" d="M 170.6 150.099502 
L 170.6 119.866858 
" style="fill:none;stroke:#3f3f3f;stroke-linecap:round;stroke-width:2.25;"/>
   </g>
   <g id="line2d_8">
    <path clip-path="url(#pcbf975c6a6)" d="M 164.524 256.446265 
L 176.676 256.446265 
" style="fill:none;stroke:#3f3f3f;stroke-linecap:round;stroke-width:2.25;"/>
   </g>
   <g id="line2d_9">
    <path clip-path="url(#pcbf975c6a6)" d="M 164.524 119.866858 
L 176.676 119.866858 
" style="fill:none;stroke:#3f3f3f;stroke-linecap:round;stroke-width:2.25;"/>
   </g>
   <g id="line2d_10">
    <defs>
     <path d="M 0 3.535534 
L 2.12132 0 
L 0 -3.535534 
L -2.12132 0 
z
" id="m316cf79c6d" style="stroke:#3f3f3f;stroke-linejoin:miter;"/>
    </defs>
    <g clip-path="url(#pcbf975c6a6)">
     <use style="fill:#3f3f3f;stroke:#3f3f3f;stroke-linejoin:miter;" x="170.6" xlink:href="#m316cf79c6d" y="297.179926"/>
    </g>
   </g>
   <g id="line2d_11">
    <path clip-path="url(#pcbf975c6a6)" d="M 195.4 113.210682 
L 195.4 113.210682 
" style="fill:none;stroke:#3f3f3f;stroke-linecap:round;stroke-width:2.25;"/>
   </g>
   <g id="line2d_12">
    <path clip-path="url(#pcbf975c6a6)" d="M 195.4 113.210682 
L 195.4 113.210682 
" style="fill:none;stroke:#3f3f3f;stroke-linecap:round;stroke-width:2.25;"/>
   </g>
   <g id="line2d_13">
    <path clip-path="url(#pcbf975c6a6)" d="M 189.324 113.210682 
L 201.476 113.210682 
" style="fill:none;stroke:#3f3f3f;stroke-linecap:round;stroke-width:2.25;"/>
   </g>
   <g id="line2d_14">
    <path clip-path="url(#pcbf975c6a6)" d="M 189.324 113.210682 
L 201.476 113.210682 
" style="fill:none;stroke:#3f3f3f;stroke-linecap:round;stroke-width:2.25;"/>
   </g>
   <g id="line2d_15"/>
   <g id="line2d_16">
    <path clip-path="url(#pcbf975c6a6)" d="M 232.6 179.172749 
L 232.6 221.200154 
" style="fill:none;stroke:#3f3f3f;stroke-linecap:round;stroke-width:2.25;"/>
   </g>
   <g id="line2d_17">
    <path clip-path="url(#pcbf975c6a6)" d="M 232.6 139.630445 
L 232.6 104.702571 
" style="fill:none;stroke:#3f3f3f;stroke-linecap:round;stroke-width:2.25;"/>
   </g>
   <g id="line2d_18">
    <path clip-path="url(#pcbf975c6a6)" d="M 226.524 221.200154 
L 238.676 221.200154 
" style="fill:none;stroke:#3f3f3f;stroke-linecap:round;stroke-width:2.25;"/>
   </g>
   <g id="line2d_19">
    <path clip-path="url(#pcbf975c6a6)" d="M 226.524 104.702571 
L 238.676 104.702571 
" style="fill:none;stroke:#3f3f3f;stroke-linecap:round;stroke-width:2.25;"/>
   </g>
   <g id="line2d_20">
    <g clip-path="url(#pcbf975c6a6)">
     <use style="fill:#3f3f3f;stroke:#3f3f3f;stroke-linejoin:miter;" x="232.6" xlink:href="#m316cf79c6d" y="238.503346"/>
     <use style="fill:#3f3f3f;stroke:#3f3f3f;stroke-linejoin:miter;" x="232.6" xlink:href="#m316cf79c6d" y="257.986438"/>
     <use style="fill:#3f3f3f;stroke:#3f3f3f;stroke-linejoin:miter;" x="232.6" xlink:href="#m316cf79c6d" y="348.757539"/>
    </g>
   </g>
   <g id="line2d_21">
    <path clip-path="url(#pcbf975c6a6)" d="M 257.4 103.110168 
L 257.4 105.512431 
" style="fill:none;stroke:#3f3f3f;stroke-linecap:round;stroke-width:2.25;"/>
   </g>
   <g id="line2d_22">
    <path clip-path="url(#pcbf975c6a6)" d="M 257.4 98.305644 
L 257.4 95.903382 
" style="fill:none;stroke:#3f3f3f;stroke-linecap:round;stroke-width:2.25;"/>
   </g>
   <g id="line2d_23">
    <path clip-path="url(#pcbf975c6a6)" d="M 251.324 105.512431 
L 263.476 105.512431 
" style="fill:none;stroke:#3f3f3f;stroke-linecap:round;stroke-width:2.25;"/>
   </g>
   <g id="line2d_24">
    <path clip-path="url(#pcbf975c6a6)" d="M 251.324 95.903382 
L 263.476 95.903382 
" style="fill:none;stroke:#3f3f3f;stroke-linecap:round;stroke-width:2.25;"/>
   </g>
   <g id="line2d_25"/>
   <g id="line2d_26">
    <path clip-path="url(#pcbf975c6a6)" d="M 294.6 172.910843 
L 294.6 227.881115 
" style="fill:none;stroke:#3f3f3f;stroke-linecap:round;stroke-width:2.25;"/>
   </g>
   <g id="line2d_27">
    <path clip-path="url(#pcbf975c6a6)" d="M 294.6 132.899513 
L 294.6 90.420251 
" style="fill:none;stroke:#3f3f3f;stroke-linecap:round;stroke-width:2.25;"/>
   </g>
   <g id="line2d_28">
    <path clip-path="url(#pcbf975c6a6)" d="M 288.524 227.881115 
L 300.676 227.881115 
" style="fill:none;stroke:#3f3f3f;stroke-linecap:round;stroke-width:2.25;"/>
   </g>
   <g id="line2d_29">
    <path clip-path="url(#pcbf975c6a6)" d="M 288.524 90.420251 
L 300.676 90.420251 
" style="fill:none;stroke:#3f3f3f;stroke-linecap:round;stroke-width:2.25;"/>
   </g>
   <g id="line2d_30">
    <g clip-path="url(#pcbf975c6a6)">
     <use style="fill:#3f3f3f;stroke:#3f3f3f;stroke-linejoin:miter;" x="294.6" xlink:href="#m316cf79c6d" y="233.26014"/>
     <use style="fill:#3f3f3f;stroke:#3f3f3f;stroke-linejoin:miter;" x="294.6" xlink:href="#m316cf79c6d" y="261.485928"/>
    </g>
   </g>
   <g id="line2d_31">
    <path clip-path="url(#pcbf975c6a6)" d="M 319.4 105.026214 
L 319.4 115.461531 
" style="fill:none;stroke:#3f3f3f;stroke-linecap:round;stroke-width:2.25;"/>
   </g>
   <g id="line2d_32">
    <path clip-path="url(#pcbf975c6a6)" d="M 319.4 92.07062 
L 319.4 80.903681 
" style="fill:none;stroke:#3f3f3f;stroke-linecap:round;stroke-width:2.25;"/>
   </g>
   <g id="line2d_33">
    <path clip-path="url(#pcbf975c6a6)" d="M 313.324 115.461531 
L 325.476 115.461531 
" style="fill:none;stroke:#3f3f3f;stroke-linecap:round;stroke-width:2.25;"/>
   </g>
   <g id="line2d_34">
    <path clip-path="url(#pcbf975c6a6)" d="M 313.324 80.903681 
L 325.476 80.903681 
" style="fill:none;stroke:#3f3f3f;stroke-linecap:round;stroke-width:2.25;"/>
   </g>
   <g id="line2d_35">
    <g clip-path="url(#pcbf975c6a6)">
     <use style="fill:#3f3f3f;stroke:#3f3f3f;stroke-linejoin:miter;" x="319.4" xlink:href="#m316cf79c6d" y="145.598186"/>
     <use style="fill:#3f3f3f;stroke:#3f3f3f;stroke-linejoin:miter;" x="319.4" xlink:href="#m316cf79c6d" y="172.105351"/>
    </g>
   </g>
   <g id="line2d_36">
    <path clip-path="url(#pcbf975c6a6)" d="M 356.6 161.168967 
L 356.6 219.569104 
" style="fill:none;stroke:#3f3f3f;stroke-linecap:round;stroke-width:2.25;"/>
   </g>
   <g id="line2d_37">
    <path clip-path="url(#pcbf975c6a6)" d="M 356.6 119.667521 
L 356.6 86.988355 
" style="fill:none;stroke:#3f3f3f;stroke-linecap:round;stroke-width:2.25;"/>
   </g>
   <g id="line2d_38">
    <path clip-path="url(#pcbf975c6a6)" d="M 350.524 219.569104 
L 362.676 219.569104 
" style="fill:none;stroke:#3f3f3f;stroke-linecap:round;stroke-width:2.25;"/>
   </g>
   <g id="line2d_39">
    <path clip-path="url(#pcbf975c6a6)" d="M 350.524 86.988355 
L 362.676 86.988355 
" style="fill:none;stroke:#3f3f3f;stroke-linecap:round;stroke-width:2.25;"/>
   </g>
   <g id="line2d_40">
    <g clip-path="url(#pcbf975c6a6)">
     <use style="fill:#3f3f3f;stroke:#3f3f3f;stroke-linejoin:miter;" x="356.6" xlink:href="#m316cf79c6d" y="232.54433"/>
     <use style="fill:#3f3f3f;stroke:#3f3f3f;stroke-linejoin:miter;" x="356.6" xlink:href="#m316cf79c6d" y="238.32087"/>
     <use style="fill:#3f3f3f;stroke:#3f3f3f;stroke-linejoin:miter;" x="356.6" xlink:href="#m316cf79c6d" y="233.523608"/>
     <use style="fill:#3f3f3f;stroke:#3f3f3f;stroke-linejoin:miter;" x="356.6" xlink:href="#m316cf79c6d" y="223.427572"/>
     <use style="fill:#3f3f3f;stroke:#3f3f3f;stroke-linejoin:miter;" x="356.6" xlink:href="#m316cf79c6d" y="264.69099"/>
    </g>
   </g>
   <g id="line2d_41">
    <path clip-path="url(#pcbf975c6a6)" d="M 381.4 115.851989 
L 381.4 121.068571 
" style="fill:none;stroke:#3f3f3f;stroke-linecap:round;stroke-width:2.25;"/>
   </g>
   <g id="line2d_42">
    <path clip-path="url(#pcbf975c6a6)" d="M 381.4 94.969971 
L 381.4 85.260329 
" style="fill:none;stroke:#3f3f3f;stroke-linecap:round;stroke-width:2.25;"/>
   </g>
   <g id="line2d_43">
    <path clip-path="url(#pcbf975c6a6)" d="M 375.324 121.068571 
L 387.476 121.068571 
" style="fill:none;stroke:#3f3f3f;stroke-linecap:round;stroke-width:2.25;"/>
   </g>
   <g id="line2d_44">
    <path clip-path="url(#pcbf975c6a6)" d="M 375.324 85.260329 
L 387.476 85.260329 
" style="fill:none;stroke:#3f3f3f;stroke-linecap:round;stroke-width:2.25;"/>
   </g>
   <g id="line2d_45">
    <g clip-path="url(#pcbf975c6a6)">
     <use style="fill:#3f3f3f;stroke:#3f3f3f;stroke-linejoin:miter;" x="381.4" xlink:href="#m316cf79c6d" y="197.173595"/>
     <use style="fill:#3f3f3f;stroke:#3f3f3f;stroke-linejoin:miter;" x="381.4" xlink:href="#m316cf79c6d" y="151.020607"/>
     <use style="fill:#3f3f3f;stroke:#3f3f3f;stroke-linejoin:miter;" x="381.4" xlink:href="#m316cf79c6d" y="213.403916"/>
    </g>
   </g>
   <g id="line2d_46">
    <path clip-path="url(#pcbf975c6a6)" d="M 418.6 150.474579 
L 418.6 196.482875 
" style="fill:none;stroke:#3f3f3f;stroke-linecap:round;stroke-width:2.25;"/>
   </g>
   <g id="line2d_47">
    <path clip-path="url(#pcbf975c6a6)" d="M 418.6 113.321554 
L 418.6 85.764104 
" style="fill:none;stroke:#3f3f3f;stroke-linecap:round;stroke-width:2.25;"/>
   </g>
   <g id="line2d_48">
    <path clip-path="url(#pcbf975c6a6)" d="M 412.524 196.482875 
L 424.676 196.482875 
" style="fill:none;stroke:#3f3f3f;stroke-linecap:round;stroke-width:2.25;"/>
   </g>
   <g id="line2d_49">
    <path clip-path="url(#pcbf975c6a6)" d="M 412.524 85.764104 
L 424.676 85.764104 
" style="fill:none;stroke:#3f3f3f;stroke-linecap:round;stroke-width:2.25;"/>
   </g>
   <g id="line2d_50">
    <g clip-path="url(#pcbf975c6a6)">
     <use style="fill:#3f3f3f;stroke:#3f3f3f;stroke-linejoin:miter;" x="418.6" xlink:href="#m316cf79c6d" y="223.116617"/>
     <use style="fill:#3f3f3f;stroke:#3f3f3f;stroke-linejoin:miter;" x="418.6" xlink:href="#m316cf79c6d" y="207.344848"/>
     <use style="fill:#3f3f3f;stroke:#3f3f3f;stroke-linejoin:miter;" x="418.6" xlink:href="#m316cf79c6d" y="283.844212"/>
     <use style="fill:#3f3f3f;stroke:#3f3f3f;stroke-linejoin:miter;" x="418.6" xlink:href="#m316cf79c6d" y="253.551011"/>
     <use style="fill:#3f3f3f;stroke:#3f3f3f;stroke-linejoin:miter;" x="418.6" xlink:href="#m316cf79c6d" y="218.601876"/>
    </g>
   </g>
   <g id="line2d_51">
    <path clip-path="url(#pcbf975c6a6)" d="M 443.4 109.275369 
L 443.4 127.561359 
" style="fill:none;stroke:#3f3f3f;stroke-linecap:round;stroke-width:2.25;"/>
   </g>
   <g id="line2d_52">
    <path clip-path="url(#pcbf975c6a6)" d="M 443.4 87.990496 
L 443.4 69.230065 
" style="fill:none;stroke:#3f3f3f;stroke-linecap:round;stroke-width:2.25;"/>
   </g>
   <g id="line2d_53">
    <path clip-path="url(#pcbf975c6a6)" d="M 437.324 127.561359 
L 449.476 127.561359 
" style="fill:none;stroke:#3f3f3f;stroke-linecap:round;stroke-width:2.25;"/>
   </g>
   <g id="line2d_54">
    <path clip-path="url(#pcbf975c6a6)" d="M 437.324 69.230065 
L 449.476 69.230065 
" style="fill:none;stroke:#3f3f3f;stroke-linecap:round;stroke-width:2.25;"/>
   </g>
   <g id="line2d_55">
    <g clip-path="url(#pcbf975c6a6)">
     <use style="fill:#3f3f3f;stroke:#3f3f3f;stroke-linejoin:miter;" x="443.4" xlink:href="#m316cf79c6d" y="176.394436"/>
     <use style="fill:#3f3f3f;stroke:#3f3f3f;stroke-linejoin:miter;" x="443.4" xlink:href="#m316cf79c6d" y="186.637292"/>
     <use style="fill:#3f3f3f;stroke:#3f3f3f;stroke-linejoin:miter;" x="443.4" xlink:href="#m316cf79c6d" y="197.840258"/>
     <use style="fill:#3f3f3f;stroke:#3f3f3f;stroke-linejoin:miter;" x="443.4" xlink:href="#m316cf79c6d" y="146.03933"/>
     <use style="fill:#3f3f3f;stroke:#3f3f3f;stroke-linejoin:miter;" x="443.4" xlink:href="#m316cf79c6d" y="151.530525"/>
     <use style="fill:#3f3f3f;stroke:#3f3f3f;stroke-linejoin:miter;" x="443.4" xlink:href="#m316cf79c6d" y="141.245202"/>
    </g>
   </g>
   <g id="line2d_56">
    <path clip-path="url(#pcbf975c6a6)" d="M 480.6 150.777666 
L 480.6 179.474865 
" style="fill:none;stroke:#3f3f3f;stroke-linecap:round;stroke-width:2.25;"/>
   </g>
   <g id="line2d_57">
    <path clip-path="url(#pcbf975c6a6)" d="M 480.6 110.134622 
L 480.6 86.604085 
" style="fill:none;stroke:#3f3f3f;stroke-linecap:round;stroke-width:2.25;"/>
   </g>
   <g id="line2d_58">
    <path clip-path="url(#pcbf975c6a6)" d="M 474.524 179.474865 
L 486.676 179.474865 
" style="fill:none;stroke:#3f3f3f;stroke-linecap:round;stroke-width:2.25;"/>
   </g>
   <g id="line2d_59">
    <path clip-path="url(#pcbf975c6a6)" d="M 474.524 86.604085 
L 486.676 86.604085 
" style="fill:none;stroke:#3f3f3f;stroke-linecap:round;stroke-width:2.25;"/>
   </g>
   <g id="line2d_60">
    <g clip-path="url(#pcbf975c6a6)">
     <use style="fill:#3f3f3f;stroke:#3f3f3f;stroke-linejoin:miter;" x="480.6" xlink:href="#m316cf79c6d" y="218.499016"/>
    </g>
   </g>
   <g id="line2d_61">
    <path clip-path="url(#pcbf975c6a6)" d="M 505.4 104.263258 
L 505.4 129.381145 
" style="fill:none;stroke:#3f3f3f;stroke-linecap:round;stroke-width:2.25;"/>
   </g>
   <g id="line2d_62">
    <path clip-path="url(#pcbf975c6a6)" d="M 505.4 85.655255 
L 505.4 73.798457 
" style="fill:none;stroke:#3f3f3f;stroke-linecap:round;stroke-width:2.25;"/>
   </g>
   <g id="line2d_63">
    <path clip-path="url(#pcbf975c6a6)" d="M 499.324 129.381145 
L 511.476 129.381145 
" style="fill:none;stroke:#3f3f3f;stroke-linecap:round;stroke-width:2.25;"/>
   </g>
   <g id="line2d_64">
    <path clip-path="url(#pcbf975c6a6)" d="M 499.324 73.798457 
L 511.476 73.798457 
" style="fill:none;stroke:#3f3f3f;stroke-linecap:round;stroke-width:2.25;"/>
   </g>
   <g id="line2d_65">
    <g clip-path="url(#pcbf975c6a6)">
     <use style="fill:#3f3f3f;stroke:#3f3f3f;stroke-linejoin:miter;" x="505.4" xlink:href="#m316cf79c6d" y="136.884549"/>
     <use style="fill:#3f3f3f;stroke:#3f3f3f;stroke-linejoin:miter;" x="505.4" xlink:href="#m316cf79c6d" y="205.212028"/>
     <use style="fill:#3f3f3f;stroke:#3f3f3f;stroke-linejoin:miter;" x="505.4" xlink:href="#m316cf79c6d" y="150.896633"/>
     <use style="fill:#3f3f3f;stroke:#3f3f3f;stroke-linejoin:miter;" x="505.4" xlink:href="#m316cf79c6d" y="139.638257"/>
     <use style="fill:#3f3f3f;stroke:#3f3f3f;stroke-linejoin:miter;" x="505.4" xlink:href="#m316cf79c6d" y="173.663136"/>
     <use style="fill:#3f3f3f;stroke:#3f3f3f;stroke-linejoin:miter;" x="505.4" xlink:href="#m316cf79c6d" y="132.576047"/>
    </g>
   </g>
   <g id="line2d_66">
    <path clip-path="url(#pcbf975c6a6)" d="M 542.6 155.676795 
L 542.6 179.068131 
" style="fill:none;stroke:#3f3f3f;stroke-linecap:round;stroke-width:2.25;"/>
   </g>
   <g id="line2d_67">
    <path clip-path="url(#pcbf975c6a6)" d="M 542.6 108.28956 
L 542.6 88.207974 
" style="fill:none;stroke:#3f3f3f;stroke-linecap:round;stroke-width:2.25;"/>
   </g>
   <g id="line2d_68">
    <path clip-path="url(#pcbf975c6a6)" d="M 536.524 179.068131 
L 548.676 179.068131 
" style="fill:none;stroke:#3f3f3f;stroke-linecap:round;stroke-width:2.25;"/>
   </g>
   <g id="line2d_69">
    <path clip-path="url(#pcbf975c6a6)" d="M 536.524 88.207974 
L 548.676 88.207974 
" style="fill:none;stroke:#3f3f3f;stroke-linecap:round;stroke-width:2.25;"/>
   </g>
   <g id="line2d_70"/>
   <g id="line2d_71">
    <path clip-path="url(#pcbf975c6a6)" d="M 567.4 101.659632 
L 567.4 126.688769 
" style="fill:none;stroke:#3f3f3f;stroke-linecap:round;stroke-width:2.25;"/>
   </g>
   <g id="line2d_72">
    <path clip-path="url(#pcbf975c6a6)" d="M 567.4 84.879152 
L 567.4 66.665455 
" style="fill:none;stroke:#3f3f3f;stroke-linecap:round;stroke-width:2.25;"/>
   </g>
   <g id="line2d_73">
    <path clip-path="url(#pcbf975c6a6)" d="M 561.324 126.688769 
L 573.476 126.688769 
" style="fill:none;stroke:#3f3f3f;stroke-linecap:round;stroke-width:2.25;"/>
   </g>
   <g id="line2d_74">
    <path clip-path="url(#pcbf975c6a6)" d="M 561.324 66.665455 
L 573.476 66.665455 
" style="fill:none;stroke:#3f3f3f;stroke-linecap:round;stroke-width:2.25;"/>
   </g>
   <g id="line2d_75">
    <g clip-path="url(#pcbf975c6a6)">
     <use style="fill:#3f3f3f;stroke:#3f3f3f;stroke-linejoin:miter;" x="567.4" xlink:href="#m316cf79c6d" y="127.773561"/>
     <use style="fill:#3f3f3f;stroke:#3f3f3f;stroke-linejoin:miter;" x="567.4" xlink:href="#m316cf79c6d" y="363.174545"/>
     <use style="fill:#3f3f3f;stroke:#3f3f3f;stroke-linejoin:miter;" x="567.4" xlink:href="#m316cf79c6d" y="131.307407"/>
     <use style="fill:#3f3f3f;stroke:#3f3f3f;stroke-linejoin:miter;" x="567.4" xlink:href="#m316cf79c6d" y="128.848891"/>
     <use style="fill:#3f3f3f;stroke:#3f3f3f;stroke-linejoin:miter;" x="567.4" xlink:href="#m316cf79c6d" y="146.078691"/>
     <use style="fill:#3f3f3f;stroke:#3f3f3f;stroke-linejoin:miter;" x="567.4" xlink:href="#m316cf79c6d" y="151.844953"/>
     <use style="fill:#3f3f3f;stroke:#3f3f3f;stroke-linejoin:miter;" x="567.4" xlink:href="#m316cf79c6d" y="138.222708"/>
     <use style="fill:#3f3f3f;stroke:#3f3f3f;stroke-linejoin:miter;" x="567.4" xlink:href="#m316cf79c6d" y="161.829358"/>
     <use style="fill:#3f3f3f;stroke:#3f3f3f;stroke-linejoin:miter;" x="567.4" xlink:href="#m316cf79c6d" y="134.887009"/>
    </g>
   </g>
   <g id="line2d_76">
    <path clip-path="url(#pcbf975c6a6)" d="M 604.6 138.51063 
L 604.6 150.955487 
" style="fill:none;stroke:#3f3f3f;stroke-linecap:round;stroke-width:2.25;"/>
   </g>
   <g id="line2d_77">
    <path clip-path="url(#pcbf975c6a6)" d="M 604.6 97.516338 
L 604.6 89.039295 
" style="fill:none;stroke:#3f3f3f;stroke-linecap:round;stroke-width:2.25;"/>
   </g>
   <g id="line2d_78">
    <path clip-path="url(#pcbf975c6a6)" d="M 598.524 150.955487 
L 610.676 150.955487 
" style="fill:none;stroke:#3f3f3f;stroke-linecap:round;stroke-width:2.25;"/>
   </g>
   <g id="line2d_79">
    <path clip-path="url(#pcbf975c6a6)" d="M 598.524 89.039295 
L 610.676 89.039295 
" style="fill:none;stroke:#3f3f3f;stroke-linecap:round;stroke-width:2.25;"/>
   </g>
   <g id="line2d_80"/>
   <g id="line2d_81">
    <path clip-path="url(#pcbf975c6a6)" d="M 629.4 95.307473 
L 629.4 116.550744 
" style="fill:none;stroke:#3f3f3f;stroke-linecap:round;stroke-width:2.25;"/>
   </g>
   <g id="line2d_82">
    <path clip-path="url(#pcbf975c6a6)" d="M 629.4 80.864809 
L 629.4 67.97854 
" style="fill:none;stroke:#3f3f3f;stroke-linecap:round;stroke-width:2.25;"/>
   </g>
   <g id="line2d_83">
    <path clip-path="url(#pcbf975c6a6)" d="M 623.324 116.550744 
L 635.476 116.550744 
" style="fill:none;stroke:#3f3f3f;stroke-linecap:round;stroke-width:2.25;"/>
   </g>
   <g id="line2d_84">
    <path clip-path="url(#pcbf975c6a6)" d="M 623.324 67.97854 
L 635.476 67.97854 
" style="fill:none;stroke:#3f3f3f;stroke-linecap:round;stroke-width:2.25;"/>
   </g>
   <g id="line2d_85">
    <g clip-path="url(#pcbf975c6a6)">
     <use style="fill:#3f3f3f;stroke:#3f3f3f;stroke-linejoin:miter;" x="629.4" xlink:href="#m316cf79c6d" y="144.610276"/>
     <use style="fill:#3f3f3f;stroke:#3f3f3f;stroke-linejoin:miter;" x="629.4" xlink:href="#m316cf79c6d" y="197.92274"/>
     <use style="fill:#3f3f3f;stroke:#3f3f3f;stroke-linejoin:miter;" x="629.4" xlink:href="#m316cf79c6d" y="119.329391"/>
     <use style="fill:#3f3f3f;stroke:#3f3f3f;stroke-linejoin:miter;" x="629.4" xlink:href="#m316cf79c6d" y="121.566713"/>
     <use style="fill:#3f3f3f;stroke:#3f3f3f;stroke-linejoin:miter;" x="629.4" xlink:href="#m316cf79c6d" y="150.563613"/>
     <use style="fill:#3f3f3f;stroke:#3f3f3f;stroke-linejoin:miter;" x="629.4" xlink:href="#m316cf79c6d" y="118.519796"/>
     <use style="fill:#3f3f3f;stroke:#3f3f3f;stroke-linejoin:miter;" x="629.4" xlink:href="#m316cf79c6d" y="171.249318"/>
     <use style="fill:#3f3f3f;stroke:#3f3f3f;stroke-linejoin:miter;" x="629.4" xlink:href="#m316cf79c6d" y="120.825381"/>
     <use style="fill:#3f3f3f;stroke:#3f3f3f;stroke-linejoin:miter;" x="629.4" xlink:href="#m316cf79c6d" y="125.641683"/>
    </g>
   </g>
   <g id="line2d_86">
    <path clip-path="url(#pcbf975c6a6)" d="M 96.448 187.494642 
L 120.752 187.494642 
" style="fill:none;stroke:#3f3f3f;stroke-linecap:round;stroke-width:2.25;"/>
   </g>
   <g id="line2d_87">
    <path clip-path="url(#pcbf975c6a6)" d="M 158.448 172.398448 
L 182.752 172.398448 
" style="fill:none;stroke:#3f3f3f;stroke-linecap:round;stroke-width:2.25;"/>
   </g>
   <g id="line2d_88">
    <path clip-path="url(#pcbf975c6a6)" d="M 183.248 113.210682 
L 207.552 113.210682 
" style="fill:none;stroke:#3f3f3f;stroke-linecap:round;stroke-width:2.25;"/>
   </g>
   <g id="line2d_89">
    <path clip-path="url(#pcbf975c6a6)" d="M 220.448 154.424828 
L 244.752 154.424828 
" style="fill:none;stroke:#3f3f3f;stroke-linecap:round;stroke-width:2.25;"/>
   </g>
   <g id="line2d_90">
    <path clip-path="url(#pcbf975c6a6)" d="M 245.248 100.707906 
L 269.552 100.707906 
" style="fill:none;stroke:#3f3f3f;stroke-linecap:round;stroke-width:2.25;"/>
   </g>
   <g id="line2d_91">
    <path clip-path="url(#pcbf975c6a6)" d="M 282.448 148.736842 
L 306.752 148.736842 
" style="fill:none;stroke:#3f3f3f;stroke-linecap:round;stroke-width:2.25;"/>
   </g>
   <g id="line2d_92">
    <path clip-path="url(#pcbf975c6a6)" d="M 307.248 102.349443 
L 331.552 102.349443 
" style="fill:none;stroke:#3f3f3f;stroke-linecap:round;stroke-width:2.25;"/>
   </g>
   <g id="line2d_93">
    <path clip-path="url(#pcbf975c6a6)" d="M 344.448 136.645179 
L 368.752 136.645179 
" style="fill:none;stroke:#3f3f3f;stroke-linecap:round;stroke-width:2.25;"/>
   </g>
   <g id="line2d_94">
    <path clip-path="url(#pcbf975c6a6)" d="M 369.248 104.195819 
L 393.552 104.195819 
" style="fill:none;stroke:#3f3f3f;stroke-linecap:round;stroke-width:2.25;"/>
   </g>
   <g id="line2d_95">
    <path clip-path="url(#pcbf975c6a6)" d="M 406.448 129.031098 
L 430.752 129.031098 
" style="fill:none;stroke:#3f3f3f;stroke-linecap:round;stroke-width:2.25;"/>
   </g>
   <g id="line2d_96">
    <path clip-path="url(#pcbf975c6a6)" d="M 431.248 97.500333 
L 455.552 97.500333 
" style="fill:none;stroke:#3f3f3f;stroke-linecap:round;stroke-width:2.25;"/>
   </g>
   <g id="line2d_97">
    <path clip-path="url(#pcbf975c6a6)" d="M 468.448 123.82243 
L 492.752 123.82243 
" style="fill:none;stroke:#3f3f3f;stroke-linecap:round;stroke-width:2.25;"/>
   </g>
   <g id="line2d_98">
    <path clip-path="url(#pcbf975c6a6)" d="M 493.248 94.451959 
L 517.552 94.451959 
" style="fill:none;stroke:#3f3f3f;stroke-linecap:round;stroke-width:2.25;"/>
   </g>
   <g id="line2d_99">
    <path clip-path="url(#pcbf975c6a6)" d="M 530.448 126.288658 
L 554.752 126.288658 
" style="fill:none;stroke:#3f3f3f;stroke-linecap:round;stroke-width:2.25;"/>
   </g>
   <g id="line2d_100">
    <path clip-path="url(#pcbf975c6a6)" d="M 555.248 91.323932 
L 579.552 91.323932 
" style="fill:none;stroke:#3f3f3f;stroke-linecap:round;stroke-width:2.25;"/>
   </g>
   <g id="line2d_101">
    <path clip-path="url(#pcbf975c6a6)" d="M 592.448 111.712114 
L 616.752 111.712114 
" style="fill:none;stroke:#3f3f3f;stroke-linecap:round;stroke-width:2.25;"/>
   </g>
   <g id="line2d_102">
    <path clip-path="url(#pcbf975c6a6)" d="M 617.248 86.93267 
L 641.552 86.93267 
" style="fill:none;stroke:#3f3f3f;stroke-linecap:round;stroke-width:2.25;"/>
   </g>
   <g id="patch_22">
    <path d="M 90 378 
L 90 51.84 
" style="fill:none;stroke:#262626;stroke-linecap:square;stroke-linejoin:miter;stroke-width:1.875;"/>
   </g>
   <g id="patch_23">
    <path d="M 90 378 
L 648 378 
" style="fill:none;stroke:#262626;stroke-linecap:square;stroke-linejoin:miter;stroke-width:1.875;"/>
   </g>
   <g id="legend_1">
    <g id="patch_24">
     <path d="M 97 104.62625 
L 179.564063 104.62625 
Q 181.564063 104.62625 181.564063 102.62625 
L 181.564063 58.84 
Q 181.564063 56.84 179.564063 56.84 
L 97 56.84 
Q 95 56.84 95 58.84 
L 95 102.62625 
Q 95 104.62625 97 104.62625 
z
" style="fill:#ffffff;opacity:0.8;stroke:#cccccc;stroke-linejoin:miter;stroke-width:1.5;"/>
    </g>
    <g id="text_17">
     <!-- Control Type -->
     <defs>
      <path d="M 58.796875 25.09375 
L 68.265625 22.703125 
Q 65.28125 11.03125 57.546875 4.90625 
Q 49.8125 -1.21875 38.625 -1.21875 
Q 27.046875 -1.21875 19.796875 3.484375 
Q 12.546875 8.203125 8.765625 17.140625 
Q 4.984375 26.078125 4.984375 36.328125 
Q 4.984375 47.515625 9.25 55.828125 
Q 13.53125 64.15625 21.40625 68.46875 
Q 29.296875 72.796875 38.765625 72.796875 
Q 49.515625 72.796875 56.828125 67.328125 
Q 64.15625 61.859375 67.046875 51.953125 
L 57.71875 49.75 
Q 55.21875 57.5625 50.484375 61.125 
Q 45.75 64.703125 38.578125 64.703125 
Q 30.328125 64.703125 24.78125 60.734375 
Q 19.234375 56.78125 16.984375 50.109375 
Q 14.75 43.453125 14.75 36.375 
Q 14.75 27.25 17.40625 20.4375 
Q 20.0625 13.625 25.671875 10.25 
Q 31.296875 6.890625 37.84375 6.890625 
Q 45.796875 6.890625 51.3125 11.46875 
Q 56.84375 16.0625 58.796875 25.09375 
z
" id="ArialMT-67"/>
      <path d="M 25.78125 7.859375 
L 27.046875 0.09375 
Q 23.34375 -0.6875 20.40625 -0.6875 
Q 15.625 -0.6875 12.984375 0.828125 
Q 10.359375 2.34375 9.28125 4.8125 
Q 8.203125 7.28125 8.203125 15.1875 
L 8.203125 45.015625 
L 1.765625 45.015625 
L 1.765625 51.859375 
L 8.203125 51.859375 
L 8.203125 64.703125 
L 16.9375 69.96875 
L 16.9375 51.859375 
L 25.78125 51.859375 
L 25.78125 45.015625 
L 16.9375 45.015625 
L 16.9375 14.703125 
Q 16.9375 10.9375 17.40625 9.859375 
Q 17.875 8.796875 18.921875 8.15625 
Q 19.96875 7.515625 21.921875 7.515625 
Q 23.390625 7.515625 25.78125 7.859375 
z
" id="ArialMT-116"/>
      <path d="M 6.390625 0 
L 6.390625 71.578125 
L 15.1875 71.578125 
L 15.1875 0 
z
" id="ArialMT-108"/>
      <path d="M 25.921875 0 
L 25.921875 63.140625 
L 2.34375 63.140625 
L 2.34375 71.578125 
L 59.078125 71.578125 
L 59.078125 63.140625 
L 35.40625 63.140625 
L 35.40625 0 
z
" id="ArialMT-84"/>
      <path d="M 6.59375 -19.875 
L 6.59375 51.859375 
L 14.59375 51.859375 
L 14.59375 45.125 
Q 17.4375 49.078125 21 51.046875 
Q 24.5625 53.03125 29.640625 53.03125 
Q 36.28125 53.03125 41.359375 49.609375 
Q 46.4375 46.1875 49.015625 39.953125 
Q 51.609375 33.734375 51.609375 26.3125 
Q 51.609375 18.359375 48.75 11.984375 
Q 45.90625 5.609375 40.453125 2.21875 
Q 35.015625 -1.171875 29 -1.171875 
Q 24.609375 -1.171875 21.109375 0.6875 
Q 17.625 2.546875 15.375 5.375 
L 15.375 -19.875 
z
M 14.546875 25.640625 
Q 14.546875 15.625 18.59375 10.84375 
Q 22.65625 6.0625 28.421875 6.0625 
Q 34.28125 6.0625 38.453125 11.015625 
Q 42.625 15.96875 42.625 26.375 
Q 42.625 36.28125 38.546875 41.203125 
Q 34.46875 46.140625 28.8125 46.140625 
Q 23.1875 46.140625 18.859375 40.890625 
Q 14.546875 35.640625 14.546875 25.640625 
z
" id="ArialMT-112"/>
     </defs>
     <g style="fill:#262626;" transform="translate(104.371719 69.575625)scale(0.12 -0.12)">
      <use xlink:href="#ArialMT-67"/>
      <use x="72.216797" xlink:href="#ArialMT-111"/>
      <use x="127.832031" xlink:href="#ArialMT-110"/>
      <use x="183.447266" xlink:href="#ArialMT-116"/>
      <use x="211.230469" xlink:href="#ArialMT-114"/>
      <use x="244.53125" xlink:href="#ArialMT-111"/>
      <use x="300.146484" xlink:href="#ArialMT-108"/>
      <use x="322.363281" xlink:href="#ArialMT-32"/>
      <use x="348.396484" xlink:href="#ArialMT-84"/>
      <use x="403.980469" xlink:href="#ArialMT-121"/>
      <use x="453.980469" xlink:href="#ArialMT-112"/>
      <use x="509.595703" xlink:href="#ArialMT-101"/>
     </g>
    </g>
    <g id="patch_25">
     <path d="M 99 84.259062 
L 119 84.259062 
L 119 77.259062 
L 99 77.259062 
z
" style="fill:#aeccdb;stroke:#3f3f3f;stroke-linejoin:miter;stroke-width:1.125;"/>
    </g>
    <g id="text_18">
     <!-- Myoelectric -->
     <defs>
      <path d="M 7.421875 0 
L 7.421875 71.578125 
L 21.6875 71.578125 
L 38.625 20.90625 
Q 40.96875 13.8125 42.046875 10.296875 
Q 43.265625 14.203125 45.84375 21.78125 
L 62.984375 71.578125 
L 75.734375 71.578125 
L 75.734375 0 
L 66.609375 0 
L 66.609375 59.90625 
L 45.796875 0 
L 37.25 0 
L 16.546875 60.9375 
L 16.546875 0 
z
" id="ArialMT-77"/>
      <path d="M 6.640625 61.46875 
L 6.640625 71.578125 
L 15.4375 71.578125 
L 15.4375 61.46875 
z
M 6.640625 0 
L 6.640625 51.859375 
L 15.4375 51.859375 
L 15.4375 0 
z
" id="ArialMT-105"/>
     </defs>
     <g style="fill:#262626;" transform="translate(127 84.259062)scale(0.1 -0.1)">
      <use xlink:href="#ArialMT-77"/>
      <use x="83.300781" xlink:href="#ArialMT-121"/>
      <use x="133.300781" xlink:href="#ArialMT-111"/>
      <use x="188.916016" xlink:href="#ArialMT-101"/>
      <use x="244.53125" xlink:href="#ArialMT-108"/>
      <use x="266.748047" xlink:href="#ArialMT-101"/>
      <use x="322.363281" xlink:href="#ArialMT-99"/>
      <use x="372.363281" xlink:href="#ArialMT-116"/>
      <use x="400.146484" xlink:href="#ArialMT-114"/>
      <use x="433.447266" xlink:href="#ArialMT-105"/>
      <use x="455.664062" xlink:href="#ArialMT-99"/>
     </g>
    </g>
    <g id="patch_26">
     <path d="M 99 98.521562 
L 119 98.521562 
L 119 91.521562 
L 99 91.521562 
z
" style="fill:#3274a1;stroke:#3f3f3f;stroke-linejoin:miter;stroke-width:1.125;"/>
    </g>
    <g id="text_19">
     <!-- Joystick -->
     <defs>
      <path d="M 2.875 20.3125 
L 11.421875 21.484375 
Q 11.765625 13.28125 14.5 10.25 
Q 17.234375 7.234375 22.078125 7.234375 
Q 25.640625 7.234375 28.21875 8.859375 
Q 30.8125 10.5 31.78125 13.296875 
Q 32.765625 16.109375 32.765625 22.265625 
L 32.765625 71.578125 
L 42.234375 71.578125 
L 42.234375 22.796875 
Q 42.234375 13.8125 40.0625 8.875 
Q 37.890625 3.953125 33.171875 1.359375 
Q 28.46875 -1.21875 22.125 -1.21875 
Q 12.703125 -1.21875 7.6875 4.203125 
Q 2.6875 9.625 2.875 20.3125 
z
" id="ArialMT-74"/>
      <path d="M 6.640625 0 
L 6.640625 71.578125 
L 15.4375 71.578125 
L 15.4375 30.765625 
L 36.234375 51.859375 
L 47.609375 51.859375 
L 27.78125 32.625 
L 49.609375 0 
L 38.765625 0 
L 21.625 26.515625 
L 15.4375 20.5625 
L 15.4375 0 
z
" id="ArialMT-107"/>
     </defs>
     <g style="fill:#262626;" transform="translate(127 98.521562)scale(0.1 -0.1)">
      <use xlink:href="#ArialMT-74"/>
      <use x="50" xlink:href="#ArialMT-111"/>
      <use x="105.615234" xlink:href="#ArialMT-121"/>
      <use x="155.615234" xlink:href="#ArialMT-115"/>
      <use x="205.615234" xlink:href="#ArialMT-116"/>
      <use x="233.398438" xlink:href="#ArialMT-105"/>
      <use x="255.615234" xlink:href="#ArialMT-99"/>
      <use x="305.615234" xlink:href="#ArialMT-107"/>
     </g>
    </g>
   </g>
  </g>
 </g>
 <defs>
  <clipPath id="pcbf975c6a6">
   <rect height="326.16" width="558" x="90" y="51.84"/>
  </clipPath>
 </defs>
</svg>
